<?xml version="1.0" standalone="no"?>
<!DOCTYPE svg PUBLIC "-//W3C//DTD SVG 1.1//EN" "http://www.w3.org/Graphics/SVG/1.1/DTD/svg11.dtd" >
<svg xmlns="http://www.w3.org/2000/svg" xmlns:xlink="http://www.w3.org/1999/xlink" version="1.1">
<metadata>
Created by FontForge 20190801 at Sat Nov 21 10:28:05 2015
 By Jimmy Wärting
Copyright (c) 2015, Cadson Demak (info@cadsondemak.com)
</metadata>
<defs>
<font id="Athiti-Light" horiz-adv-x="0" >
  <font-face 
    font-family="Athiti Light"
    font-weight="300"
    font-stretch="normal"
    units-per-em="1000"
    panose-1="0 0 4 0 0 0 0 0 0 0"
    ascent="750"
    descent="-250"
    x-height="466"
    cap-height="612"
    bbox="-493 -437 967 1084"
    underline-thickness="50"
    underline-position="-100"
    unicode-range="U+000D-FB02"
  />
<missing-glyph horiz-adv-x="602" 
d="M105 714h392v-714h-392v714zM467 29v656h-333v-656h333z" />
    <glyph glyph-name="fi" unicode="fi" horiz-adv-x="537" 
d="M105 425h-66l6 39h60v63q0 37 23.5 67t56.5 47q22 5 50 8.5t48 3.5q64 0 112 -14l-12 -38q-43 11 -106 11q-52 0 -108 -14q-11 -20 -15.5 -37t-4.5 -40v-57h304v-464h-44v425h-260v-425h-44v425z" />
    <glyph glyph-name="fl" unicode="fl" horiz-adv-x="598" 
d="M434.5 27.5q-20.5 22.5 -20.5 42.5v356h-265v-426h-44v426h-66l6 40h60v73q0 38 23.5 68t56.5 47q49 13 116 13q82 0 157 -26v-560q0 -19 2 -28t8 -20h15l67 30l19 -25q-37 -35 -91 -44q-23 11 -43.5 33.5zM414 466v146q-51 13 -122 13t-123 -13q-11 -20 -15.5 -37.5
t-4.5 -40.5v-68h265z" />
    <glyph glyph-name="ru_lakkhangyaothai" unicode="&#xe24;&#xe45;" horiz-adv-x="831" 
d="M426 450q-55 29 -128 29q-50 0 -100 -13.5t-87 -37.5v-5l65 -85q11 -14 11 -31q0 -5 -2 -17l-36 -200q-3 -12 -3 -22q0 -17 9.5 -25t31.5 -8h56v-30q-35 -11 -68 -11q-34 0 -53 18t-19 52q0 6 2 22l38 226l-74 100v34q106 76 236 76q45 0 80 -11t57 -31q77 35 155 35
q71 0 110.5 -27t39.5 -76v-605h-46v649q-46 16 -110 16q-65 0 -127 -24q8 -18 8 -33v-608h-46v643z" />
    <glyph glyph-name="lu_lakkhangyaothai" unicode="&#xe26;&#xe45;" horiz-adv-x="823" 
d="M435 450q-55 29 -127 29q-95 0 -170 -51v-5l67 -85q10 -12 10 -31q0 -11 -1 -17l-38 -225q-6 -36 -23.5 -53.5t-50.5 -17.5q-29 0 -51 10v31h40q23 0 31.5 9t12.5 33l37 235l-75 100v34q51 37 103 56.5t114 19.5q43 0 77 -10t55 -27q37 14 70.5 22t72.5 8q71 0 110.5 -27
t39.5 -76v-605h-46v649q-46 16 -110 16q-59 0 -111 -18q9 -19 9 -39v-608h-46v643z" />
    <glyph glyph-name=".notdef" horiz-adv-x="602" 
d="M105 714h392v-714h-392v714zM467 29v656h-333v-656h333z" />
    <glyph glyph-name=".null" horiz-adv-x="500" 
 />
    <glyph glyph-name=".null" horiz-adv-x="500" 
 />
    <glyph glyph-name="nonmarkingreturn" unicode="&#xd;" horiz-adv-x="260" 
 />
    <glyph glyph-name="space" unicode=" " horiz-adv-x="300" 
 />
    <glyph glyph-name="A" unicode="A" horiz-adv-x="580" 
d="M44 6q97 350 192 606h108q95 -256 192 -606l-49 -6q-27 105 -61 215h-273q-37 -126 -60 -215zM412 258q-61 206 -100 309h-46q-19 -53 -48 -141.5t-52 -167.5h246z" />
    <glyph glyph-name="Aacute" unicode="&#xc1;" horiz-adv-x="580" 
d="M271 713l84 141l62 -7l-114 -139zM44 6q97 350 192 606h108q95 -256 192 -606l-49 -6q-27 105 -61 215h-273q-37 -126 -60 -215zM412 258q-61 206 -100 309h-46q-19 -53 -48 -141.5t-52 -167.5h246z" />
    <glyph glyph-name="Abreve" unicode="&#x102;" horiz-adv-x="580" 
d="M167 808l45 8q7 -35 23 -52.5t54 -17.5t54 17.5t23 52.5l45 -8q-20 -100 -122 -100t-122 100zM44 6q97 350 192 606h108q95 -256 192 -606l-49 -6q-27 105 -61 215h-273q-37 -126 -60 -215zM412 258q-61 206 -100 309h-46q-19 -53 -48 -141.5t-52 -167.5h246z" />
    <glyph glyph-name="uni1EAE" unicode="&#x1eae;" horiz-adv-x="580" 
d="M269 860l61 104l48 -9l-81 -101zM167 808l45 8q7 -35 23 -52.5t54 -17.5t54 17.5t23 52.5l45 -8q-20 -100 -122 -100t-122 100zM44 6q97 350 192 606h108q95 -256 192 -606l-49 -6q-27 105 -61 215h-273q-37 -126 -60 -215zM412 258q-61 206 -100 309h-46
q-19 -53 -48 -141.5t-52 -167.5h246z" />
    <glyph glyph-name="uni1EB6" unicode="&#x1eb6;" horiz-adv-x="580" 
d="M167 808l45 8q7 -35 23 -52.5t54 -17.5t54 17.5t23 52.5l45 -8q-20 -100 -122 -100t-122 100zM44 6q97 350 192 606h108q95 -256 192 -606l-49 -6q-27 105 -61 215h-273q-37 -126 -60 -215zM412 258q-61 206 -100 309h-46q-19 -53 -48 -141.5t-52 -167.5h246z
M258.5 -141.5q-11.5 10.5 -11.5 29.5q0 20 11.5 31t32.5 11q20 0 31 -11t11 -31q0 -19 -11 -29.5t-31 -10.5q-21 0 -32.5 10.5z" />
    <glyph glyph-name="uni1EB0" unicode="&#x1eb0;" horiz-adv-x="580" 
d="M200 955l47 9l62 -104l-28 -6zM166 808l45 8q7 -35 23 -52.5t54 -17.5t54 17.5t23 52.5l45 -8q-20 -100 -122 -100t-122 100zM44 6q97 350 192 606h108q95 -256 192 -606l-49 -6q-27 105 -61 215h-273q-37 -126 -60 -215zM412 258q-61 206 -100 309h-46
q-19 -53 -48 -141.5t-52 -167.5h246z" />
    <glyph glyph-name="uni1EB2" unicode="&#x1eb2;" horiz-adv-x="580" 
d="M268 881v20q35 0 48.5 6t13.5 20q0 13 -7.5 19t-24.5 6q-16 0 -39 -7l-7 27q27 9 51 9q29 0 44 -14t15 -40q0 -49 -62 -51v-36h-23zM167 808l45 8q7 -35 23 -52.5t54 -17.5t54 17.5t23 52.5l45 -8q-20 -100 -122 -100t-122 100zM44 6q97 350 192 606h108
q95 -256 192 -606l-49 -6q-27 105 -61 215h-273q-37 -126 -60 -215zM412 258q-61 206 -100 309h-46q-19 -53 -48 -141.5t-52 -167.5h246z" />
    <glyph glyph-name="uni1EB4" unicode="&#x1eb4;" horiz-adv-x="580" 
d="M179 883q10 64 63 64q17 0 30 -5t29 -15q9 -5 17.5 -9t15.5 -4q19 0 28.5 8.5t14.5 28.5l26 -8q-4 -33 -20.5 -48.5t-41.5 -15.5q-15 0 -26.5 4.5t-25.5 13.5q-12 8 -21 11.5t-19 3.5q-19 0 -29 -8.5t-15 -27.5zM167 808l45 8q7 -35 23 -52.5t54 -17.5t54 17.5t23 52.5
l45 -8q-20 -100 -122 -100t-122 100zM44 6q97 350 192 606h108q95 -256 192 -606l-49 -6q-27 105 -61 215h-273q-37 -126 -60 -215zM412 258q-61 206 -100 309h-46q-19 -53 -48 -141.5t-52 -167.5h246z" />
    <glyph glyph-name="uni01CD" unicode="&#x1cd;" horiz-adv-x="580" 
d="M163 845l30 7l94 -98h5l93 98l30 -7l-101 -131h-49zM44 6q97 350 192 606h108q95 -256 192 -606l-49 -6q-27 105 -61 215h-273q-37 -126 -60 -215zM412 258q-61 206 -100 309h-46q-19 -53 -48 -141.5t-52 -167.5h246z" />
    <glyph glyph-name="Acircumflex" unicode="&#xc2;" horiz-adv-x="580" 
d="M163 714l102 131h49l101 -131l-30 -7l-93 98h-5l-94 -98zM44 6q97 350 192 606h108q95 -256 192 -606l-49 -6q-27 105 -61 215h-273q-37 -126 -60 -215zM412 258q-61 206 -100 309h-46q-19 -53 -48 -141.5t-52 -167.5h246z" />
    <glyph glyph-name="uni1EA4" unicode="&#x1ea4;" horiz-adv-x="580" 
d="M418 802l61 104l48 -9l-81 -101zM163 714l102 131h49l101 -131l-30 -7l-93 98h-5l-94 -98zM44 6q97 350 192 606h108q95 -256 192 -606l-49 -6q-27 105 -61 215h-273q-37 -126 -60 -215zM412 258q-61 206 -100 309h-46q-19 -53 -48 -141.5t-52 -167.5h246z" />
    <glyph glyph-name="uni1EAC" unicode="&#x1eac;" horiz-adv-x="580" 
d="M162 713l102 131h49l101 -131l-30 -7l-93 98h-5l-94 -98zM44 6q97 350 192 606h108q95 -256 192 -606l-49 -6q-27 105 -61 215h-273q-37 -126 -60 -215zM412 258q-61 206 -100 309h-46q-19 -53 -48 -141.5t-52 -167.5h246zM257.5 -141.5q-11.5 10.5 -11.5 29.5
q0 20 11.5 31t32.5 11q20 0 31 -11t11 -31q0 -19 -11 -29.5t-31 -10.5q-21 0 -32.5 10.5z" />
    <glyph glyph-name="uni1EA6" unicode="&#x1ea6;" horiz-adv-x="580" 
d="M53 896l47 9l62 -104l-28 -6zM165 713l102 132h48l102 -132l-30 -6l-93 97h-6l-92 -97zM44 6q97 350 192 606h108q95 -256 192 -606l-49 -6q-27 105 -61 215h-273q-37 -126 -60 -215zM412 258q-61 206 -100 309h-46q-19 -53 -48 -141.5t-52 -167.5h246z" />
    <glyph glyph-name="uni1EA8" unicode="&#x1ea8;" horiz-adv-x="580" 
d="M409 854v21q35 0 48.5 5.5t13.5 20.5q0 13 -7.5 18.5t-24.5 5.5q-21 0 -39 -7l-7 27q26 10 51 10q29 0 44 -14.5t15 -39.5q0 -49 -62 -51v-37h-23zM161 714l102 131h49l101 -131l-30 -7l-93 98h-5l-94 -98zM44 6q97 350 192 606h108q95 -256 192 -606l-49 -6
q-27 105 -61 215h-273q-37 -126 -60 -215zM412 258q-61 206 -100 309h-46q-19 -53 -48 -141.5t-52 -167.5h246z" />
    <glyph glyph-name="uni1EAA" unicode="&#x1eaa;" horiz-adv-x="580" 
d="M175 911q10 63 63 63q17 0 30 -5t29 -15q9 -5 17.5 -9t15.5 -4q18 0 28 9t15 28l26 -7q-4 -33 -20.5 -48.5t-41.5 -15.5q-15 0 -26.5 4.5t-25.5 13.5q-12 8 -21 11.5t-19 3.5q-19 0 -29 -8.5t-15 -28.5zM162 714l102 131h49l101 -131l-30 -7l-93 98h-5l-94 -98zM44 6
q97 350 192 606h108q95 -256 192 -606l-49 -6q-27 105 -61 215h-273q-37 -126 -60 -215zM412 258q-61 206 -100 309h-46q-19 -53 -48 -141.5t-52 -167.5h246z" />
    <glyph glyph-name="Adieresis" unicode="&#xc4;" horiz-adv-x="580" 
d="M186 717.5q-9 8.5 -9 22.5q0 15 9 23.5t24 8.5t23.5 -8t8.5 -24q0 -14 -8.5 -22.5t-23.5 -8.5t-24 8.5zM343 717.5q-9 8.5 -9 22.5q0 16 9 24t25 8q15 0 23.5 -8t8.5 -24q0 -14 -8.5 -22.5t-23.5 -8.5q-16 0 -25 8.5zM44 6q97 350 192 606h108q95 -256 192 -606l-49 -6
q-27 105 -61 215h-273q-37 -126 -60 -215zM412 258q-61 206 -100 309h-46q-19 -53 -48 -141.5t-52 -167.5h246z" />
    <glyph glyph-name="uni1EA0" unicode="&#x1ea0;" horiz-adv-x="580" 
d="M44 6q97 350 192 606h108q95 -256 192 -606l-49 -6q-27 105 -61 215h-273q-37 -126 -60 -215zM412 258q-61 206 -100 309h-46q-19 -53 -48 -141.5t-52 -167.5h246zM257.5 -133.5q-11.5 10.5 -11.5 29.5q0 21 11.5 32t32.5 11q20 0 31 -11t11 -32q0 -19 -11 -29.5
t-31 -10.5q-21 0 -32.5 10.5z" />
    <glyph glyph-name="Agrave" unicode="&#xc0;" horiz-adv-x="580" 
d="M162 851l62 6l84 -140l-32 -6zM44 6q97 350 192 606h108q95 -256 192 -606l-49 -6q-27 105 -61 215h-273q-37 -126 -60 -215zM412 258q-61 206 -100 309h-46q-19 -53 -48 -141.5t-52 -167.5h246z" />
    <glyph glyph-name="uni1EA2" unicode="&#x1ea2;" horiz-adv-x="580" 
d="M266 763v23q50 0 69 8t19 33q0 19 -11.5 29t-36.5 10q-24 0 -51 -9l-10 31q35 13 69 13q40 0 59.5 -20t19.5 -53q0 -38 -23 -55t-66 -19v-40h-27zM44 6q97 350 192 606h108q95 -256 192 -606l-49 -6q-27 105 -61 215h-273q-37 -126 -60 -215zM412 258q-61 206 -100 309
h-46q-19 -53 -48 -141.5t-52 -167.5h246z" />
    <glyph glyph-name="Amacron" unicode="&#x100;" horiz-adv-x="580" 
d="M186 755h206v-41h-206v41zM44 6q97 350 192 606h108q95 -256 192 -606l-49 -6q-27 105 -61 215h-273q-37 -126 -60 -215zM412 258q-61 206 -100 309h-46q-19 -53 -48 -141.5t-52 -167.5h246z" />
    <glyph glyph-name="Aogonek" unicode="&#x104;" horiz-adv-x="580" 
d="M439.5 -140.5q-21.5 20.5 -21.5 55.5q0 64 67 94l-59 206h-273q-37 -126 -60 -215l-49 6q97 350 192 606h108q95 -256 192 -606l-16 -2q-33 -20 -46 -40t-13 -48q0 -22 8 -35q17 -4 39 -4t41 5l8 -32q-25 -11 -57 -11q-39 0 -60.5 20.5zM412 258q-61 206 -100 309h-46
q-19 -53 -48 -141.5t-52 -167.5h246z" />
    <glyph glyph-name="Aring" unicode="&#xc5;" horiz-adv-x="580" 
d="M208.5 725.5q-25.5 20.5 -25.5 60.5q0 38 31.5 65.5t83.5 27.5q97 0 97 -83q0 -38 -30 -64.5t-84 -26.5q-47 0 -72.5 20.5zM350 745q9 27 9 49q0 53 -65 53q-41 0 -66 -8q-9 -27 -9 -51q0 -51 64 -51q42 0 67 8zM44 6q97 350 192 606h108q95 -256 192 -606l-49 -6
q-27 105 -61 215h-273q-37 -126 -60 -215zM412 258q-61 206 -100 309h-46q-19 -53 -48 -141.5t-52 -167.5h246z" />
    <glyph glyph-name="Aringacute" unicode="&#x1fa;" horiz-adv-x="580" 
d="M268 944l84 140l62 -6l-114 -140zM208.5 719.5q-25.5 20.5 -25.5 60.5q0 38 31.5 65.5t83.5 27.5q97 0 97 -83q0 -39 -30 -65t-84 -26q-47 0 -72.5 20.5zM350 739q9 26 9 49q0 53 -65 53q-37 0 -66 -8q-9 -27 -9 -51q0 -25 16 -38.5t48 -13.5q39 0 67 9zM44 6
q97 350 192 606h108q95 -256 192 -606l-49 -6q-27 105 -61 215h-273q-37 -126 -60 -215zM412 258q-61 206 -100 309h-46q-19 -53 -48 -141.5t-52 -167.5h246z" />
    <glyph glyph-name="Atilde" unicode="&#xc3;" horiz-adv-x="580" 
d="M153 718q2 40 21 62t52 22q17 0 30.5 -7.5t33.5 -21.5q18 -13 28.5 -18.5t22.5 -5.5q39 0 46 54l31 -10q-2 -40 -21 -62t-52 -22q-17 0 -32 7.5t-34 21.5q-30 24 -49 24q-39 0 -46 -53zM44 6q97 350 192 606h108q95 -256 192 -606l-49 -6q-27 105 -61 215h-273
q-37 -126 -60 -215zM412 258q-61 206 -100 309h-46q-19 -53 -48 -141.5t-52 -167.5h246z" />
    <glyph glyph-name="AE" unicode="&#xc6;" horiz-adv-x="922" 
d="M488 60v156h-285q-54 -97 -113 -216l-46 16q167 333 329 596h470v-44h-308v-238h279v-44h-279v-238q73 -14 156 -14t153 15l11 -42q-69 -17 -167 -17q-200 0 -200 70zM488 260v307h-88q-108 -177 -175 -307h263z" />
    <glyph glyph-name="AEacute" unicode="&#x1fc;" horiz-adv-x="922" 
d="M524 714l84 140l62 -6l-114 -140zM488 60v156h-285q-54 -97 -113 -216l-46 16q167 333 329 596h470v-44h-308v-238h279v-44h-279v-238q73 -14 156 -14t153 15l11 -42q-69 -17 -167 -17q-200 0 -200 70zM488 260v307h-88q-108 -177 -175 -307h263z" />
    <glyph glyph-name="B" unicode="B" horiz-adv-x="528" 
d="M86 601q80 21 155 21q203 0 203 -165q0 -91 -82 -144v-4q112 -37 112 -139q0 -85 -50.5 -127.5t-178.5 -42.5h-159v601zM338 333q31 25 45 55t14 68q0 63 -40 92.5t-120 29.5q-53 0 -105 -11v-234h206zM240 43q75 0 116 14t56 41t15 70q0 54 -39 87.5t-111 33.5h-145
v-246h108z" />
    <glyph glyph-name="C" unicode="C" horiz-adv-x="547" 
d="M123.5 68.5q-63.5 77.5 -63.5 224.5t62.5 238t189.5 91q49 0 90 -10.5t70 -26.5v-38q0 -41 -8 -65h-28l-11 84q-50 11 -114 11q-66 0 -127 -19q-77 -104 -77 -263q0 -131 51.5 -195.5t158.5 -64.5q95 0 159 41l23 -36q-66 -49 -184 -49q-128 0 -191.5 77.5z" />
    <glyph glyph-name="Cacute" unicode="&#x106;" horiz-adv-x="547" 
d="M286 713l84 141l62 -7l-114 -139zM123.5 68.5q-63.5 77.5 -63.5 224.5t62.5 238t189.5 91q49 0 90 -10.5t70 -26.5v-38q0 -41 -8 -65h-28l-11 84q-50 11 -114 11q-66 0 -127 -19q-77 -104 -77 -263q0 -131 51.5 -195.5t158.5 -64.5q95 0 159 41l23 -36q-66 -49 -184 -49
q-128 0 -191.5 77.5z" />
    <glyph glyph-name="Ccaron" unicode="&#x10c;" horiz-adv-x="545" 
d="M177 845l30 7l94 -98h5l93 98l30 -7l-101 -131h-49zM120.5 68.5q-63.5 77.5 -63.5 224.5t62.5 238t189.5 91q49 0 90 -10.5t70 -26.5v-38q0 -41 -8 -65h-28l-11 84q-50 11 -114 11q-66 0 -127 -19q-77 -104 -77 -263q0 -131 51.5 -195.5t158.5 -64.5q95 0 159 41l23 -36
q-66 -49 -184 -49q-128 0 -191.5 77.5z" />
    <glyph glyph-name="Ccedilla" unicode="&#xc7;" horiz-adv-x="547" 
d="M213 -200l12 32q33 -12 71 -12q31 0 52 7q6 13 6 37q0 21 -11 31.5t-35 10.5q-29 0 -46 -6l-31 31l51 61q-112 10 -167 86.5t-55 214.5q0 147 62.5 238t189.5 91q49 0 90 -10.5t70 -26.5v-38q0 -41 -8 -65h-28l-11 84q-50 11 -114 11q-66 0 -127 -19q-77 -104 -77 -263
q0 -131 51.5 -195.5t158.5 -64.5q95 0 159 41l23 -36q-63 -46 -171 -49h-11l-44 -59q21 9 49 9q73 0 73 -73q0 -84 -101 -84q-44 0 -81 16z" />
    <glyph glyph-name="Ccircumflex" unicode="&#x108;" horiz-adv-x="547" 
d="M177 714l102 131h49l101 -131l-30 -7l-93 98h-5l-94 -98zM123.5 68.5q-63.5 77.5 -63.5 224.5t62.5 238t189.5 91q49 0 90 -10.5t70 -26.5v-38q0 -41 -8 -65h-28l-11 84q-50 11 -114 11q-66 0 -127 -19q-77 -104 -77 -263q0 -131 51.5 -195.5t158.5 -64.5q95 0 159 41
l23 -36q-66 -49 -184 -49q-128 0 -191.5 77.5z" />
    <glyph glyph-name="Cdotaccent" unicode="&#x10a;" horiz-adv-x="547" 
d="M283.5 719.5q-11.5 10.5 -11.5 29.5q0 42 44 42q42 0 42 -42q0 -19 -11 -29.5t-31 -10.5q-21 0 -32.5 10.5zM123.5 68.5q-63.5 77.5 -63.5 224.5t62.5 238t189.5 91q49 0 90 -10.5t70 -26.5v-38q0 -41 -8 -65h-28l-11 84q-50 11 -114 11q-66 0 -127 -19
q-77 -104 -77 -263q0 -131 51.5 -195.5t158.5 -64.5q95 0 159 41l23 -36q-66 -49 -184 -49q-128 0 -191.5 77.5z" />
    <glyph glyph-name="D" unicode="D" horiz-adv-x="564" 
d="M86 605q87 17 161 17q139 0 202.5 -76.5t63.5 -228.5q0 -145 -57 -231t-200 -86h-170v605zM253 44q45 0 77 4.5t64 14.5q35 39 53.5 102.5t18.5 146.5q0 139 -52 202.5t-171 63.5q-47 0 -110 -9v-525h120z" />
    <glyph glyph-name="Eth" unicode="&#xd0;" horiz-adv-x="622" 
d="M144 303h-99v40h99v262q87 17 161 17q139 0 202.5 -76.5t63.5 -228.5q0 -145 -57.5 -231t-200.5 -86h-169v303zM311 44q45 0 77 4.5t64 14.5q35 39 53.5 102.5t18.5 146.5q0 139 -52 202.5t-171 63.5q-47 0 -110 -9v-226h116v-40h-116v-259h120z" />
    <glyph glyph-name="Dcaron" unicode="&#x10e;" horiz-adv-x="564" 
d="M152 845l30 7l94 -98h5l93 98l30 -7l-101 -131h-49zM86 605q87 17 161 17q139 0 202.5 -76.5t63.5 -228.5q0 -145 -57 -231t-200 -86h-170v605zM253 44q45 0 77 4.5t64 14.5q35 39 53.5 102.5t18.5 146.5q0 139 -52 202.5t-171 63.5q-47 0 -110 -9v-525h120z" />
    <glyph glyph-name="Dcroat" unicode="&#x110;" horiz-adv-x="604" 
d="M126 286h-81v42h81v277q87 17 161 17q139 0 202.5 -76.5t63.5 -228.5q0 -145 -57 -231t-200 -86h-170v286zM293 44q45 0 77 4.5t64 14.5q35 39 53.5 102.5t18.5 146.5q0 139 -52 202.5t-171 63.5q-47 0 -110 -9v-241h98v-42h-98v-242h120z" />
    <glyph glyph-name="uni1E0C" unicode="&#x1e0c;" horiz-adv-x="564" 
d="M86 605q87 17 161 17q139 0 202.5 -76.5t63.5 -228.5q0 -145 -57 -231t-200 -86h-170v605zM253 44q45 0 77 4.5t64 14.5q35 39 53.5 102.5t18.5 146.5q0 139 -52 202.5t-171 63.5q-47 0 -110 -9v-525h120zM250.5 -133.5q-11.5 10.5 -11.5 29.5q0 21 11.5 32t32.5 11
q20 0 31 -11t11 -32q0 -19 -11 -29.5t-31 -10.5q-21 0 -32.5 10.5z" />
    <glyph glyph-name="uni1E0E" unicode="&#x1e0e;" horiz-adv-x="564" 
d="M86 605q87 17 161 17q139 0 202.5 -76.5t63.5 -228.5q0 -145 -57 -231t-200 -86h-170v605zM253 44q45 0 77 4.5t64 14.5q35 39 53.5 102.5t18.5 146.5q0 139 -52 202.5t-171 63.5q-47 0 -110 -9v-525h120zM86 -72h300v-44h-300v44z" />
    <glyph glyph-name="E" unicode="E" horiz-adv-x="514" 
d="M86 61v551h355v-44h-308v-238h279v-44h-279v-238q73 -14 155 -14t154 15l11 -42q-71 -16 -168 -16q-199 0 -199 70z" />
    <glyph glyph-name="Eacute" unicode="&#xc9;" horiz-adv-x="520" 
d="M240 717l84 140l62 -6l-114 -140zM86 61v551h355v-44h-308v-238h279v-44h-279v-238q73 -14 155 -14t154 15l11 -42q-71 -16 -168 -16q-199 0 -199 70z" />
    <glyph glyph-name="Ebreve" unicode="&#x114;" horiz-adv-x="520" 
d="M150 810l45 7q7 -35 23 -52t54 -17t54 17t23 52l45 -7q-19 -101 -122 -101t-122 101zM86 61v551h355v-44h-308v-238h279v-44h-279v-238q73 -14 155 -14t154 15l11 -42q-71 -16 -168 -16q-199 0 -199 70z" />
    <glyph glyph-name="Ecaron" unicode="&#x11a;" horiz-adv-x="520" 
d="M138 845l30 7l94 -98h5l93 98l30 -7l-101 -131h-49zM86 61v551h355v-44h-308v-238h279v-44h-279v-238q73 -14 155 -14t154 15l11 -42q-71 -16 -168 -16q-199 0 -199 70z" />
    <glyph glyph-name="Ecircumflex" unicode="&#xca;" horiz-adv-x="520" 
d="M135 714l102 131h49l101 -131l-30 -7l-93 98h-5l-94 -98zM86 61v551h355v-44h-308v-238h279v-44h-279v-238q73 -14 155 -14t154 15l11 -42q-71 -16 -168 -16q-199 0 -199 70z" />
    <glyph glyph-name="uni1EBE" unicode="&#x1ebe;" horiz-adv-x="525" 
d="M392 802l61 104l48 -9l-81 -101zM137 714l102 131h49l101 -131l-30 -7l-93 98h-5l-94 -98zM86 61v551h355v-44h-308v-238h279v-44h-279v-238q73 -14 155 -14t154 15l11 -42q-71 -16 -168 -16q-199 0 -199 70z" />
    <glyph glyph-name="uni1EC6" unicode="&#x1ec6;" horiz-adv-x="525" 
d="M144 714l102 131h49l101 -131l-30 -7l-93 98h-5l-94 -98zM86 61v551h355v-44h-308v-238h279v-44h-279v-238q73 -14 155 -14t154 15l11 -42q-71 -16 -168 -16q-199 0 -199 70zM240.5 -141.5q-11.5 10.5 -11.5 29.5q0 20 11.5 31t32.5 11q20 0 31 -11t11 -31
q0 -19 -11 -29.5t-31 -10.5q-21 0 -32.5 10.5z" />
    <glyph glyph-name="uni1EC0" unicode="&#x1ec0;" horiz-adv-x="523" 
d="M32 901l47 8l62 -103l-28 -7zM144 718l102 131h48l102 -131l-30 -7l-93 98h-6l-92 -98zM89 61v551h355v-44h-308v-238h279v-44h-279v-238q73 -14 155 -14t154 15l11 -42q-71 -16 -168 -16q-199 0 -199 70z" />
    <glyph glyph-name="uni1EC2" unicode="&#x1ec2;" horiz-adv-x="526" 
d="M383 854v21q35 0 48.5 5.5t13.5 19.5q0 13 -7.5 19t-24.5 6q-21 0 -39 -7l-7 27q30 10 51 10q29 0 44 -14.5t15 -39.5q0 -49 -62 -52v-36h-23zM135 714l102 131h49l101 -131l-30 -7l-93 98h-5l-94 -98zM86 61v551h355v-44h-308v-238h279v-44h-279v-238q73 -14 155 -14
t154 15l11 -42q-71 -16 -168 -16q-199 0 -199 70z" />
    <glyph glyph-name="uni1EC4" unicode="&#x1ec4;" horiz-adv-x="520" 
d="M151 911q10 63 63 63q17 0 30 -5t29 -15q9 -5 17.5 -9t15.5 -4q18 0 28 9t15 28l26 -7q-4 -33 -20.5 -48.5t-41.5 -15.5q-15 0 -26.5 4.5t-25.5 13.5q-12 8 -21 11.5t-19 3.5q-19 0 -29 -8.5t-15 -28.5zM138 714l102 131h49l101 -131l-30 -7l-93 98h-5l-94 -98zM86 61
v551h355v-44h-308v-238h279v-44h-279v-238q73 -14 155 -14t154 15l11 -42q-71 -16 -168 -16q-199 0 -199 70z" />
    <glyph glyph-name="Edieresis" unicode="&#xcb;" horiz-adv-x="520" 
d="M165 717.5q-9 8.5 -9 22.5q0 15 9 23.5t24 8.5t23.5 -8t8.5 -24q0 -14 -8.5 -22.5t-23.5 -8.5t-24 8.5zM322 717.5q-9 8.5 -9 22.5q0 16 9 24t25 8q15 0 23.5 -8t8.5 -24q0 -14 -8.5 -22.5t-23.5 -8.5q-16 0 -25 8.5zM86 61v551h355v-44h-308v-238h279v-44h-279v-238
q73 -14 155 -14t154 15l11 -42q-71 -16 -168 -16q-199 0 -199 70z" />
    <glyph glyph-name="Edotaccent" unicode="&#x116;" horiz-adv-x="520" 
d="M239.5 719.5q-11.5 10.5 -11.5 29.5q0 42 44 42q42 0 42 -42q0 -19 -11 -29.5t-31 -10.5q-21 0 -32.5 10.5zM86 61v551h355v-44h-308v-238h279v-44h-279v-238q73 -14 155 -14t154 15l11 -42q-71 -16 -168 -16q-199 0 -199 70z" />
    <glyph glyph-name="uni1EB8" unicode="&#x1eb8;" horiz-adv-x="520" 
d="M86 61v551h355v-44h-308v-238h279v-44h-279v-238q73 -14 155 -14t154 15l11 -42q-71 -16 -168 -16q-199 0 -199 70zM247.5 -133.5q-11.5 10.5 -11.5 29.5q0 21 11.5 32t32.5 11q20 0 31 -11t11 -32q0 -19 -11 -29.5t-31 -10.5q-21 0 -32.5 10.5z" />
    <glyph glyph-name="Egrave" unicode="&#xc8;" horiz-adv-x="520" 
d="M156 847l62 7l84 -141l-32 -5zM86 61v551h355v-44h-308v-238h279v-44h-279v-238q73 -14 155 -14t154 15l11 -42q-71 -16 -168 -16q-199 0 -199 70z" />
    <glyph glyph-name="uni1EBA" unicode="&#x1eba;" horiz-adv-x="520" 
d="M237 763v23q50 0 69 8t19 33q0 19 -11 28.5t-37 9.5q-27 0 -51 -8l-10 31q35 13 69 13q40 0 59.5 -20t19.5 -54q0 -37 -23.5 -54.5t-65.5 -19.5v-39h-27zM86 61v551h355v-44h-308v-238h279v-44h-279v-238q73 -14 155 -14t154 15l11 -42q-71 -16 -168 -16q-199 0 -199 70z
" />
    <glyph glyph-name="Emacron" unicode="&#x112;" horiz-adv-x="520" 
d="M129 755h270v-41h-270v41zM86 61v551h355v-44h-308v-238h279v-44h-279v-238q73 -14 155 -14t154 15l11 -42q-71 -16 -168 -16q-199 0 -199 70z" />
    <glyph glyph-name="Eogonek" unicode="&#x118;" horiz-adv-x="520" 
d="M345 -143.5q-21 20.5 -21 56.5q0 52 43 81q-37 -3 -82 -3q-199 0 -199 70v551h355v-44h-308v-238h279v-44h-279v-238q73 -14 155 -14t154 15l11 -42q-17 -5 -34 -8q-30 -19 -41.5 -39t-11.5 -46q0 -23 8 -36q19 -4 40 -4q16 0 41 5l7 -32q-25 -11 -56 -11q-40 0 -61 20.5
z" />
    <glyph glyph-name="uni1EBC" unicode="&#x1ebc;" horiz-adv-x="520" 
d="M136 716q2 40 21 62.5t52 22.5q17 0 30.5 -7.5t33.5 -21.5q18 -13 28.5 -18.5t22.5 -5.5q39 0 46 53l31 -9q-2 -40 -21 -62t-52 -22q-17 0 -32 7.5t-34 21.5q-30 24 -49 24q-39 0 -46 -54zM86 61v551h355v-44h-308v-238h279v-44h-279v-238q73 -14 155 -14t154 15l11 -42
q-71 -16 -168 -16q-199 0 -199 70z" />
    <glyph glyph-name="F" unicode="F" horiz-adv-x="490" 
d="M86 616h364v-44h-317v-243h266v-41h-266v-288h-47v616z" />
    <glyph glyph-name="G" unicode="G" horiz-adv-x="580" 
d="M126 68.5q-66 77.5 -66 224.5q0 149 65.5 239t200.5 90q52 0 97.5 -10.5t73.5 -26.5v-38q0 -16 -2.5 -35t-6.5 -30h-28l-11 84q-49 11 -126 11q-76 0 -137 -19q-79 -106 -79 -263q0 -260 214 -260q47 0 79 6t63 19v212h-141v44h153l34 -27v-188q0 -50 -52.5 -80
t-140.5 -30q-124 0 -190 77.5z" />
    <glyph glyph-name="Gbreve" unicode="&#x11e;" horiz-adv-x="580" 
d="M191 810l45 7q7 -35 23 -52t54 -17t54 17t23 52l45 -7q-19 -101 -122 -101t-122 101zM126 68.5q-66 77.5 -66 224.5q0 149 65.5 239t200.5 90q52 0 97.5 -10.5t73.5 -26.5v-38q0 -16 -2.5 -35t-6.5 -30h-28l-11 84q-49 11 -126 11q-76 0 -137 -19q-79 -106 -79 -263
q0 -260 214 -260q47 0 79 6t63 19v212h-141v44h153l34 -27v-188q0 -50 -52.5 -80t-140.5 -30q-124 0 -190 77.5z" />
    <glyph glyph-name="Gcaron" unicode="&#x1e6;" horiz-adv-x="580" 
d="M182 845l30 7l94 -98h5l93 98l30 -7l-101 -131h-49zM126 68.5q-66 77.5 -66 224.5q0 149 65.5 239t200.5 90q52 0 97.5 -10.5t73.5 -26.5v-38q0 -16 -2.5 -35t-6.5 -30h-28l-11 84q-49 11 -126 11q-76 0 -137 -19q-79 -106 -79 -263q0 -260 214 -260q47 0 79 6t63 19v212
h-141v44h153l34 -27v-188q0 -50 -52.5 -80t-140.5 -30q-124 0 -190 77.5z" />
    <glyph glyph-name="Gcircumflex" unicode="&#x11c;" horiz-adv-x="580" 
d="M178 714l102 131h49l101 -131l-30 -7l-93 98h-5l-94 -98zM126 68.5q-66 77.5 -66 224.5q0 149 65.5 239t200.5 90q52 0 97.5 -10.5t73.5 -26.5v-38q0 -16 -2.5 -35t-6.5 -30h-28l-11 84q-49 11 -126 11q-76 0 -137 -19q-79 -106 -79 -263q0 -260 214 -260q47 0 79 6
t63 19v212h-141v44h153l34 -27v-188q0 -50 -52.5 -80t-140.5 -30q-124 0 -190 77.5z" />
    <glyph glyph-name="Gcommaaccent" unicode="&#x122;" horiz-adv-x="580" 
d="M126 68.5q-66 77.5 -66 224.5q0 149 65.5 239t200.5 90q52 0 97.5 -10.5t73.5 -26.5v-38q0 -16 -2.5 -35t-6.5 -30h-28l-11 84q-49 11 -126 11q-76 0 -137 -19q-79 -106 -79 -263q0 -260 214 -260q47 0 79 6t63 19v212h-141v44h153l34 -27v-188q0 -50 -52.5 -80
t-140.5 -30q-124 0 -190 77.5zM298 -239q18 33 27 65t9 76h-55v33q22 6 38 6q56 0 56 -62q0 -68 -45 -125z" />
    <glyph glyph-name="Gdotaccent" unicode="&#x120;" horiz-adv-x="580" 
d="M284.5 719.5q-11.5 10.5 -11.5 29.5q0 42 44 42q42 0 42 -42q0 -19 -11 -29.5t-31 -10.5q-21 0 -32.5 10.5zM126 68.5q-66 77.5 -66 224.5q0 149 65.5 239t200.5 90q52 0 97.5 -10.5t73.5 -26.5v-38q0 -16 -2.5 -35t-6.5 -30h-28l-11 84q-49 11 -126 11q-76 0 -137 -19
q-79 -106 -79 -263q0 -260 214 -260q47 0 79 6t63 19v212h-141v44h153l34 -27v-188q0 -50 -52.5 -80t-140.5 -30q-124 0 -190 77.5z" />
    <glyph glyph-name="uni1E20" unicode="&#x1e20;" horiz-adv-x="580" 
d="M176 755h270v-41h-270v41zM126 68.5q-66 77.5 -66 224.5q0 149 65.5 239t200.5 90q52 0 97.5 -10.5t73.5 -26.5v-38q0 -16 -2.5 -35t-6.5 -30h-28l-11 84q-49 11 -126 11q-76 0 -137 -19q-79 -106 -79 -263q0 -260 214 -260q47 0 79 6t63 19v212h-141v44h153l34 -27v-188
q0 -50 -52.5 -80t-140.5 -30q-124 0 -190 77.5z" />
    <glyph glyph-name="H" unicode="H" horiz-adv-x="586" 
d="M86 612h47v-293h319v293h47v-612h-47v274h-319v-274h-47v612z" />
    <glyph glyph-name="Hbar" unicode="&#x126;" horiz-adv-x="665" 
d="M126 449h-65v40h65v123h47v-123h319v123h47v-123h65v-40h-65v-449h-47v274h-319v-274h-47v449zM492 319v130h-319v-130h319z" />
    <glyph glyph-name="uni1E2A" unicode="&#x1e2a;" horiz-adv-x="584" 
d="M86 612h47v-293h319v293h47v-612h-47v274h-319v-274h-47v612zM170 -56l45 8q7 -35 23 -52.5t54 -17.5t54 17.5t23 52.5l45 -8q-19 -101 -122 -101t-122 101z" />
    <glyph glyph-name="Hcircumflex" unicode="&#x124;" horiz-adv-x="584" 
d="M166 714l102 131h49l101 -131l-30 -7l-93 98h-5l-94 -98zM86 612h47v-293h319v293h47v-612h-47v274h-319v-274h-47v612z" />
    <glyph glyph-name="uni1E24" unicode="&#x1e24;" horiz-adv-x="584" 
d="M86 612h47v-293h319v293h47v-612h-47v274h-319v-274h-47v612zM260.5 -133.5q-11.5 10.5 -11.5 29.5q0 21 11.5 32t32.5 11q20 0 31 -11t11 -32q0 -19 -11 -29.5t-31 -10.5q-21 0 -32.5 10.5z" />
    <glyph glyph-name="I" unicode="I" horiz-adv-x="225" 
d="M89 612h47v-612h-47v612z" />
    <glyph glyph-name="IJ" unicode="&#x132;" horiz-adv-x="647" 
d="M268 14l13 42q58 -22 123 -22q63 0 104 23q9 26 9 62v497h47v-500q0 -125 -164 -125q-70 0 -132 23zM89 612h47v-612h-47v612z" />
    <glyph glyph-name="Iacute" unicode="&#xcd;" horiz-adv-x="225" 
d="M92 713l84 141l62 -7l-114 -139zM89 612h47v-612h-47v612z" />
    <glyph glyph-name="Ibreve" unicode="&#x12c;" horiz-adv-x="225" 
d="M28.5 736.5q-29.5 27.5 -37.5 73.5l45 7q6 -34 22.5 -51.5t54.5 -17.5t54 17.5t22 51.5l46 -7q-19 -101 -122 -101q-55 0 -84.5 27.5zM89 612h47v-612h-47v612z" />
    <glyph glyph-name="uni01CF" unicode="&#x1cf;" horiz-adv-x="225" 
d="M-14 845l31 7l93 -98h6l92 98l31 -7l-102 -131h-49zM89 612h47v-612h-47v612z" />
    <glyph glyph-name="Icircumflex" unicode="&#xce;" horiz-adv-x="225" 
d="M-14 714l102 131h49l102 -131l-31 -7l-92 98h-6l-93 -98zM89 612h47v-612h-47v612z" />
    <glyph glyph-name="Idieresis" unicode="&#xcf;" horiz-adv-x="225" 
d="M9 717.5q-9 8.5 -9 22.5q0 15 9 23.5t24 8.5t23.5 -8t8.5 -24q0 -14 -8.5 -22.5t-23.5 -8.5t-24 8.5zM166 717.5q-9 8.5 -9 22.5q0 16 9 24t25 8q15 0 23.5 -8t8.5 -24q0 -14 -8.5 -22.5t-23.5 -8.5q-16 0 -25 8.5zM89 612h47v-612h-47v612z" />
    <glyph glyph-name="Idotaccent" unicode="&#x130;" horiz-adv-x="225" 
d="M80.5 713.5q-11.5 10.5 -11.5 29.5q0 42 44 42q42 0 42 -42q0 -19 -11 -29.5t-31 -10.5q-21 0 -32.5 10.5zM89 612h47v-612h-47v612z" />
    <glyph glyph-name="uni1ECA" unicode="&#x1eca;" horiz-adv-x="234" 
d="M93 612h47v-612h-47v612zM85.5 -141.5q-11.5 10.5 -11.5 29.5q0 20 11.5 31t32.5 11q20 0 31 -11t11 -31q0 -19 -11 -29.5t-31 -10.5q-21 0 -32.5 10.5z" />
    <glyph glyph-name="Igrave" unicode="&#xcc;" horiz-adv-x="225" 
d="M-10 847l62 7l84 -141l-32 -5zM89 612h47v-612h-47v612z" />
    <glyph glyph-name="uni1EC8" unicode="&#x1ec8;" horiz-adv-x="239" 
d="M92 763v23q50 0 69 8t19 33q0 19 -11 28.5t-37 9.5q-27 0 -51 -8l-10 31q35 13 69 13q40 0 59.5 -20t19.5 -54q0 -37 -23.5 -54.5t-65.5 -19.5v-39h-27zM94 612h47v-612h-47v612z" />
    <glyph glyph-name="Imacron" unicode="&#x12a;" horiz-adv-x="225" 
d="M-22 755h270v-41h-270v41zM89 612h47v-612h-47v612z" />
    <glyph glyph-name="Iogonek" unicode="&#x12e;" horiz-adv-x="225" 
d="M171 -155q-24 -11 -56 -11q-40 0 -61 20.5t-21 56.5q0 28 14.5 48.5t41.5 37.5v615h47v-616q-33 -14 -47 -34t-14 -50q0 -18 8 -36q19 -4 40 -4q16 0 41 5z" />
    <glyph glyph-name="Itilde" unicode="&#x128;" horiz-adv-x="225" 
d="M-20 717q2 40 21 62.5t52 22.5q16 0 30.5 -7.5t31.5 -20.5q18 -13 29 -19t24 -6q39 0 46 53l31 -9q-2 -40 -21 -62t-52 -22q-18 0 -32.5 7.5t-34.5 22.5q-15 12 -26 17.5t-22 5.5q-39 0 -47 -54zM89 612h47v-612h-47v612z" />
    <glyph glyph-name="J" unicode="J" horiz-adv-x="411" 
d="M31 14l13 42q58 -22 123 -22q63 0 104 23q9 26 9 62v497h47v-500q0 -125 -164 -125q-70 0 -132 23z" />
    <glyph glyph-name="Jcircumflex" unicode="&#x134;" horiz-adv-x="411" 
d="M173 714l102 131h49l101 -131l-30 -7l-93 98h-5l-94 -98zM31 14l13 42q58 -22 123 -22q63 0 104 23q9 26 9 62v497h47v-500q0 -125 -164 -125q-70 0 -132 23z" />
    <glyph glyph-name="K" unicode="K" horiz-adv-x="581" 
d="M471 2.5q-13 8.5 -21 26.5l-81 180q-21 46 -47.5 67t-76.5 21h-113v-297h-46v612h46v-272h108q51 0 76 22t47 64q39 76 87 187l44 -17q-42 -98 -88 -184q-20 -38 -34.5 -55t-47.5 -34v-6q33 -13 51 -31t34 -52l90 -198l49 -8v-27q-20 -7 -43 -7q-21 0 -34 8.5z" />
    <glyph glyph-name="Kcommaaccent" unicode="&#x136;" horiz-adv-x="581" 
d="M471 2.5q-13 8.5 -21 26.5l-81 180q-21 46 -47.5 67t-76.5 21h-113v-297h-46v612h46v-272h108q51 0 76 22t47 64q39 76 87 187l44 -17q-42 -98 -88 -184q-20 -38 -34.5 -55t-47.5 -34v-6q33 -13 51 -31t34 -52l90 -198l49 -8v-27q-20 -7 -43 -7q-21 0 -34 8.5zM255 -228
q18 33 27 65t9 75h-55v33q19 7 38 7q56 0 56 -62q0 -68 -45 -125z" />
    <glyph glyph-name="L" unicode="L" horiz-adv-x="455" 
d="M86 612h47v-568h288v-44h-335v612z" />
    <glyph glyph-name="Lacute" unicode="&#x139;" horiz-adv-x="455" 
d="M88 713l84 140l62 -6l-114 -140zM86 612h47v-568h288v-44h-335v612z" />
    <glyph glyph-name="Lcaron" unicode="&#x13d;" horiz-adv-x="455" 
d="M252 433q18 33 27 65.5t9 75.5h-55v33q17 6 38 6q56 0 56 -62q0 -68 -45 -124zM86 612h47v-568h288v-44h-335v612z" />
    <glyph glyph-name="Lcommaaccent" unicode="&#x13b;" horiz-adv-x="455" 
d="M86 612h47v-568h288v-44h-335v612zM230 -228q18 33 27 65t9 75h-55v33q19 7 38 7q56 0 56 -62q0 -68 -45 -125z" />
    <glyph glyph-name="Ldot" unicode="&#x13f;" horiz-adv-x="455" 
d="M86 612h47v-568h288v-44h-335v612zM243.5 262.5q-11.5 10.5 -11.5 29.5q0 20 12 31.5t31 11.5q20 0 31.5 -11.5t11.5 -31.5q0 -19 -11.5 -29.5t-31.5 -10.5t-31.5 10.5z" />
    <glyph glyph-name="uni1E36" unicode="&#x1e36;" horiz-adv-x="455" 
d="M86 612h47v-568h288v-44h-335v612zM220.5 -133.5q-11.5 10.5 -11.5 29.5q0 21 11.5 32t32.5 11q20 0 31 -11t11 -32q0 -19 -11 -29.5t-31 -10.5q-21 0 -32.5 10.5z" />
    <glyph glyph-name="uni1E38" unicode="&#x1e38;" horiz-adv-x="455" 
d="M0 755h270v-41h-270v41zM86 612h47v-568h288v-44h-335v612zM219.5 -133.5q-11.5 10.5 -11.5 29.5q0 21 11.5 32t32.5 11q20 0 31 -11t11 -32q0 -19 -11 -29.5t-31 -10.5q-21 0 -32.5 10.5z" />
    <glyph glyph-name="uni1E3A" unicode="&#x1e3a;" horiz-adv-x="455" 
d="M86 612h47v-568h288v-44h-335v612zM86 -72h301v-44h-301v44z" />
    <glyph glyph-name="Lslash" unicode="&#x141;" horiz-adv-x="470" 
d="M116 271l-93 -30l-12 37l105 34v300h47v-284l116 38l12 -38l-128 -41v-243h274v-44h-321v271z" />
    <glyph glyph-name="M" unicode="M" horiz-adv-x="675" 
d="M107 612h48l179 -372h7l179 372h47l31 -612h-48l-15 319l-6 203l-6 1l-164 -331h-43l-164 331l-6 -1l-6 -203l-16 -319h-47z" />
    <glyph glyph-name="uni1E42" unicode="&#x1e42;" horiz-adv-x="675" 
d="M107 612h48l179 -372h7l179 372h47l31 -612h-48l-15 319l-6 203l-6 1l-164 -331h-43l-164 331l-6 -1l-6 -203l-16 -319h-47zM305.5 -133.5q-11.5 10.5 -11.5 29.5q0 21 11.5 32t32.5 11q20 0 31 -11t11 -32q0 -19 -11 -29.5t-31 -10.5q-21 0 -32.5 10.5z" />
    <glyph glyph-name="N" unicode="N" horiz-adv-x="610" 
d="M86 612h53l339 -540l6 2l-7 214v324h47v-612h-53l-339 540l-7 -2l8 -214v-324h-47v612z" />
    <glyph glyph-name="Nacute" unicode="&#x143;" horiz-adv-x="610" 
d="M282 713l84 141l62 -7l-114 -139zM86 612h53l339 -540l6 2l-7 214v324h47v-612h-53l-339 540l-7 -2l8 -214v-324h-47v612z" />
    <glyph glyph-name="Ncaron" unicode="&#x147;" horiz-adv-x="610" 
d="M192 845l30 7l94 -98h5l93 98l30 -7l-101 -131h-49zM86 612h53l339 -540l6 2l-7 214v324h47v-612h-53l-339 540l-7 -2l8 -214v-324h-47v612z" />
    <glyph glyph-name="Ncommaaccent" unicode="&#x145;" horiz-adv-x="610" 
d="M86 612h53l339 -540l6 2l-7 214v324h47v-612h-53l-339 540l-7 -2l8 -214v-324h-47v612zM292 -228q18 33 27 65t9 75h-55v33q19 7 38 7q56 0 56 -62q0 -68 -45 -125z" />
    <glyph glyph-name="uni1E44" unicode="&#x1e44;" horiz-adv-x="610" 
d="M283.5 719.5q-11.5 10.5 -11.5 29.5q0 42 44 42q42 0 42 -42q0 -19 -11 -29.5t-31 -10.5q-21 0 -32.5 10.5zM86 612h53l339 -540l6 2l-7 214v324h47v-612h-53l-339 540l-7 -2l8 -214v-324h-47v612z" />
    <glyph glyph-name="uni1E46" unicode="&#x1e46;" horiz-adv-x="610" 
d="M86 612h53l339 -540l6 2l-7 214v324h47v-612h-53l-339 540l-7 -2l8 -214v-324h-47v612zM277.5 -133.5q-11.5 10.5 -11.5 29.5q0 21 11.5 32t32.5 11q20 0 31 -11t11 -32q0 -19 -11 -29.5t-31 -10.5q-21 0 -32.5 10.5z" />
    <glyph glyph-name="Eng" unicode="&#x14a;" horiz-adv-x="610" 
d="M352 -168q71 19 115 50q8 24 8 62v56l-343 540l-7 -2l8 -214v-324h-47v612h53l339 -540l6 2l-7 214v324h47v-645q0 -70 -33.5 -111.5t-116.5 -72.5z" />
    <glyph glyph-name="uni1E48" unicode="&#x1e48;" horiz-adv-x="610" 
d="M86 612h53l339 -540l6 2l-7 214v324h47v-612h-53l-339 540l-7 -2l8 -214v-324h-47v612zM205 -72h301v-44h-301v44z" />
    <glyph glyph-name="Ntilde" unicode="&#xd1;" horiz-adv-x="610" 
d="M173 719q2 40 21 62t52 22q17 0 30.5 -7.5t33.5 -21.5q18 -13 28.5 -18.5t22.5 -5.5q39 0 46 54l31 -10q-2 -40 -21 -62t-52 -22q-17 0 -32 7.5t-34 21.5q-30 24 -49 24q-39 0 -46 -53zM86 612h53l339 -540l6 2l-7 214v324h47v-612h-53l-339 540l-7 -2l8 -214v-324h-47
v612z" />
    <glyph glyph-name="O" unicode="O" horiz-adv-x="602" 
d="M116.5 68q-55.5 77 -55.5 229q0 158 57 241.5t194 83.5q119 0 174 -77t55 -230q0 -159 -56.5 -241.5t-194.5 -82.5q-118 0 -173.5 77zM375.5 42.5q35.5 7.5 58.5 20.5q60 92 60 241q0 95 -18 154.5t-61.5 89t-117.5 29.5q-36 0 -71.5 -7.5t-58.5 -20.5q-59 -92 -59 -241
q0 -95 18.5 -154.5t61.5 -89t117 -29.5q35 0 70.5 7.5z" />
    <glyph glyph-name="Oacute" unicode="&#xd3;" horiz-adv-x="602" 
d="M285 713l84 141l62 -7l-114 -140zM116.5 68q-55.5 77 -55.5 229q0 158 57 241.5t194 83.5q119 0 174 -77t55 -230q0 -159 -56.5 -241.5t-194.5 -82.5q-118 0 -173.5 77zM375.5 42.5q35.5 7.5 58.5 20.5q60 92 60 241q0 95 -18 154.5t-61.5 89t-117.5 29.5
q-36 0 -71.5 -7.5t-58.5 -20.5q-59 -92 -59 -241q0 -95 18.5 -154.5t61.5 -89t117 -29.5q35 0 70.5 7.5z" />
    <glyph glyph-name="Obreve" unicode="&#x14e;" horiz-adv-x="602" 
d="M179 810l45 7q7 -35 23 -52t54 -17t54 17t23 52l45 -7q-19 -101 -122 -101t-122 101zM116.5 68q-55.5 77 -55.5 229q0 158 57 241.5t194 83.5q119 0 174 -77t55 -230q0 -159 -56.5 -241.5t-194.5 -82.5q-118 0 -173.5 77zM375.5 42.5q35.5 7.5 58.5 20.5q60 92 60 241
q0 95 -18 154.5t-61.5 89t-117.5 29.5q-36 0 -71.5 -7.5t-58.5 -20.5q-59 -92 -59 -241q0 -95 18.5 -154.5t61.5 -89t117 -29.5q35 0 70.5 7.5z" />
    <glyph glyph-name="uni01D1" unicode="&#x1d1;" horiz-adv-x="602" 
d="M178 845l30 7l94 -98h5l93 98l30 -7l-101 -131h-49zM116.5 68q-55.5 77 -55.5 229q0 158 57 241.5t194 83.5q119 0 174 -77t55 -230q0 -159 -56.5 -241.5t-194.5 -82.5q-118 0 -173.5 77zM375.5 42.5q35.5 7.5 58.5 20.5q60 92 60 241q0 95 -18 154.5t-61.5 89
t-117.5 29.5q-36 0 -71.5 -7.5t-58.5 -20.5q-59 -92 -59 -241q0 -95 18.5 -154.5t61.5 -89t117 -29.5q35 0 70.5 7.5z" />
    <glyph glyph-name="Ocircumflex" unicode="&#xd4;" horiz-adv-x="602" 
d="M183 714l102 131h49l101 -131l-30 -7l-93 98h-5l-94 -98zM116.5 68q-55.5 77 -55.5 229q0 158 57 241.5t194 83.5q119 0 174 -77t55 -230q0 -159 -56.5 -241.5t-194.5 -82.5q-118 0 -173.5 77zM375.5 42.5q35.5 7.5 58.5 20.5q60 92 60 241q0 95 -18 154.5t-61.5 89
t-117.5 29.5q-36 0 -71.5 -7.5t-58.5 -20.5q-59 -92 -59 -241q0 -95 18.5 -154.5t61.5 -89t117 -29.5q35 0 70.5 7.5z" />
    <glyph glyph-name="uni1ED0" unicode="&#x1ed0;" horiz-adv-x="602" 
d="M436 802l61 104l48 -9l-81 -101zM180 714l102 131h49l101 -131l-30 -7l-93 98h-5l-94 -98zM116.5 68q-55.5 77 -55.5 229q0 158 57 241.5t194 83.5q119 0 174 -77t55 -230q0 -159 -56.5 -241.5t-194.5 -82.5q-118 0 -173.5 77zM375.5 42.5q35.5 7.5 58.5 20.5
q60 92 60 241q0 95 -18 154.5t-61.5 89t-117.5 29.5q-36 0 -71.5 -7.5t-58.5 -20.5q-59 -92 -59 -241q0 -95 18.5 -154.5t61.5 -89t117 -29.5q35 0 70.5 7.5z" />
    <glyph glyph-name="uni1ED8" unicode="&#x1ed8;" horiz-adv-x="602" 
d="M178 714l102 131h49l101 -131l-30 -7l-93 98h-5l-94 -98zM116.5 68q-55.5 77 -55.5 229q0 158 57 241.5t194 83.5q119 0 174 -77t55 -230q0 -159 -56.5 -241.5t-194.5 -82.5q-118 0 -173.5 77zM375.5 42.5q35.5 7.5 58.5 20.5q60 92 60 241q0 95 -18 154.5t-61.5 89
t-117.5 29.5q-36 0 -71.5 -7.5t-58.5 -20.5q-59 -92 -59 -241q0 -95 18.5 -154.5t61.5 -89t117 -29.5q35 0 70.5 7.5zM272.5 -141.5q-11.5 10.5 -11.5 29.5q0 20 11.5 31t32.5 11q20 0 31 -11t11 -31q0 -19 -11 -29.5t-31 -10.5q-21 0 -32.5 10.5z" />
    <glyph glyph-name="uni1ED2" unicode="&#x1ed2;" horiz-adv-x="602" 
d="M63 896l47 9l62 -104l-28 -6zM179 713l102 131h48l102 -131l-30 -7l-93 98h-6l-92 -98zM116.5 68q-55.5 77 -55.5 229q0 158 57 241.5t194 83.5q119 0 174 -77t55 -230q0 -159 -56.5 -241.5t-194.5 -82.5q-118 0 -173.5 77zM375.5 42.5q35.5 7.5 58.5 20.5q60 92 60 241
q0 95 -18 154.5t-61.5 89t-117.5 29.5q-36 0 -71.5 -7.5t-58.5 -20.5q-59 -92 -59 -241q0 -95 18.5 -154.5t61.5 -89t117 -29.5q35 0 70.5 7.5z" />
    <glyph glyph-name="uni1ED4" unicode="&#x1ed4;" horiz-adv-x="602" 
d="M428 854v20q35 0 48.5 6t13.5 20q0 13 -7.5 18.5t-24.5 5.5q-20 0 -39 -6l-7 26q26 10 51 10q29 0 44 -14.5t15 -39.5q0 -49 -62 -51v-37h-23zM180 713l102 132h49l101 -132l-30 -6l-93 97h-5l-94 -97zM116.5 68q-55.5 77 -55.5 229q0 158 57 241.5t194 83.5
q119 0 174 -77t55 -230q0 -159 -56.5 -241.5t-194.5 -82.5q-118 0 -173.5 77zM375.5 42.5q35.5 7.5 58.5 20.5q60 92 60 241q0 95 -18 154.5t-61.5 89t-117.5 29.5q-36 0 -71.5 -7.5t-58.5 -20.5q-59 -92 -59 -241q0 -95 18.5 -154.5t61.5 -89t117 -29.5q35 0 70.5 7.5z" />
    <glyph glyph-name="uni1ED6" unicode="&#x1ed6;" horiz-adv-x="602" 
d="M198 911q10 64 63 64q17 0 30 -5t29 -15q9 -5 17.5 -9t15.5 -4q19 0 28.5 8.5t14.5 28.5l26 -8q-4 -33 -20.5 -48.5t-41.5 -15.5q-15 0 -26.5 4.5t-25.5 13.5q-12 8 -21 11.5t-19 3.5q-19 0 -29 -8.5t-15 -27.5zM185 714l102 131h49l101 -131l-30 -7l-93 98h-5l-94 -98z
M116.5 68q-55.5 77 -55.5 229q0 158 57 241.5t194 83.5q119 0 174 -77t55 -230q0 -159 -56.5 -241.5t-194.5 -82.5q-118 0 -173.5 77zM375.5 42.5q35.5 7.5 58.5 20.5q60 92 60 241q0 95 -18 154.5t-61.5 89t-117.5 29.5q-36 0 -71.5 -7.5t-58.5 -20.5q-59 -92 -59 -241
q0 -95 18.5 -154.5t61.5 -89t117 -29.5q35 0 70.5 7.5z" />
    <glyph glyph-name="Odieresis" unicode="&#xd6;" horiz-adv-x="602" 
d="M199 717.5q-9 8.5 -9 22.5q0 15 9 23.5t24 8.5t23.5 -8t8.5 -24q0 -14 -8.5 -22.5t-23.5 -8.5t-24 8.5zM356 717.5q-9 8.5 -9 22.5q0 16 9 24t25 8q15 0 23.5 -8t8.5 -24q0 -14 -8.5 -22.5t-23.5 -8.5q-16 0 -25 8.5zM116.5 68q-55.5 77 -55.5 229q0 158 57 241.5
t194 83.5q119 0 174 -77t55 -230q0 -159 -56.5 -241.5t-194.5 -82.5q-118 0 -173.5 77zM375.5 42.5q35.5 7.5 58.5 20.5q60 92 60 241q0 95 -18 154.5t-61.5 89t-117.5 29.5q-36 0 -71.5 -7.5t-58.5 -20.5q-59 -92 -59 -241q0 -95 18.5 -154.5t61.5 -89t117 -29.5
q35 0 70.5 7.5z" />
    <glyph glyph-name="uni1ECC" unicode="&#x1ecc;" horiz-adv-x="602" 
d="M116.5 68q-55.5 77 -55.5 229q0 158 57 241.5t194 83.5q119 0 174 -77t55 -230q0 -159 -56.5 -241.5t-194.5 -82.5q-118 0 -173.5 77zM375.5 42.5q35.5 7.5 58.5 20.5q60 92 60 241q0 95 -18 154.5t-61.5 89t-117.5 29.5q-36 0 -71.5 -7.5t-58.5 -20.5q-59 -92 -59 -241
q0 -95 18.5 -154.5t61.5 -89t117 -29.5q35 0 70.5 7.5zM265.5 -141.5q-11.5 10.5 -11.5 29.5q0 20 11.5 31t32.5 11q20 0 31 -11t11 -31q0 -19 -11 -29.5t-31 -10.5q-21 0 -32.5 10.5z" />
    <glyph glyph-name="Ograve" unicode="&#xd2;" horiz-adv-x="602" 
d="M195 846l62 7l84 -141l-32 -5zM116.5 68q-55.5 77 -55.5 229q0 158 57 241.5t194 83.5q119 0 174 -77t55 -230q0 -159 -56.5 -241.5t-194.5 -82.5q-118 0 -173.5 77zM375.5 42.5q35.5 7.5 58.5 20.5q60 92 60 241q0 95 -18 154.5t-61.5 89t-117.5 29.5q-36 0 -71.5 -7.5
t-58.5 -20.5q-59 -92 -59 -241q0 -95 18.5 -154.5t61.5 -89t117 -29.5q35 0 70.5 7.5z" />
    <glyph glyph-name="uni1ECE" unicode="&#x1ece;" horiz-adv-x="602" 
d="M280 763v23q50 0 69 8t19 33q0 19 -11 28.5t-37 9.5q-27 0 -51 -8l-10 31q35 13 69 13q40 0 59.5 -20t19.5 -54q0 -37 -23.5 -54.5t-65.5 -19.5v-39h-27zM116.5 68q-55.5 77 -55.5 229q0 158 57 241.5t194 83.5q119 0 174 -77t55 -230q0 -159 -56.5 -241.5t-194.5 -82.5
q-118 0 -173.5 77zM375.5 42.5q35.5 7.5 58.5 20.5q60 92 60 241q0 95 -18 154.5t-61.5 89t-117.5 29.5q-36 0 -71.5 -7.5t-58.5 -20.5q-59 -92 -59 -241q0 -95 18.5 -154.5t61.5 -89t117 -29.5q35 0 70.5 7.5z" />
    <glyph glyph-name="Ohorn" unicode="&#x1a0;" horiz-adv-x="633" 
d="M116.5 68q-55.5 77 -55.5 230q0 158 57 241t194 83q131 0 185 -95h18q23 42 35.5 87.5t13.5 101.5h46q-2 -79 -24.5 -135t-70.5 -93q26 -66 26 -173q0 -158 -57 -241t-194 -83q-118 0 -173.5 77zM375.5 42.5q35.5 7.5 58.5 20.5q29 44 44.5 105.5t15.5 135.5
q0 95 -18 154.5t-61.5 89.5t-117.5 30q-36 0 -71.5 -7.5t-58.5 -20.5q-59 -92 -59 -242q0 -142 44 -207.5t153 -65.5q35 0 70.5 7.5z" />
    <glyph glyph-name="uni1EDA" unicode="&#x1eda;" horiz-adv-x="633" 
d="M279 710l84 141l62 -7l-114 -140zM116.5 68q-55.5 77 -55.5 230q0 158 57 241t194 83q131 0 185 -95h18q23 42 35.5 87.5t13.5 101.5h46q-2 -79 -24.5 -135t-70.5 -93q26 -66 26 -173q0 -158 -57 -241t-194 -83q-118 0 -173.5 77zM375.5 42.5q35.5 7.5 58.5 20.5
q29 44 44.5 105.5t15.5 135.5q0 95 -18 154.5t-61.5 89.5t-117.5 30q-36 0 -71.5 -7.5t-58.5 -20.5q-59 -92 -59 -242q0 -142 44 -207.5t153 -65.5q35 0 70.5 7.5z" />
    <glyph glyph-name="uni1EE2" unicode="&#x1ee2;" horiz-adv-x="633" 
d="M116.5 68q-55.5 77 -55.5 230q0 158 57 241t194 83q131 0 185 -95h18q23 42 35.5 87.5t13.5 101.5h46q-2 -79 -24.5 -135t-70.5 -93q26 -66 26 -173q0 -158 -57 -241t-194 -83q-118 0 -173.5 77zM375.5 42.5q35.5 7.5 58.5 20.5q29 44 44.5 105.5t15.5 135.5
q0 95 -18 154.5t-61.5 89.5t-117.5 30q-36 0 -71.5 -7.5t-58.5 -20.5q-59 -92 -59 -242q0 -142 44 -207.5t153 -65.5q35 0 70.5 7.5zM274.5 -145.5q-11.5 10.5 -11.5 29.5q0 20 11.5 31t32.5 11q20 0 31 -11t11 -31q0 -19 -11 -29.5t-31 -10.5q-21 0 -32.5 10.5z" />
    <glyph glyph-name="uni1EDC" unicode="&#x1edc;" horiz-adv-x="633" 
d="M197 844l62 7l84 -141l-32 -6zM116.5 68q-55.5 77 -55.5 230q0 158 57 241t194 83q131 0 185 -95h18q23 42 35.5 87.5t13.5 101.5h46q-2 -79 -24.5 -135t-70.5 -93q26 -66 26 -173q0 -158 -57 -241t-194 -83q-118 0 -173.5 77zM375.5 42.5q35.5 7.5 58.5 20.5
q29 44 44.5 105.5t15.5 135.5q0 95 -18 154.5t-61.5 89.5t-117.5 30q-36 0 -71.5 -7.5t-58.5 -20.5q-59 -92 -59 -242q0 -142 44 -207.5t153 -65.5q35 0 70.5 7.5z" />
    <glyph glyph-name="uni1EDE" unicode="&#x1ede;" horiz-adv-x="633" 
d="M280 759v23q50 0 69 8t19 33q0 19 -11 28.5t-37 9.5q-27 0 -51 -8l-10 31q35 13 69 13q40 0 59.5 -20t19.5 -54q0 -37 -23.5 -54.5t-65.5 -19.5v-39h-27zM116.5 68q-55.5 77 -55.5 230q0 158 57 241t194 83q131 0 185 -95h18q23 42 35.5 87.5t13.5 101.5h46
q-2 -79 -24.5 -135t-70.5 -93q26 -66 26 -173q0 -158 -57 -241t-194 -83q-118 0 -173.5 77zM375.5 42.5q35.5 7.5 58.5 20.5q29 44 44.5 105.5t15.5 135.5q0 95 -18 154.5t-61.5 89.5t-117.5 30q-36 0 -71.5 -7.5t-58.5 -20.5q-59 -92 -59 -242q0 -142 44 -207.5t153 -65.5
q35 0 70.5 7.5z" />
    <glyph glyph-name="uni1EE0" unicode="&#x1ee0;" horiz-adv-x="633" 
d="M177 712q2 40 21 62.5t52 22.5q17 0 30.5 -7.5t33.5 -21.5q18 -13 28.5 -18.5t22.5 -5.5q39 0 46 53l31 -9q-2 -40 -21 -62t-52 -22q-17 0 -32 7.5t-34 21.5q-30 24 -49 24q-39 0 -46 -54zM116.5 68q-55.5 77 -55.5 230q0 158 57 241t194 83q131 0 185 -95h18
q23 42 35.5 87.5t13.5 101.5h46q-2 -79 -24.5 -135t-70.5 -93q26 -66 26 -173q0 -158 -57 -241t-194 -83q-118 0 -173.5 77zM375.5 42.5q35.5 7.5 58.5 20.5q29 44 44.5 105.5t15.5 135.5q0 95 -18 154.5t-61.5 89.5t-117.5 30q-36 0 -71.5 -7.5t-58.5 -20.5
q-59 -92 -59 -242q0 -142 44 -207.5t153 -65.5q35 0 70.5 7.5z" />
    <glyph glyph-name="Ohungarumlaut" unicode="&#x150;" horiz-adv-x="602" 
d="M197 714q18 33 27 65.5t9 75.5h-55v33q22 6 37 6q57 0 57 -62q0 -68 -46 -125zM362 714q18 33 27 65.5t9 75.5h-55v33q22 6 38 6q56 0 56 -62q0 -68 -46 -125zM116.5 68q-55.5 77 -55.5 229q0 158 57 241.5t194 83.5q119 0 174 -77t55 -230q0 -159 -56.5 -241.5
t-194.5 -82.5q-118 0 -173.5 77zM375.5 42.5q35.5 7.5 58.5 20.5q60 92 60 241q0 95 -18 154.5t-61.5 89t-117.5 29.5q-36 0 -71.5 -7.5t-58.5 -20.5q-59 -92 -59 -241q0 -95 18.5 -154.5t61.5 -89t117 -29.5q35 0 70.5 7.5z" />
    <glyph glyph-name="Omacron" unicode="&#x14c;" horiz-adv-x="602" 
d="M168 755h270v-41h-270v41zM116.5 68q-55.5 77 -55.5 229q0 158 57 241.5t194 83.5q119 0 174 -77t55 -230q0 -159 -56.5 -241.5t-194.5 -82.5q-118 0 -173.5 77zM375.5 42.5q35.5 7.5 58.5 20.5q60 92 60 241q0 95 -18 154.5t-61.5 89t-117.5 29.5q-36 0 -71.5 -7.5
t-58.5 -20.5q-59 -92 -59 -241q0 -95 18.5 -154.5t61.5 -89t117 -29.5q35 0 70.5 7.5z" />
    <glyph glyph-name="Oslash" unicode="&#xd8;" horiz-adv-x="608" 
d="M110 -58l42 91q-88 71 -88 264q0 158 57 241.5t194 83.5q58 0 99 -19l34 74l40 -10l-38 -83q49 -35 71.5 -102t22.5 -167q0 -159 -56.5 -242t-194.5 -83q-59 0 -106 22l-37 -81zM394 560q-39 17 -94 17q-36 0 -71.5 -7.5t-58.5 -20.5q-59 -92 -59 -241q0 -84 14.5 -140.5
t47.5 -88.5zM378.5 42.5q34.5 7.5 58.5 20.5q29 45 45 106t16 135q0 88 -16 145.5t-53 88.5l-222 -483q37 -20 101 -20q36 0 70.5 7.5z" />
    <glyph glyph-name="Oslashacute" unicode="&#x1fe;" horiz-adv-x="608" 
d="M276 714l84 141l62 -7l-114 -140zM110 -58l42 91q-88 71 -88 264q0 158 57 241.5t194 83.5q58 0 99 -19l34 74l40 -10l-38 -83q49 -35 71.5 -102t22.5 -167q0 -159 -56.5 -242t-194.5 -83q-59 0 -106 22l-37 -81zM394 560q-39 17 -94 17q-36 0 -71.5 -7.5t-58.5 -20.5
q-59 -92 -59 -241q0 -84 14.5 -140.5t47.5 -88.5zM378.5 42.5q34.5 7.5 58.5 20.5q29 45 45 106t16 135q0 88 -16 145.5t-53 88.5l-222 -483q37 -20 101 -20q36 0 70.5 7.5z" />
    <glyph glyph-name="Otilde" unicode="&#xd5;" horiz-adv-x="602" 
d="M170 715q2 40 21 62.5t52 22.5q17 0 30.5 -7.5t33.5 -21.5q18 -13 28.5 -18.5t22.5 -5.5q39 0 46 53l31 -9q-2 -40 -21 -62.5t-52 -22.5q-17 0 -32.5 8t-33.5 22q-16 12 -27 18t-22 6q-39 0 -46 -54zM116.5 68q-55.5 77 -55.5 229q0 158 57 241.5t194 83.5q119 0 174 -77
t55 -230q0 -159 -56.5 -241.5t-194.5 -82.5q-118 0 -173.5 77zM375.5 42.5q35.5 7.5 58.5 20.5q60 92 60 241q0 95 -18 154.5t-61.5 89t-117.5 29.5q-36 0 -71.5 -7.5t-58.5 -20.5q-59 -92 -59 -241q0 -95 18.5 -154.5t61.5 -89t117 -29.5q35 0 70.5 7.5z" />
    <glyph glyph-name="OE" unicode="&#x152;" horiz-adv-x="883" 
d="M65 297q0 159 59.5 242t197.5 83q73 0 124 -10h354v-44h-308v-238h279v-44h-279v-235q74 -17 157 -17q82 0 152 15l11 -42q-69 -17 -167 -17q-137 0 -178 37h-6q-62 -37 -164 -37q-232 0 -232 307zM384 42.5q36 7.5 61 20.5v504q-29 6 -57.5 8t-75.5 2q-40 0 -79 -7.5
t-62 -20.5q-59 -92 -59 -241q0 -142 45 -207.5t155 -65.5q36 0 72 7.5z" />
    <glyph glyph-name="P" unicode="P" horiz-adv-x="509" 
d="M86 598q94 24 159 24q224 0 224 -203q0 -105 -50 -156t-168 -51h-118v-212h-47v598zM244 256q47 0 77 3.5t62 12.5q38 51 38 144q0 85 -44 123.5t-133 38.5q-64 0 -111 -13v-309h111z" />
    <glyph glyph-name="Thorn" unicode="&#xde;" horiz-adv-x="475" 
d="M86 616h47v-128h116q86 0 130.5 -42t44.5 -123q0 -82 -44.5 -125t-130.5 -43h-116v-155h-47v616zM245 198q72 0 102 30.5t30 94.5q0 63 -30 92t-102 29h-112v-246h112z" />
    <glyph glyph-name="Q" unicode="Q" horiz-adv-x="606" 
d="M293.5 -131q-39.5 6 -64.5 14v37l16 77q-95 13 -139.5 88.5t-44.5 213.5q0 158 57.5 240.5t194.5 82.5q119 0 175 -76.5t56 -229.5q0 -157 -57 -239.5t-193 -83.5q-12 0 -18 1v-82q49 -9 90 -9q71 0 126 11l9 -38q-57 -13 -134 -13q-34 0 -73.5 6zM376.5 44.5
q35.5 7.5 59.5 20.5q61 95 61 241q0 97 -18.5 156t-61.5 87t-118 28q-36 0 -72.5 -7.5t-59.5 -20.5q-59 -92 -59 -240q0 -98 18.5 -157t61.5 -87t118 -28q35 0 70.5 7.5z" />
    <glyph glyph-name="R" unicode="R" horiz-adv-x="567" 
d="M461 2.5q-13 8.5 -21 26.5l-63 142q-14 31 -25.5 48.5t-35 28.5t-63.5 11h-121v-259h-46v601q86 21 157 21q107 0 157.5 -45t50.5 -134q0 -109 -99 -166v-7q24 -11 37 -27t29 -47l71 -160l50 -8v-27q-20 -7 -44 -7q-21 0 -34 8.5zM326 303q40 26 59 57.5t19 80.5
q0 72 -39.5 104.5t-126.5 32.5q-54 0 -106 -11v-264h194z" />
    <glyph glyph-name="Racute" unicode="&#x154;" horiz-adv-x="567" 
d="M232 713l84 141l62 -7l-114 -139zM461 2.5q-13 8.5 -21 26.5l-63 142q-14 31 -25.5 48.5t-35 28.5t-63.5 11h-121v-259h-46v601q86 21 157 21q107 0 157.5 -45t50.5 -134q0 -109 -99 -166v-7q24 -11 37 -27t29 -47l71 -160l50 -8v-27q-20 -7 -44 -7q-21 0 -34 8.5z
M326 303q40 26 59 57.5t19 80.5q0 72 -39.5 104.5t-126.5 32.5q-54 0 -106 -11v-264h194z" />
    <glyph glyph-name="Rcaron" unicode="&#x158;" horiz-adv-x="567" 
d="M131 845l30 7l94 -98h5l93 98l30 -7l-101 -131h-49zM461 2.5q-13 8.5 -21 26.5l-63 142q-14 31 -25.5 48.5t-35 28.5t-63.5 11h-121v-259h-46v601q86 21 157 21q107 0 157.5 -45t50.5 -134q0 -109 -99 -166v-7q24 -11 37 -27t29 -47l71 -160l50 -8v-27q-20 -7 -44 -7
q-21 0 -34 8.5zM326 303q40 26 59 57.5t19 80.5q0 72 -39.5 104.5t-126.5 32.5q-54 0 -106 -11v-264h194z" />
    <glyph glyph-name="Rcommaaccent" unicode="&#x156;" horiz-adv-x="567" 
d="M461 2.5q-13 8.5 -21 26.5l-63 142q-14 30 -25.5 47.5t-34.5 29t-62 11.5h-123v-259h-46v601q86 21 157 21q107 0 157.5 -45t50.5 -134q0 -109 -99 -166v-7q24 -11 37 -27t29 -47l71 -160l50 -8v-27q-20 -7 -44 -7q-21 0 -34 8.5zM326 303q40 26 59 57.5t19 80.5
q0 72 -39.5 104.5t-126.5 32.5q-54 0 -106 -11v-264h194zM263 -228q18 33 27 65t9 75h-55v33q19 7 38 7q56 0 56 -62q0 -68 -45 -125z" />
    <glyph glyph-name="uni1E5A" unicode="&#x1e5a;" horiz-adv-x="567" 
d="M461 2.5q-13 8.5 -21 26.5l-63 142q-14 31 -25.5 48.5t-35 28.5t-63.5 11h-121v-259h-46v601q86 21 157 21q107 0 157.5 -45t50.5 -134q0 -109 -99 -166v-7q24 -11 37 -27t29 -47l71 -160l50 -8v-27q-20 -7 -44 -7q-21 0 -34 8.5zM326 303q40 26 59 57.5t19 80.5
q0 72 -39.5 104.5t-126.5 32.5q-54 0 -106 -11v-264h194zM257.5 -133.5q-11.5 10.5 -11.5 30.5t11.5 31t32.5 11q20 0 31 -11t11 -31t-11 -30.5t-31 -10.5q-21 0 -32.5 10.5z" />
    <glyph glyph-name="uni1E5C" unicode="&#x1e5c;" horiz-adv-x="567" 
d="M98 755h270v-41h-270v41zM461 2.5q-13 8.5 -21 26.5l-63 142q-14 31 -25.5 48.5t-35 28.5t-63.5 11h-121v-259h-46v601q86 21 157 21q107 0 157.5 -45t50.5 -134q0 -109 -99 -166v-7q24 -11 37 -27t29 -47l71 -160l50 -8v-27q-20 -7 -44 -7q-21 0 -34 8.5zM326 303
q40 26 59 57.5t19 80.5q0 72 -39.5 104.5t-126.5 32.5q-54 0 -106 -11v-264h194zM254.5 -133.5q-11.5 10.5 -11.5 29.5q0 21 11.5 32t32.5 11q20 0 31 -11t11 -32q0 -19 -11 -29.5t-31 -10.5q-21 0 -32.5 10.5z" />
    <glyph glyph-name="uni1E5E" unicode="&#x1e5e;" horiz-adv-x="568" 
d="M462 2.5q-13 8.5 -21 26.5l-63 142q-14 31 -25.5 48.5t-35 28.5t-63.5 11h-121v-259h-46v601q86 21 157 21q107 0 157.5 -45t50.5 -134q0 -109 -99 -166v-7q24 -11 37 -27t29 -47l71 -160l50 -8v-27q-20 -7 -44 -7q-21 0 -34 8.5zM328 303q40 26 59 57.5t19 80.5
q0 72 -39.5 104.5t-126.5 32.5q-54 0 -106 -11v-264h194zM86 -72h301v-44h-301v44z" />
    <glyph glyph-name="S" unicode="S" horiz-adv-x="511" 
d="M57 32l17 41q42 -20 85 -29t92 -9q74 0 124 27q20 35 20 91q0 55 -32.5 83t-108.5 47q-88 22 -136.5 58t-48.5 109q0 172 195 172q53 0 90 -9t70 -26v-26q0 -36 -13 -81h-32l-8 90q-63 9 -113 9q-76 0 -109 -30t-33 -92q0 -38 16 -61t48.5 -38t89.5 -29
q94 -24 133.5 -58.5t39.5 -99.5q0 -180 -197 -180q-103 0 -189 41z" />
    <glyph glyph-name="Sacute" unicode="&#x15a;" horiz-adv-x="511" 
d="M227 714l84 141l62 -7l-114 -140zM57 32l17 41q42 -20 85 -29t92 -9q74 0 124 27q20 35 20 91q0 55 -32.5 83t-108.5 47q-88 22 -136.5 58t-48.5 109q0 172 195 172q53 0 90 -9t70 -26v-26q0 -36 -13 -81h-32l-8 90q-63 9 -113 9q-76 0 -109 -30t-33 -92q0 -38 16 -61
t48.5 -38t89.5 -29q94 -24 133.5 -58.5t39.5 -99.5q0 -180 -197 -180q-103 0 -189 41z" />
    <glyph glyph-name="Scaron" unicode="&#x160;" horiz-adv-x="511" 
d="M130 845l30 7l94 -98h5l93 98l30 -7l-101 -131h-49zM57 32l17 41q42 -20 85 -29t92 -9q74 0 124 27q20 35 20 91q0 55 -32.5 83t-108.5 47q-88 22 -136.5 58t-48.5 109q0 172 195 172q53 0 90 -9t70 -26v-26q0 -36 -13 -81h-32l-8 90q-63 9 -113 9q-76 0 -109 -30
t-33 -92q0 -38 16 -61t48.5 -38t89.5 -29q94 -24 133.5 -58.5t39.5 -99.5q0 -180 -197 -180q-103 0 -189 41z" />
    <glyph glyph-name="Scedilla" unicode="&#x15e;" horiz-adv-x="511" 
d="M173 -200l12 32q32 -12 71 -12q31 0 52 7q6 18 6 37q0 21 -11 31.5t-36 10.5q-28 0 -45 -6l-32 31l50 60q-97 0 -183 41l17 41q42 -20 85 -29t92 -9q74 0 124 27q20 35 20 91q0 55 -32.5 83t-108.5 47q-88 22 -136.5 58t-48.5 109q0 172 195 172q53 0 90 -9t70 -26v-26
q0 -36 -13 -81h-32l-8 90q-63 9 -113 9q-76 0 -109 -30t-33 -92q0 -38 16 -61t48.5 -38t89.5 -29q94 -24 133.5 -58.5t39.5 -99.5q0 -74 -37 -122.5t-129 -56.5l-44 -60q20 9 49 9q72 0 72 -73q0 -84 -101 -84q-43 0 -80 16z" />
    <glyph glyph-name="Scircumflex" unicode="&#x15c;" horiz-adv-x="511" 
d="M135 714l102 131h49l101 -131l-30 -7l-93 98h-5l-94 -98zM57 32l17 41q42 -20 85 -29t92 -9q74 0 124 27q20 35 20 91q0 55 -32.5 83t-108.5 47q-88 22 -136.5 58t-48.5 109q0 172 195 172q53 0 90 -9t70 -26v-26q0 -36 -13 -81h-32l-8 90q-63 9 -113 9q-76 0 -109 -30
t-33 -92q0 -38 16 -61t48.5 -38t89.5 -29q94 -24 133.5 -58.5t39.5 -99.5q0 -180 -197 -180q-103 0 -189 41z" />
    <glyph glyph-name="Scommaaccent" unicode="&#x218;" horiz-adv-x="511" 
d="M57 32l17 41q42 -20 85 -29t92 -9q74 0 124 27q20 35 20 91q0 55 -32.5 83t-108.5 47q-88 22 -136.5 58t-48.5 109q0 172 195 172q53 0 90 -9t70 -26v-26q0 -36 -13 -81h-32l-8 90q-63 9 -113 9q-76 0 -109 -30t-33 -92q0 -38 16 -61t48.5 -38t89.5 -29
q94 -24 133.5 -58.5t39.5 -99.5q0 -180 -197 -180q-103 0 -189 41zM236 -228q18 33 27 65t9 75h-55v33q19 7 38 7q56 0 56 -62q0 -68 -45 -125z" />
    <glyph glyph-name="uni1E60" unicode="&#x1e60;" horiz-adv-x="511" 
d="M220.5 719.5q-11.5 10.5 -11.5 29.5q0 42 44 42q42 0 42 -42q0 -19 -11 -29.5t-31 -10.5q-21 0 -32.5 10.5zM57 32l17 41q42 -20 85 -29t92 -9q74 0 124 27q20 35 20 91q0 55 -32.5 83t-108.5 47q-88 22 -136.5 58t-48.5 109q0 172 195 172q53 0 90 -9t70 -26v-26
q0 -36 -13 -81h-32l-8 90q-63 9 -113 9q-76 0 -109 -30t-33 -92q0 -38 16 -61t48.5 -38t89.5 -29q94 -24 133.5 -58.5t39.5 -99.5q0 -180 -197 -180q-103 0 -189 41z" />
    <glyph glyph-name="uni1E62" unicode="&#x1e62;" horiz-adv-x="511" 
d="M57 32l17 41q42 -20 85 -29t92 -9q74 0 124 27q20 35 20 91q0 55 -32.5 83t-108.5 47q-88 22 -136.5 58t-48.5 109q0 172 195 172q53 0 90 -9t70 -26v-26q0 -36 -13 -81h-32l-8 90q-63 9 -113 9q-76 0 -109 -30t-33 -92q0 -38 16 -61t48.5 -38t89.5 -29
q94 -24 133.5 -58.5t39.5 -99.5q0 -180 -197 -180q-103 0 -189 41zM229.5 -133.5q-11.5 10.5 -11.5 29.5q0 21 11.5 32t32.5 11q20 0 31 -11t11 -32q0 -19 -11 -29.5t-31 -10.5q-21 0 -32.5 10.5z" />
    <glyph glyph-name="uni1E9E" unicode="&#x1e9e;" horiz-adv-x="575" 
d="M282.5 -1q-29.5 5 -65.5 17l12 40q39 -10 65 -14t59 -4q34 0 57 4t46 14q12 24 18 50.5t6 63.5q0 65 -41.5 98t-123.5 33h-35v48l147 178v7q-34 18 -64.5 26t-71.5 8q-85 0 -122 -39t-37 -131v-398h-46v398q0 107 47.5 160.5t151.5 53.5q106 0 191 -60v-35l-146 -171v-6
q103 -6 150 -49.5t47 -121.5q0 -175 -181 -175q-34 0 -63.5 5z" />
    <glyph glyph-name="uni018F" unicode="&#x18f;" horiz-adv-x="612" 
d="M118 58q-57 64 -57 178q0 16 2 42l68 55l358 -3q0 126 -54.5 186.5t-157.5 60.5q-59 0 -104 -14t-89 -40l-20 35q51 31 100.5 47.5t119.5 16.5q121 0 186.5 -77.5t65.5 -230.5q0 -160 -58.5 -240t-190.5 -80q-112 0 -169 64zM443 103q47 64 47 187l-377 -6q-5 -30 -5 -62
q0 -86 47 -134.5t134 -48.5q107 0 154 64z" />
    <glyph glyph-name="T" unicode="T" horiz-adv-x="520" 
d="M237 567h-199v45h444v-45h-198v-567h-47v567z" />
    <glyph glyph-name="Tbar" unicode="&#x166;" horiz-adv-x="520" 
d="M237 286h-118v41h118v240h-199v45h444v-45h-198v-240h116v-41h-116v-286h-47v286z" />
    <glyph glyph-name="Tcaron" unicode="&#x164;" horiz-adv-x="520" 
d="M133 845l30 7l94 -98h5l93 98l30 -7l-101 -131h-49zM237 567h-199v45h444v-45h-198v-567h-47v567z" />
    <glyph glyph-name="uni0162" unicode="&#x162;" horiz-adv-x="520" 
d="M157 -201l12 32q35 -11 71 -11q34 0 52 6q6 15 6 37t-10.5 32t-35.5 10q-29 0 -46 -6l-31 31l62 74v563h-199v45h444v-45h-198v-567h-15l-52 -68q22 8 49 8q73 0 73 -72q0 -85 -101 -85q-44 0 -81 16z" />
    <glyph glyph-name="uni021A" unicode="&#x21a;" horiz-adv-x="520" 
d="M237 567h-199v45h444v-45h-198v-567h-47v567zM231 -227q18 33 27 65.5t9 75.5h-55v33q17 6 38 6q56 0 56 -62q0 -68 -45 -125z" />
    <glyph glyph-name="uni1E6C" unicode="&#x1e6c;" horiz-adv-x="520" 
d="M237 567h-199v45h444v-45h-198v-567h-47v567zM228.5 -141.5q-11.5 10.5 -11.5 29.5q0 20 11.5 31t32.5 11q20 0 31 -11t11 -31q0 -19 -11 -29.5t-31 -10.5q-21 0 -32.5 10.5z" />
    <glyph glyph-name="uni1E6E" unicode="&#x1e6e;" horiz-adv-x="520" 
d="M237 567h-199v45h444v-45h-198v-567h-47v567zM109 -72h301v-44h-301v44z" />
    <glyph glyph-name="U" unicode="U" horiz-adv-x="592" 
d="M134 34.5q-52 43.5 -52 133.5v444h47v-432q0 -56 17.5 -87.5t54.5 -44.5t98 -13q96 0 162 28v549h47v-526q0 -46 -58.5 -70.5t-157.5 -24.5q-106 0 -158 43.5z" />
    <glyph glyph-name="Uacute" unicode="&#xda;" horiz-adv-x="592" 
d="M268 712l84 141l62 -7l-114 -139zM134 34.5q-52 43.5 -52 133.5v444h47v-432q0 -56 17.5 -87.5t54.5 -44.5t98 -13q96 0 162 28v549h47v-526q0 -46 -58.5 -70.5t-157.5 -24.5q-106 0 -158 43.5z" />
    <glyph glyph-name="Ubreve" unicode="&#x16c;" horiz-adv-x="592" 
d="M175 810l45 7q7 -35 23 -52t54 -17t54 17t23 52l45 -7q-19 -101 -122 -101t-122 101zM134 34.5q-52 43.5 -52 133.5v444h47v-432q0 -56 17.5 -87.5t54.5 -44.5t98 -13q96 0 162 28v549h47v-526q0 -46 -58.5 -70.5t-157.5 -24.5q-106 0 -158 43.5z" />
    <glyph glyph-name="uni01D3" unicode="&#x1d3;" horiz-adv-x="592" 
d="M168 845l30 7l94 -98h5l93 98l30 -7l-101 -131h-49zM134 34.5q-52 43.5 -52 133.5v444h47v-432q0 -56 17.5 -87.5t54.5 -44.5t98 -13q96 0 162 28v549h47v-526q0 -46 -58.5 -70.5t-157.5 -24.5q-106 0 -158 43.5z" />
    <glyph glyph-name="Ucircumflex" unicode="&#xdb;" horiz-adv-x="592" 
d="M171 714l102 131h49l101 -131l-30 -7l-93 98h-5l-94 -98zM134 34.5q-52 43.5 -52 133.5v444h47v-432q0 -56 17.5 -87.5t54.5 -44.5t98 -13q96 0 162 28v549h47v-526q0 -46 -58.5 -70.5t-157.5 -24.5q-106 0 -158 43.5z" />
    <glyph glyph-name="Udieresis" unicode="&#xdc;" horiz-adv-x="592" 
d="M195 717.5q-9 8.5 -9 22.5q0 15 9 23.5t24 8.5t23.5 -8t8.5 -24q0 -14 -8.5 -22.5t-23.5 -8.5t-24 8.5zM352 717.5q-9 8.5 -9 22.5q0 16 9 24t25 8q15 0 23.5 -8t8.5 -24q0 -14 -8.5 -22.5t-23.5 -8.5q-16 0 -25 8.5zM134 34.5q-52 43.5 -52 133.5v444h47v-432
q0 -56 17.5 -87.5t54.5 -44.5t98 -13q96 0 162 28v549h47v-526q0 -46 -58.5 -70.5t-157.5 -24.5q-106 0 -158 43.5z" />
    <glyph glyph-name="uni01D7" unicode="&#x1d7;" horiz-adv-x="592" 
d="M276 848l68 114l56 -8l-92 -112zM193 721.5q-9 8.5 -9 23.5t9 23.5t24 8.5t23.5 -8t8.5 -24q0 -15 -8.5 -23.5t-23.5 -8.5t-24 8.5zM350 721.5q-9 8.5 -9 23.5q0 16 9 24t25 8q15 0 23.5 -8t8.5 -24q0 -15 -8.5 -23.5t-23.5 -8.5q-16 0 -25 8.5zM134 34.5
q-52 43.5 -52 133.5v444h47v-432q0 -56 17.5 -87.5t54.5 -44.5t98 -13q96 0 162 28v549h47v-526q0 -46 -58.5 -70.5t-157.5 -24.5q-106 0 -158 43.5z" />
    <glyph glyph-name="uni01D9" unicode="&#x1d9;" horiz-adv-x="592" 
d="M175 957l29 7l86 -90h6l85 90l29 -7l-93 -121h-48zM190 717.5q-9 8.5 -9 22.5q0 15 9 23.5t24 8.5t23.5 -8t8.5 -24q0 -14 -8.5 -22.5t-23.5 -8.5t-24 8.5zM347 717.5q-9 8.5 -9 22.5q0 16 9 24t25 8q15 0 23.5 -8t8.5 -24q0 -14 -8.5 -22.5t-23.5 -8.5q-16 0 -25 8.5z
M134 34.5q-52 43.5 -52 133.5v444h47v-432q0 -56 17.5 -87.5t54.5 -44.5t98 -13q96 0 162 28v549h47v-526q0 -46 -58.5 -70.5t-157.5 -24.5q-106 0 -158 43.5z" />
    <glyph glyph-name="uni01DB" unicode="&#x1db;" horiz-adv-x="592" 
d="M190 949l57 8l67 -114l-31 -5zM191.5 717.5q-8.5 8.5 -8.5 22.5q0 16 8.5 24t23.5 8q16 0 25 -8t9 -24q0 -14 -9 -22.5t-25 -8.5q-15 0 -23.5 8.5zM348.5 717.5q-8.5 8.5 -8.5 22.5q0 32 33 32q15 0 24 -8.5t9 -23.5q0 -14 -9 -22.5t-24 -8.5q-16 0 -24.5 8.5zM134 34.5
q-52 43.5 -52 133.5v444h47v-432q0 -56 17.5 -87.5t54.5 -44.5t98 -13q96 0 162 28v549h47v-526q0 -46 -58.5 -70.5t-157.5 -24.5q-106 0 -158 43.5z" />
    <glyph glyph-name="uni01D5" unicode="&#x1d5;" horiz-adv-x="592" 
d="M163 883h270v-40h-270v40zM194 721q-9 8 -9 23t9 23.5t24 8.5t23.5 -8t8.5 -24q0 -15 -8.5 -23t-23.5 -8t-24 8zM351 721q-9 8 -9 23q0 16 9 24t25 8q15 0 23.5 -8t8.5 -24q0 -15 -8.5 -23t-23.5 -8q-16 0 -25 8zM134 34.5q-52 43.5 -52 133.5v444h47v-432
q0 -56 17.5 -87.5t54.5 -44.5t98 -13q96 0 162 28v549h47v-526q0 -46 -58.5 -70.5t-157.5 -24.5q-106 0 -158 43.5z" />
    <glyph glyph-name="uni1EE4" unicode="&#x1ee4;" horiz-adv-x="592" 
d="M134 34.5q-52 43.5 -52 133.5v444h47v-432q0 -56 17.5 -87.5t54.5 -44.5t98 -13q96 0 162 28v549h47v-526q0 -46 -58.5 -70.5t-157.5 -24.5q-106 0 -158 43.5zM272.5 -141.5q-11.5 10.5 -11.5 29.5q0 20 11.5 31t32.5 11q20 0 31 -11t11 -31q0 -19 -11 -29.5t-31 -10.5
q-21 0 -32.5 10.5z" />
    <glyph glyph-name="Ugrave" unicode="&#xd9;" horiz-adv-x="592" 
d="M181 846l62 7l84 -141l-32 -5zM134 34.5q-52 43.5 -52 133.5v444h47v-432q0 -56 17.5 -87.5t54.5 -44.5t98 -13q96 0 162 28v549h47v-526q0 -46 -58.5 -70.5t-157.5 -24.5q-106 0 -158 43.5z" />
    <glyph glyph-name="uni1EE6" unicode="&#x1ee6;" horiz-adv-x="592" 
d="M266 763v23q50 0 69 8t19 33q0 19 -11 28.5t-37 9.5q-27 0 -51 -8l-10 31q35 13 69 13q40 0 59.5 -20t19.5 -54q0 -37 -23.5 -54.5t-65.5 -19.5v-39h-27zM134 34.5q-52 43.5 -52 133.5v444h47v-432q0 -56 17.5 -87.5t54.5 -44.5t98 -13q96 0 162 28v549h47v-526
q0 -46 -58.5 -70.5t-157.5 -24.5q-106 0 -158 43.5z" />
    <glyph glyph-name="Uhorn" unicode="&#x1af;" horiz-adv-x="719" 
d="M134 32.5q-52 43.5 -52 133.5v446h47v-434q0 -56 17.5 -87t54.5 -44t98 -13q99 0 162 28v550h46v-111h12q70 28 106.5 70.5t38.5 120.5h47q0 -96 -51.5 -152.5t-151.5 -83.5v-371q0 -47 -58.5 -71.5t-157.5 -24.5q-106 0 -158 43.5z" />
    <glyph glyph-name="uni1EE8" unicode="&#x1ee8;" horiz-adv-x="719" 
d="M277 713l84 141l62 -7l-114 -140zM134 32.5q-52 43.5 -52 133.5v446h47v-434q0 -56 17.5 -87t54.5 -44t98 -13q99 0 162 28v550h46v-111h12q70 28 106.5 70.5t38.5 120.5h47q0 -96 -51.5 -152.5t-151.5 -83.5v-371q0 -47 -58.5 -71.5t-157.5 -24.5q-106 0 -158 43.5z" />
    <glyph glyph-name="uni1EF0" unicode="&#x1ef0;" horiz-adv-x="719" 
d="M134 32.5q-52 43.5 -52 133.5v446h47v-434q0 -56 17.5 -87t54.5 -44t98 -13q99 0 162 28v550h46v-111h12q70 28 106.5 70.5t38.5 120.5h47q0 -96 -51.5 -152.5t-151.5 -83.5v-371q0 -47 -58.5 -71.5t-157.5 -24.5q-106 0 -158 43.5zM271.5 -141.5q-11.5 10.5 -11.5 29.5
q0 20 11.5 31t32.5 11q20 0 31 -11t11 -31q0 -19 -11 -29.5t-31 -10.5q-21 0 -32.5 10.5z" />
    <glyph glyph-name="uni1EEA" unicode="&#x1eea;" horiz-adv-x="719" 
d="M183 848l62 7l84 -141l-32 -6zM134 32.5q-52 43.5 -52 133.5v446h47v-434q0 -56 17.5 -87t54.5 -44t98 -13q99 0 162 28v550h46v-111h12q70 28 106.5 70.5t38.5 120.5h47q0 -96 -51.5 -152.5t-151.5 -83.5v-371q0 -47 -58.5 -71.5t-157.5 -24.5q-106 0 -158 43.5z" />
    <glyph glyph-name="uni1EEC" unicode="&#x1eec;" horiz-adv-x="719" 
d="M270 763v23q50 0 69 8t19 33q0 19 -11 28.5t-37 9.5q-27 0 -51 -8l-10 31q35 13 69 13q40 0 59.5 -20t19.5 -54q0 -37 -23.5 -54.5t-65.5 -19.5v-39h-27zM134 32.5q-52 43.5 -52 133.5v446h47v-434q0 -56 17.5 -87t54.5 -44t98 -13q99 0 162 28v550h46v-111h12
q70 28 106.5 70.5t38.5 120.5h47q0 -96 -51.5 -152.5t-151.5 -83.5v-371q0 -47 -58.5 -71.5t-157.5 -24.5q-106 0 -158 43.5z" />
    <glyph glyph-name="uni1EEE" unicode="&#x1eee;" horiz-adv-x="719" 
d="M168 716q2 40 21 62.5t52 22.5q17 0 30.5 -7.5t33.5 -21.5q18 -13 28.5 -18.5t22.5 -5.5q39 0 46 53l31 -9q-2 -40 -21 -62t-52 -22q-17 0 -32 7.5t-34 21.5q-30 24 -49 24q-39 0 -46 -54zM134 32.5q-52 43.5 -52 133.5v446h47v-434q0 -56 17.5 -87t54.5 -44t98 -13
q99 0 162 28v550h46v-111h12q70 28 106.5 70.5t38.5 120.5h47q0 -96 -51.5 -152.5t-151.5 -83.5v-371q0 -47 -58.5 -71.5t-157.5 -24.5q-106 0 -158 43.5z" />
    <glyph glyph-name="Uhungarumlaut" unicode="&#x170;" horiz-adv-x="592" 
d="M185 714q18 33 27 65.5t9 75.5h-55v33q22 6 37 6q57 0 57 -62q0 -68 -46 -125zM350 714q18 33 27 65.5t9 75.5h-55v33q22 6 38 6q56 0 56 -62q0 -68 -46 -125zM134 34.5q-52 43.5 -52 133.5v444h47v-432q0 -56 17.5 -87.5t54.5 -44.5t98 -13q96 0 162 28v549h47v-526
q0 -46 -58.5 -70.5t-157.5 -24.5q-106 0 -158 43.5z" />
    <glyph glyph-name="Umacron" unicode="&#x16a;" horiz-adv-x="592" 
d="M160 755h270v-41h-270v41zM134 34.5q-52 43.5 -52 133.5v444h47v-432q0 -56 17.5 -87.5t54.5 -44.5t98 -13q96 0 162 28v549h47v-526q0 -46 -58.5 -70.5t-157.5 -24.5q-106 0 -158 43.5z" />
    <glyph glyph-name="Uogonek" unicode="&#x172;" horiz-adv-x="592" 
d="M268.5 -142q-21.5 21 -21.5 56q0 47 38 77q-102 1 -152.5 44.5t-50.5 132.5v444h47v-432q0 -56 17.5 -87.5t54.5 -44.5t98 -13q96 0 162 28v549h47v-526q0 -41 -47 -65t-128 -29q-24 -17 -34 -34.5t-10 -42.5q0 -20 8 -36q19 -4 40 -4q16 0 41 5l7 -32q-24 -11 -56 -11
q-39 0 -60.5 21z" />
    <glyph glyph-name="Uring" unicode="&#x16e;" horiz-adv-x="592" 
d="M214.5 643.5q-25.5 20.5 -25.5 60.5q0 38 31.5 65.5t83.5 27.5q97 0 97 -82q0 -39 -30 -65.5t-84 -26.5q-47 0 -72.5 20.5zM356 663q9 27 9 49q0 53 -65 53q-41 0 -66 -8q-9 -27 -9 -50q0 -52 64 -52q42 0 67 8zM134 34.5q-52 43.5 -52 133.5v444h47v-432
q0 -56 17.5 -87.5t54.5 -44.5t98 -13q96 0 162 28v549h47v-526q0 -46 -58.5 -70.5t-157.5 -24.5q-106 0 -158 43.5z" />
    <glyph glyph-name="Utilde" unicode="&#x168;" horiz-adv-x="592" 
d="M164 718q2 40 21 62t52 22q17 0 30.5 -7.5t33.5 -21.5q18 -13 28.5 -18.5t22.5 -5.5q39 0 46 54l31 -10q-2 -40 -21 -62t-52 -22q-17 0 -32 7.5t-34 21.5q-30 24 -49 24q-39 0 -46 -53zM134 34.5q-52 43.5 -52 133.5v444h47v-432q0 -56 17.5 -87.5t54.5 -44.5t98 -13
q96 0 162 28v549h47v-526q0 -46 -58.5 -70.5t-157.5 -24.5q-106 0 -158 43.5z" />
    <glyph glyph-name="V" unicode="V" horiz-adv-x="575" 
d="M138.5 290q-54.5 164 -93.5 323l50 5q34 -144 87 -309t97 -264h18q44 100 97.5 265.5t86.5 307.5l50 -5q-41 -161 -95 -325t-110 -288h-76q-57 126 -111.5 290z" />
    <glyph glyph-name="W" unicode="W" horiz-adv-x="820" 
d="M48 610l50 7q50 -260 135 -565h7q39 92 81 209t76 230l-24 112l47 7q56 -268 160 -558h7q84 294 135 565l50 -7q-68 -315 -157 -610h-61q-77 208 -131 405h-9q-63 -203 -153 -405h-56q-84 278 -157 610z" />
    <glyph glyph-name="Wacute" unicode="&#x1e82;" horiz-adv-x="820" 
d="M378 713l84 141l62 -7l-114 -139zM48 610l50 7q50 -260 135 -565h7q39 92 81 209t76 230l-24 112l47 7q56 -268 160 -558h7q84 294 135 565l50 -7q-68 -315 -157 -610h-61q-77 208 -131 405h-9q-63 -203 -153 -405h-56q-84 278 -157 610z" />
    <glyph glyph-name="Wcircumflex" unicode="&#x174;" horiz-adv-x="820" 
d="M284 713l102 131h49l101 -131l-30 -7l-93 98h-5l-94 -98zM48 610l50 7q50 -260 135 -565h7q39 92 81 209t76 230l-24 112l47 7q56 -268 160 -558h7q84 294 135 565l50 -7q-68 -315 -157 -610h-61q-77 208 -131 405h-9q-63 -203 -153 -405h-56q-84 278 -157 610z" />
    <glyph glyph-name="Wdieresis" unicode="&#x1e84;" horiz-adv-x="820" 
d="M308 717.5q-9 8.5 -9 22.5q0 15 9 23.5t24 8.5t23.5 -8t8.5 -24q0 -14 -8.5 -22.5t-23.5 -8.5t-24 8.5zM465 717.5q-9 8.5 -9 22.5q0 16 9 24t25 8q15 0 23.5 -8t8.5 -24q0 -14 -8.5 -22.5t-23.5 -8.5q-16 0 -25 8.5zM48 610l50 7q50 -260 135 -565h7q39 92 81 209
t76 230l-24 112l47 7q56 -268 160 -558h7q84 294 135 565l50 -7q-68 -315 -157 -610h-61q-77 208 -131 405h-9q-63 -203 -153 -405h-56q-84 278 -157 610z" />
    <glyph glyph-name="Wgrave" unicode="&#x1e80;" horiz-adv-x="820" 
d="M301 847l62 7l84 -141l-32 -5zM48 610l50 7q50 -260 135 -565h7q39 92 81 209t76 230l-24 112l47 7q56 -268 160 -558h7q84 294 135 565l50 -7q-68 -315 -157 -610h-61q-77 208 -131 405h-9q-63 -203 -153 -405h-56q-84 278 -157 610z" />
    <glyph glyph-name="X" unicode="X" horiz-adv-x="609" 
d="M51 8q86 153 198 298q-45 62 -95.5 143t-91.5 158l51 12q73 -143 173 -288h35q104 146 178 288l49 -12q-86 -159 -189 -299q50 -66 102.5 -146.5t92.5 -153.5l-49 -14q-38 72 -82 140.5t-103 149.5h-32q-63 -86 -107 -152.5t-82 -137.5z" />
    <glyph glyph-name="Y" unicode="Y" horiz-adv-x="591" 
d="M272 228h-19q-130 161 -221 376l47 14q39 -98 91 -189.5t107 -161.5h37q55 72 107.5 163t90.5 188l47 -14q-94 -219 -221 -376h-19v-228h-47v228z" />
    <glyph glyph-name="Yacute" unicode="&#xdd;" horiz-adv-x="591" 
d="M268 713l84 141l62 -7l-114 -140zM272 228h-19q-130 161 -221 376l47 14q39 -98 91 -189.5t107 -161.5h37q55 72 107.5 163t90.5 188l47 -14q-94 -219 -221 -376h-19v-228h-47v228z" />
    <glyph glyph-name="Ycircumflex" unicode="&#x176;" horiz-adv-x="591" 
d="M169 714l102 131h49l101 -131l-30 -7l-93 98h-5l-94 -98zM272 228h-19q-130 161 -221 376l47 14q39 -98 91 -189.5t107 -161.5h37q55 72 107.5 163t90.5 188l47 -14q-94 -219 -221 -376h-19v-228h-47v228z" />
    <glyph glyph-name="Ydieresis" unicode="&#x178;" horiz-adv-x="591" 
d="M193 717.5q-9 8.5 -9 22.5q0 15 9 23.5t24 8.5t23.5 -8t8.5 -24q0 -14 -8.5 -22.5t-23.5 -8.5t-24 8.5zM350 717.5q-9 8.5 -9 22.5q0 16 9 24t25 8q15 0 23.5 -8t8.5 -24q0 -14 -8.5 -22.5t-23.5 -8.5q-16 0 -25 8.5zM272 228h-19q-130 161 -221 376l47 14
q39 -98 91 -189.5t107 -161.5h37q55 72 107.5 163t90.5 188l47 -14q-94 -219 -221 -376h-19v-228h-47v228z" />
    <glyph glyph-name="uni1E8E" unicode="&#x1e8e;" horiz-adv-x="591" 
d="M264.5 719.5q-11.5 10.5 -11.5 29.5q0 42 44 42q42 0 42 -42q0 -19 -11 -29.5t-31 -10.5q-21 0 -32.5 10.5zM272 228h-19q-130 161 -221 376l47 14q39 -98 91 -189.5t107 -161.5h37q55 72 107.5 163t90.5 188l47 -14q-94 -219 -221 -376h-19v-228h-47v228z" />
    <glyph glyph-name="uni1EF4" unicode="&#x1ef4;" horiz-adv-x="591" 
d="M272 228h-19q-130 161 -221 376l47 14q39 -98 91 -189.5t107 -161.5h37q55 72 107.5 163t90.5 188l47 -14q-94 -219 -221 -376h-19v-228h-47v228zM264.5 -141.5q-11.5 10.5 -11.5 29.5q0 20 11.5 31t32.5 11q20 0 31 -11t11 -31q0 -19 -11 -29.5t-31 -10.5
q-21 0 -32.5 10.5z" />
    <glyph glyph-name="Ygrave" unicode="&#x1ef2;" horiz-adv-x="591" 
d="M176 848l62 7l84 -141l-32 -6zM272 228h-19q-130 161 -221 376l47 14q39 -98 91 -189.5t107 -161.5h37q55 72 107.5 163t90.5 188l47 -14q-94 -219 -221 -376h-19v-228h-47v228z" />
    <glyph glyph-name="uni1EF6" unicode="&#x1ef6;" horiz-adv-x="591" 
d="M272 763v23q50 0 69 8t19 33q0 19 -11 28.5t-37 9.5q-27 0 -51 -8l-10 31q35 13 69 13q40 0 59.5 -20t19.5 -54q0 -37 -23.5 -54.5t-65.5 -19.5v-39h-27zM272 228h-19q-130 161 -221 376l47 14q39 -98 91 -189.5t107 -161.5h37q55 72 107.5 163t90.5 188l47 -14
q-94 -219 -221 -376h-19v-228h-47v228z" />
    <glyph glyph-name="uni1EF8" unicode="&#x1ef8;" horiz-adv-x="591" 
d="M163 716q2 40 21 62.5t52 22.5q17 0 30.5 -7.5t33.5 -21.5q18 -13 28.5 -18.5t22.5 -5.5q39 0 46 53l31 -9q-2 -40 -21 -62t-52 -22q-17 0 -32 7.5t-34 21.5q-30 24 -49 24q-39 0 -46 -54zM272 228h-19q-130 161 -221 376l47 14q39 -98 91 -189.5t107 -161.5h37
q55 72 107.5 163t90.5 188l47 -14q-94 -219 -221 -376h-19v-228h-47v228z" />
    <glyph glyph-name="Z" unicode="Z" horiz-adv-x="544" 
d="M61 58l364 502v8h-300v-70h-34q-14 40 -14 83v31h401v-56l-365 -504v-9h326v75h33q15 -38 15 -88v-30h-426v58z" />
    <glyph glyph-name="Zacute" unicode="&#x179;" horiz-adv-x="545" 
d="M239 714l84 140l62 -6l-114 -140zM60 58l364 502v8h-300v-70h-34q-14 40 -14 83v31h401v-56l-365 -504v-9h326v75h33q15 -38 15 -88v-30h-426v58z" />
    <glyph glyph-name="Zcaron" unicode="&#x17d;" horiz-adv-x="545" 
d="M149 845l30 7l94 -98h5l93 98l30 -7l-101 -131h-49zM60 58l364 502v8h-300v-70h-34q-14 40 -14 83v31h401v-56l-365 -504v-9h326v75h33q15 -38 15 -88v-30h-426v58z" />
    <glyph glyph-name="Zdotaccent" unicode="&#x17b;" horiz-adv-x="545" 
d="M247.5 719.5q-11.5 10.5 -11.5 29.5q0 42 44 42q42 0 42 -42q0 -19 -11 -29.5t-31 -10.5q-21 0 -32.5 10.5zM60 58l364 502v8h-300v-70h-34q-14 40 -14 83v31h401v-56l-365 -504v-9h326v75h33q15 -38 15 -88v-30h-426v58z" />
    <glyph glyph-name="uni1E92" unicode="&#x1e92;" horiz-adv-x="545" 
d="M60 58l364 502v8h-300v-70h-34q-14 40 -14 83v31h401v-56l-365 -504v-9h326v75h33q15 -38 15 -88v-30h-426v58zM248.5 -133.5q-11.5 10.5 -11.5 29.5q0 21 11.5 32t32.5 11q20 0 31 -11t11 -32q0 -19 -11 -29.5t-31 -10.5q-21 0 -32.5 10.5z" />
    <glyph glyph-name="a" unicode="a" horiz-adv-x="459" 
d="M82.5 21.5q-33.5 30.5 -33.5 82.5q0 75 52.5 112.5t149.5 37.5q48 0 86 -5v73q0 64 -26 89t-88 25q-34 0 -86 -6l-10 -70h-33q-9 26 -9 57v14q32 18 75 30.5t85 12.5q66 0 101.5 -36.5t35.5 -105.5v-332h-37l-4 67h-7q-58 -76 -155 -76q-63 0 -96.5 30.5zM273.5 50.5
q39.5 21.5 64.5 60.5v101q-45 7 -105 7q-62 0 -112 -12q-27 -43 -27 -94q0 -47 23.5 -65.5t69.5 -18.5q47 0 86.5 21.5z" />
    <glyph glyph-name="aacute" unicode="&#xe1;" horiz-adv-x="459" 
d="M223 568l84 141l62 -7l-114 -139zM82.5 21.5q-33.5 30.5 -33.5 82.5q0 75 52.5 112.5t149.5 37.5q48 0 86 -5v73q0 64 -26 89t-88 25q-34 0 -86 -6l-10 -70h-33q-9 26 -9 57v14q32 18 75 30.5t85 12.5q66 0 101.5 -36.5t35.5 -105.5v-332h-37l-4 67h-7q-58 -76 -155 -76
q-63 0 -96.5 30.5zM273.5 50.5q39.5 21.5 64.5 60.5v101q-45 7 -105 7q-62 0 -112 -12q-27 -43 -27 -94q0 -47 23.5 -65.5t69.5 -18.5q47 0 86.5 21.5z" />
    <glyph glyph-name="abreve" unicode="&#x103;" horiz-adv-x="459" 
d="M127 660l45 8q7 -35 23 -52.5t54 -17.5t54 17.5t23 52.5l45 -8q-19 -101 -122 -101t-122 101zM82.5 21.5q-33.5 30.5 -33.5 82.5q0 75 52.5 112.5t149.5 37.5q48 0 86 -5v73q0 64 -26 89t-88 25q-34 0 -86 -6l-10 -70h-33q-9 26 -9 57v14q32 18 75 30.5t85 12.5
q66 0 101.5 -36.5t35.5 -105.5v-332h-37l-4 67h-7q-58 -76 -155 -76q-63 0 -96.5 30.5zM273.5 50.5q39.5 21.5 64.5 60.5v101q-45 7 -105 7q-62 0 -112 -12q-27 -43 -27 -94q0 -47 23.5 -65.5t69.5 -18.5q47 0 86.5 21.5z" />
    <glyph glyph-name="uni1EAF" unicode="&#x1eaf;" horiz-adv-x="459" 
d="M216 712l61 103l48 -8l-81 -102zM113 660l45 8q7 -35 23 -52.5t54 -17.5t54 17.5t23 52.5l45 -8q-19 -101 -122 -101t-122 101zM82.5 21.5q-33.5 30.5 -33.5 82.5q0 75 52.5 112.5t149.5 37.5q48 0 86 -5v73q0 64 -26 89t-88 25q-34 0 -86 -6l-10 -70h-33q-9 26 -9 57v14
q32 18 75 30.5t85 12.5q66 0 101.5 -36.5t35.5 -105.5v-332h-37l-4 67h-7q-58 -76 -155 -76q-63 0 -96.5 30.5zM273.5 50.5q39.5 21.5 64.5 60.5v101q-45 7 -105 7q-62 0 -112 -12q-27 -43 -27 -94q0 -47 23.5 -65.5t69.5 -18.5q47 0 86.5 21.5z" />
    <glyph glyph-name="uni1EB7" unicode="&#x1eb7;" horiz-adv-x="459" 
d="M119 660l45 8q7 -35 23 -52.5t54 -17.5t54 17.5t23 52.5l45 -8q-19 -101 -122 -101t-122 101zM82.5 21.5q-33.5 30.5 -33.5 82.5q0 75 52.5 112.5t149.5 37.5q48 0 86 -5v73q0 64 -26 89t-88 25q-34 0 -86 -6l-10 -70h-33q-9 26 -9 57v14q32 18 75 30.5t85 12.5
q66 0 101.5 -36.5t35.5 -105.5v-332h-37l-4 67h-7q-58 -76 -155 -76q-63 0 -96.5 30.5zM273.5 50.5q39.5 21.5 64.5 60.5v101q-45 7 -105 7q-62 0 -112 -12q-27 -43 -27 -94q0 -47 23.5 -65.5t69.5 -18.5q47 0 86.5 21.5zM204.5 -141.5q-11.5 10.5 -11.5 29.5q0 20 11.5 31
t32.5 11q20 0 31 -11t11 -31q0 -19 -11 -29.5t-31 -10.5q-21 0 -32.5 10.5z" />
    <glyph glyph-name="uni1EB1" unicode="&#x1eb1;" horiz-adv-x="459" 
d="M154 807l47 8l62 -103l-28 -7zM121 660l45 8q7 -35 23 -52.5t54 -17.5t54 17.5t23 52.5l45 -8q-19 -101 -122 -101t-122 101zM82.5 21.5q-33.5 30.5 -33.5 82.5q0 75 52.5 112.5t149.5 37.5q48 0 86 -5v73q0 64 -26 89t-88 25q-34 0 -86 -6l-10 -70h-33q-9 26 -9 57v14
q32 18 75 30.5t85 12.5q66 0 101.5 -36.5t35.5 -105.5v-332h-37l-4 67h-7q-58 -76 -155 -76q-63 0 -96.5 30.5zM273.5 50.5q39.5 21.5 64.5 60.5v101q-45 7 -105 7q-62 0 -112 -12q-27 -43 -27 -94q0 -47 23.5 -65.5t69.5 -18.5q47 0 86.5 21.5z" />
    <glyph glyph-name="uni1EB3" unicode="&#x1eb3;" horiz-adv-x="459" 
d="M222 732v21q35 0 48.5 6t13.5 20q0 13 -7.5 18.5t-24.5 5.5q-21 0 -39 -7l-7 27q26 10 51 10q29 0 44 -14.5t15 -39.5q0 -49 -62 -51v-37h-23zM120 660l45 8q7 -35 23 -52.5t54 -17.5t54 17.5t23 52.5l45 -8q-19 -101 -122 -101t-122 101zM82.5 21.5
q-33.5 30.5 -33.5 82.5q0 75 52.5 112.5t149.5 37.5q48 0 86 -5v73q0 64 -26 89t-88 25q-34 0 -86 -6l-10 -70h-33q-9 26 -9 57v14q32 18 75 30.5t85 12.5q66 0 101.5 -36.5t35.5 -105.5v-332h-37l-4 67h-7q-58 -76 -155 -76q-63 0 -96.5 30.5zM273.5 50.5
q39.5 21.5 64.5 60.5v101q-45 7 -105 7q-62 0 -112 -12q-27 -43 -27 -94q0 -47 23.5 -65.5t69.5 -18.5q47 0 86.5 21.5z" />
    <glyph glyph-name="uni1EB5" unicode="&#x1eb5;" horiz-adv-x="459" 
d="M133 735q10 63 63 63q17 0 30 -5t29 -15q9 -5 17.5 -9t15.5 -4q18 0 28 9t15 28l26 -7q-8 -64 -62 -64q-15 0 -26.5 4.5t-25.5 13.5q-12 8 -21 11.5t-19 3.5q-19 0 -29 -8.5t-15 -28.5zM121 660l45 8q7 -35 23 -52.5t54 -17.5t54 17.5t23 52.5l45 -8q-19 -101 -122 -101
t-122 101zM82.5 21.5q-33.5 30.5 -33.5 82.5q0 75 52.5 112.5t149.5 37.5q48 0 86 -5v73q0 64 -26 89t-88 25q-34 0 -86 -6l-10 -70h-33q-9 26 -9 57v14q32 18 75 30.5t85 12.5q66 0 101.5 -36.5t35.5 -105.5v-332h-37l-4 67h-7q-58 -76 -155 -76q-63 0 -96.5 30.5z
M273.5 50.5q39.5 21.5 64.5 60.5v101q-45 7 -105 7q-62 0 -112 -12q-27 -43 -27 -94q0 -47 23.5 -65.5t69.5 -18.5q47 0 86.5 21.5z" />
    <glyph glyph-name="uni01CE" unicode="&#x1ce;" horiz-adv-x="459" 
d="M111 697l30 7l94 -98h5l93 98l30 -7l-101 -131h-49zM82.5 21.5q-33.5 30.5 -33.5 82.5q0 75 52.5 112.5t149.5 37.5q48 0 86 -5v73q0 64 -26 89t-88 25q-34 0 -86 -6l-10 -70h-33q-9 26 -9 57v14q32 18 75 30.5t85 12.5q66 0 101.5 -36.5t35.5 -105.5v-332h-37l-4 67h-7
q-58 -76 -155 -76q-63 0 -96.5 30.5zM273.5 50.5q39.5 21.5 64.5 60.5v101q-45 7 -105 7q-62 0 -112 -12q-27 -43 -27 -94q0 -47 23.5 -65.5t69.5 -18.5q47 0 86.5 21.5z" />
    <glyph glyph-name="acircumflex" unicode="&#xe2;" horiz-adv-x="459" 
d="M112 569l102 131h49l101 -131l-30 -7l-93 98h-5l-94 -98zM82.5 21.5q-33.5 30.5 -33.5 82.5q0 75 52.5 112.5t149.5 37.5q48 0 86 -5v73q0 64 -26 89t-88 25q-34 0 -86 -6l-10 -70h-33q-9 26 -9 57v14q32 18 75 30.5t85 12.5q66 0 101.5 -36.5t35.5 -105.5v-332h-37
l-4 67h-7q-58 -76 -155 -76q-63 0 -96.5 30.5zM273.5 50.5q39.5 21.5 64.5 60.5v101q-45 7 -105 7q-62 0 -112 -12q-27 -43 -27 -94q0 -47 23.5 -65.5t69.5 -18.5q47 0 86.5 21.5z" />
    <glyph glyph-name="uni1EA5" unicode="&#x1ea5;" horiz-adv-x="480" 
d="M370 653l61 104l48 -9l-81 -101zM114 565l102 131h49l101 -131l-30 -7l-93 98h-5l-94 -98zM82.5 21.5q-33.5 30.5 -33.5 82.5q0 75 52.5 112.5t149.5 37.5q48 0 86 -5v73q0 64 -26 89t-88 25q-34 0 -86 -6l-10 -68h-33q-9 26 -9 58v11q32 18 75 30.5t85 12.5
q66 0 101.5 -36.5t35.5 -105.5v-332h-37l-4 67h-7q-58 -76 -155 -76q-63 0 -96.5 30.5zM273.5 50.5q39.5 21.5 64.5 60.5v101q-45 7 -105 7q-62 0 -112 -12q-27 -43 -27 -94q0 -47 23.5 -65.5t69.5 -18.5q47 0 86.5 21.5z" />
    <glyph glyph-name="uni1EAD" unicode="&#x1ead;" horiz-adv-x="459" 
d="M107 565l102 132h49l101 -132l-30 -6l-93 98h-5l-94 -98zM82.5 21.5q-33.5 30.5 -33.5 82.5q0 75 52.5 112.5t149.5 37.5q48 0 86 -5v73q0 64 -26 89t-88 25q-34 0 -86 -6l-10 -70h-33q-9 26 -9 57v14q32 18 75 30.5t85 12.5q66 0 101.5 -36.5t35.5 -105.5v-332h-37
l-4 67h-7q-58 -76 -155 -76q-63 0 -96.5 30.5zM273.5 50.5q39.5 21.5 64.5 60.5v101q-45 7 -105 7q-62 0 -112 -12q-27 -43 -27 -94q0 -47 23.5 -65.5t69.5 -18.5q47 0 86.5 21.5zM201.5 -141.5q-11.5 10.5 -11.5 29.5q0 20 11.5 31t32.5 11q20 0 31 -11t11 -31
q0 -19 -11 -29.5t-31 -10.5q-21 0 -32.5 10.5z" />
    <glyph glyph-name="uni1EA7" unicode="&#x1ea7;" horiz-adv-x="458" 
d="M1 749l47 8l62 -103l-28 -7zM113 566l102 131h48l102 -131l-30 -7l-93 98h-6l-92 -98zM81.5 21.5q-33.5 30.5 -33.5 82.5q0 75 52.5 112.5t149.5 37.5q48 0 86 -5v73q0 64 -26 89t-88 25q-34 0 -86 -6l-10 -70h-33q-9 26 -9 57v14q32 18 75 30.5t85 12.5
q66 0 101.5 -36.5t35.5 -105.5v-332h-37l-4 67h-7q-58 -76 -155 -76q-63 0 -96.5 30.5zM273.5 50.5q39.5 21.5 64.5 60.5v101q-45 7 -105 7q-62 0 -112 -12q-27 -43 -27 -94q0 -47 23.5 -65.5t69.5 -18.5q47 0 86.5 21.5z" />
    <glyph glyph-name="uni1EA9" unicode="&#x1ea9;" horiz-adv-x="509" 
d="M357 705v21q35 0 48.5 5.5t13.5 19.5q0 13 -7.5 19t-24.5 6q-21 0 -39 -7l-7 27q30 10 51 10q29 0 44 -14.5t15 -39.5q0 -49 -62 -52v-36h-23zM109 565l102 131h49l101 -131l-30 -7l-93 98h-5l-94 -98zM82.5 21.5q-33.5 30.5 -33.5 82.5q0 75 52.5 112.5t149.5 37.5
q48 0 86 -5v73q0 64 -26 89t-88 25q-34 0 -86 -6l-10 -70h-33q-9 26 -9 57v14q32 18 75 30.5t85 12.5q66 0 101.5 -36.5t35.5 -105.5v-332h-37l-4 67h-7q-58 -76 -155 -76q-63 0 -96.5 30.5zM273.5 50.5q39.5 21.5 64.5 60.5v101q-45 7 -105 7q-62 0 -112 -12
q-27 -43 -27 -94q0 -47 23.5 -65.5t69.5 -18.5q47 0 86.5 21.5z" />
    <glyph glyph-name="uni1EAB" unicode="&#x1eab;" horiz-adv-x="459" 
d="M120 763q10 63 63 63q17 0 30 -5t29 -15q9 -5 17.5 -9t15.5 -4q18 0 28 9t15 28l26 -8q-8 -63 -62 -63q-15 0 -26.5 4.5t-25.5 13.5q-12 8 -21 11.5t-19 3.5q-19 0 -29 -9t-15 -28zM108 565l102 132h49l101 -132l-30 -6l-93 98h-5l-94 -98zM82.5 21.5
q-33.5 30.5 -33.5 82.5q0 75 52.5 112.5t149.5 37.5q48 0 86 -5v73q0 64 -26 89t-88 25q-34 0 -86 -6l-10 -70h-33q-9 26 -9 57v14q32 18 75 30.5t85 12.5q66 0 101.5 -36.5t35.5 -105.5v-332h-37l-4 67h-7q-58 -76 -155 -76q-63 0 -96.5 30.5zM273.5 50.5
q39.5 21.5 64.5 60.5v101q-45 7 -105 7q-62 0 -112 -12q-27 -43 -27 -94q0 -47 23.5 -65.5t69.5 -18.5q47 0 86.5 21.5z" />
    <glyph glyph-name="adieresis" unicode="&#xe4;" horiz-adv-x="459" 
d="M137 569q-9 8 -9 23t9 23.5t24 8.5t23.5 -8t8.5 -24q0 -15 -8.5 -23t-23.5 -8t-24 8zM294 569q-9 8 -9 23q0 16 9 24t25 8q15 0 23.5 -8t8.5 -24q0 -15 -8.5 -23t-23.5 -8q-16 0 -25 8zM82.5 21.5q-33.5 30.5 -33.5 82.5q0 75 52.5 112.5t149.5 37.5q48 0 86 -5v73
q0 64 -26 89t-88 25q-34 0 -86 -6l-10 -70h-33q-9 26 -9 57v14q32 18 75 30.5t85 12.5q66 0 101.5 -36.5t35.5 -105.5v-332h-37l-4 67h-7q-58 -76 -155 -76q-63 0 -96.5 30.5zM273.5 50.5q39.5 21.5 64.5 60.5v101q-45 7 -105 7q-62 0 -112 -12q-27 -43 -27 -94
q0 -47 23.5 -65.5t69.5 -18.5q47 0 86.5 21.5z" />
    <glyph glyph-name="uni1EA1" unicode="&#x1ea1;" horiz-adv-x="459" 
d="M82.5 21.5q-33.5 30.5 -33.5 82.5q0 75 52.5 112.5t149.5 37.5q48 0 86 -5v73q0 64 -26 89t-88 25q-34 0 -86 -6l-10 -70h-33q-9 26 -9 57v14q32 18 75 30.5t85 12.5q66 0 101.5 -36.5t35.5 -105.5v-332h-37l-4 67h-7q-58 -76 -155 -76q-63 0 -96.5 30.5zM273.5 50.5
q39.5 21.5 64.5 60.5v101q-45 7 -105 7q-62 0 -112 -12q-27 -43 -27 -94q0 -47 23.5 -65.5t69.5 -18.5q47 0 86.5 21.5zM199.5 -133.5q-11.5 10.5 -11.5 29.5q0 21 11.5 32t32.5 11q20 0 31 -11t11 -32q0 -19 -11 -29.5t-31 -10.5q-21 0 -32.5 10.5z" />
    <glyph glyph-name="agrave" unicode="&#xe0;" horiz-adv-x="459" 
d="M134 702l62 7l84 -141l-32 -5zM82.5 21.5q-33.5 30.5 -33.5 82.5q0 75 52.5 112.5t149.5 37.5q48 0 86 -5v73q0 64 -26 89t-88 25q-34 0 -86 -6l-10 -70h-33q-9 26 -9 57v14q32 18 75 30.5t85 12.5q66 0 101.5 -36.5t35.5 -105.5v-332h-37l-4 67h-7q-58 -76 -155 -76
q-63 0 -96.5 30.5zM273.5 50.5q39.5 21.5 64.5 60.5v101q-45 7 -105 7q-62 0 -112 -12q-27 -43 -27 -94q0 -47 23.5 -65.5t69.5 -18.5q47 0 86.5 21.5z" />
    <glyph glyph-name="uni1EA3" unicode="&#x1ea3;" horiz-adv-x="459" 
d="M218 615v22q50 0 69 8.5t19 33.5q0 19 -11 28.5t-37 9.5q-22 0 -51 -8l-10 30q31 13 69 13q40 0 59.5 -20t19.5 -53q0 -38 -23 -55t-66 -19v-39h-27zM82.5 21.5q-33.5 30.5 -33.5 82.5q0 75 52.5 112.5t149.5 37.5q48 0 86 -5v73q0 64 -26 89t-88 25q-34 0 -86 -6
l-10 -70h-33q-9 26 -9 57v14q32 18 75 30.5t85 12.5q66 0 101.5 -36.5t35.5 -105.5v-332h-37l-4 67h-7q-58 -76 -155 -76q-63 0 -96.5 30.5zM273.5 50.5q39.5 21.5 64.5 60.5v101q-45 7 -105 7q-62 0 -112 -12q-27 -43 -27 -94q0 -47 23.5 -65.5t69.5 -18.5q47 0 86.5 21.5z
" />
    <glyph glyph-name="amacron" unicode="&#x101;" horiz-adv-x="459" 
d="M140 607h206v-41h-206v41zM82.5 21.5q-33.5 30.5 -33.5 82.5q0 75 52.5 112.5t149.5 37.5q48 0 86 -5v73q0 64 -26 89t-88 25q-34 0 -86 -6l-10 -70h-33q-9 26 -9 57v14q32 18 75 30.5t85 12.5q66 0 101.5 -36.5t35.5 -105.5v-332h-37l-4 67h-7q-58 -76 -155 -76
q-63 0 -96.5 30.5zM273.5 50.5q39.5 21.5 64.5 60.5v101q-45 7 -105 7q-62 0 -112 -12q-27 -43 -27 -94q0 -47 23.5 -65.5t69.5 -18.5q47 0 86.5 21.5z" />
    <glyph glyph-name="aogonek" unicode="&#x105;" horiz-adv-x="488" 
d="M411 -155q-24 -11 -56 -11q-40 0 -61 20.5t-21 56.5q0 64 71 96l-3 60h-7q-58 -76 -155 -76q-63 0 -96.5 30.5t-33.5 82.5q0 75 52.5 112.5t149.5 37.5q48 0 86 -5v73q0 64 -26 89t-88 25q-34 0 -86 -6l-10 -70h-33q-9 26 -9 57v14q32 18 75 30.5t85 12.5
q66 0 101.5 -36.5t35.5 -105.5v-332h-6q-34 -19 -47.5 -39t-13.5 -49q0 -18 8 -36q19 -4 40 -4q16 0 41 5zM338 212q-45 7 -105 7q-62 0 -112 -12q-27 -43 -27 -94q0 -47 23.5 -65.5t69.5 -18.5q47 0 86.5 21.5t64.5 60.5v101z" />
    <glyph glyph-name="aring" unicode="&#xe5;" horiz-adv-x="459" 
d="M166.5 581.5q-25.5 20.5 -25.5 60.5q0 38 31.5 65.5t83.5 27.5q97 0 97 -83q0 -39 -30 -65t-84 -26q-47 0 -72.5 20.5zM308 601q9 26 9 49q0 53 -65 53q-37 0 -66 -8q-9 -27 -9 -51q0 -25 16 -38.5t48 -13.5q39 0 67 9zM82.5 21.5q-33.5 30.5 -33.5 82.5q0 75 52.5 112.5
t149.5 37.5q48 0 86 -5v73q0 64 -26 89t-88 25q-34 0 -86 -6l-10 -70h-33q-9 26 -9 57v14q32 18 75 30.5t85 12.5q66 0 101.5 -36.5t35.5 -105.5v-332h-37l-4 67h-7q-58 -76 -155 -76q-63 0 -96.5 30.5zM273.5 50.5q39.5 21.5 64.5 60.5v101q-45 7 -105 7q-62 0 -112 -12
q-27 -43 -27 -94q0 -47 23.5 -65.5t69.5 -18.5q47 0 86.5 21.5z" />
    <glyph glyph-name="aringacute" unicode="&#x1fb;" horiz-adv-x="459" 
d="M222 796l84 140l62 -6l-114 -140zM158.5 573.5q-25.5 20.5 -25.5 60.5q0 38 31.5 65.5t83.5 27.5q97 0 97 -82q0 -39 -30 -65.5t-84 -26.5q-47 0 -72.5 20.5zM301 593q9 27 9 49q0 53 -65 53q-41 0 -66 -8q-9 -27 -9 -51q0 -51 64 -51q42 0 67 8zM82.5 21.5
q-33.5 30.5 -33.5 82.5q0 75 52.5 112.5t149.5 37.5q48 0 86 -5v73q0 64 -26 89t-88 25q-34 0 -86 -6l-10 -70h-33q-9 26 -9 57v14q32 18 75 30.5t85 12.5q66 0 101.5 -36.5t35.5 -105.5v-332h-37l-4 67h-7q-58 -76 -155 -76q-63 0 -96.5 30.5zM273.5 50.5
q39.5 21.5 64.5 60.5v101q-45 7 -105 7q-62 0 -112 -12q-27 -43 -27 -94q0 -47 23.5 -65.5t69.5 -18.5q47 0 86.5 21.5z" />
    <glyph glyph-name="uni0251" unicode="&#x251;" horiz-adv-x="500" 
d="M99 54.5q-38 60.5 -38 166.5q0 120 39.5 186.5t130.5 66.5q48 0 80.5 -21.5t59.5 -61.5h6l5 83h38v-474l-38 -1l-5 74h-7q-32 -38 -66.5 -58.5t-86.5 -20.5q-80 0 -118 60.5zM375 118v227q-59 89 -139 89q-70 0 -100.5 -53t-30.5 -155q0 -96 29.5 -144t93.5 -48
q83 0 147 84z" />
    <glyph glyph-name="atilde" unicode="&#xe3;" horiz-adv-x="459" 
d="M108 570q2 40 21 62t52 22q17 0 30.5 -7.5t33.5 -21.5q18 -13 28.5 -18.5t22.5 -5.5q39 0 46 54l31 -10q-2 -40 -21 -62t-52 -22q-17 0 -32 7.5t-34 21.5q-30 24 -49 24q-39 0 -46 -54zM82.5 21.5q-33.5 30.5 -33.5 82.5q0 75 52.5 112.5t149.5 37.5q48 0 86 -5v73
q0 64 -26 89t-88 25q-34 0 -86 -6l-10 -70h-33q-9 26 -9 57v14q32 18 75 30.5t85 12.5q66 0 101.5 -36.5t35.5 -105.5v-332h-37l-4 67h-7q-58 -76 -155 -76q-63 0 -96.5 30.5zM273.5 50.5q39.5 21.5 64.5 60.5v101q-45 7 -105 7q-62 0 -112 -12q-27 -43 -27 -94
q0 -47 23.5 -65.5t69.5 -18.5q47 0 86.5 21.5z" />
    <glyph glyph-name="ae" unicode="&#xe6;" horiz-adv-x="750" 
d="M83 21.5q-34 30.5 -34 82.5q0 75 51.5 112.5t148.5 37.5q55 0 95 -5v73q0 62 -30 88t-93 26q-32 0 -84 -6l-10 -70h-33q-9 26 -9 57v14q32 18 74.5 30.5t83.5 12.5q51 0 86.5 -23.5t48.5 -67.5q46 91 159 91q76 0 120.5 -47.5t44.5 -131.5q0 -11 -2 -35l-44 -46l-267 1
q3 -91 39 -135t112 -44q44 0 74.5 8.5t61.5 26.5l16 -36q-36 -20 -70 -30t-83 -10q-119 0 -164 88q-42 -48 -84 -70t-111 -22q-63 0 -97 30.5zM655 254q6 21 6 47q0 61 -32.5 96.5t-94.5 35.5q-77 0 -108 -45t-37 -139zM276 48q38 19 69 55v109q-46 7 -114 7q-60 0 -110 -12
q-27 -43 -27 -94q0 -47 23 -65.5t70 -18.5q51 0 89 19z" />
    <glyph glyph-name="aeacute" unicode="&#x1fd;" horiz-adv-x="750" 
d="M359 565l84 141l62 -7l-114 -139zM83 21.5q-34 30.5 -34 82.5q0 75 51.5 112.5t148.5 37.5q55 0 95 -5v73q0 62 -30 88t-93 26q-32 0 -84 -6l-10 -70h-33q-9 26 -9 57v14q32 18 74.5 30.5t83.5 12.5q51 0 86.5 -23.5t48.5 -67.5q46 91 159 91q76 0 120.5 -47.5
t44.5 -131.5q0 -11 -2 -35l-44 -46l-267 1q3 -91 39 -135t112 -44q44 0 74.5 8.5t61.5 26.5l16 -36q-36 -20 -70 -30t-83 -10q-119 0 -164 88q-42 -48 -84 -70t-111 -22q-63 0 -97 30.5zM655 254q6 21 6 47q0 61 -32.5 96.5t-94.5 35.5q-77 0 -108 -45t-37 -139zM276 48
q38 19 69 55v109q-46 7 -114 7q-60 0 -110 -12q-27 -43 -27 -94q0 -47 23 -65.5t70 -18.5q51 0 89 19z" />
    <glyph glyph-name="b" unicode="b" horiz-adv-x="508" 
d="M84 13v654h45v-185l-5 -82h8q39 35 78 54.5t85 19.5q79 0 118.5 -60.5t39.5 -165.5q0 -127 -54 -192t-162 -65q-73 0 -153 22zM366 82.5q41 51.5 41 162.5q0 96 -29.5 142t-92.5 46q-84 0 -156 -75v-314q54 -13 110 -13q86 0 127 51.5z" />
    <glyph glyph-name="c" unicode="c" horiz-adv-x="446" 
d="M106 48.5q-48 57.5 -48 162.5q0 121 47 192t148 71q75 0 131 -37v-24q0 -45 -10 -69h-28l-6 78q-45 10 -90 10q-62 0 -107 -19q-41 -80 -41 -200q0 -88 39 -134t118 -46q75 0 129 41l24 -32q-31 -25 -68 -38t-87 -13q-103 0 -151 57.5z" />
    <glyph glyph-name="cacute" unicode="&#x107;" horiz-adv-x="446" 
d="M221 565l84 140l62 -6l-114 -140zM106 48.5q-48 57.5 -48 162.5q0 121 47 192t148 71q75 0 131 -37v-24q0 -45 -10 -69h-28l-6 78q-45 10 -90 10q-62 0 -107 -19q-41 -80 -41 -200q0 -88 39 -134t118 -46q75 0 129 41l24 -32q-31 -25 -68 -38t-87 -13q-103 0 -151 57.5z
" />
    <glyph glyph-name="ccaron" unicode="&#x10d;" horiz-adv-x="446" 
d="M125 697l30 7l94 -98h5l93 98l30 -7l-101 -131h-49zM106 48.5q-48 57.5 -48 162.5q0 121 47 192t148 71q75 0 131 -37v-24q0 -45 -10 -69h-28l-6 78q-45 10 -90 10q-62 0 -107 -19q-41 -80 -41 -200q0 -88 39 -134t118 -46q75 0 129 41l24 -32q-31 -25 -68 -38t-87 -13
q-103 0 -151 57.5z" />
    <glyph glyph-name="ccedilla" unicode="&#xe7;" horiz-adv-x="446" 
d="M158 -200l12 32q33 -12 71 -12q31 0 52 7q6 13 6 37q0 21 -11 31.5t-35 10.5q-29 0 -46 -6l-31 31l51 61q-87 9 -128 65.5t-41 153.5q0 121 47 192t148 71q75 0 131 -37v-24q0 -45 -10 -69h-28l-6 78q-45 10 -90 10q-62 0 -107 -19q-41 -80 -41 -200q0 -88 39 -134
t118 -46q75 0 129 41l24 -32q-31 -24 -66.5 -37t-83.5 -14l-44 -59q21 9 49 9q73 0 73 -73q0 -84 -101 -84q-44 0 -81 16z" />
    <glyph glyph-name="ccircumflex" unicode="&#x109;" horiz-adv-x="446" 
d="M120 565l102 132h49l101 -132l-30 -6l-93 98h-5l-94 -98zM106 48.5q-48 57.5 -48 162.5q0 121 47 192t148 71q75 0 131 -37v-24q0 -45 -10 -69h-28l-6 78q-45 10 -90 10q-62 0 -107 -19q-41 -80 -41 -200q0 -88 39 -134t118 -46q75 0 129 41l24 -32q-31 -25 -68 -38
t-87 -13q-103 0 -151 57.5z" />
    <glyph glyph-name="cdotaccent" unicode="&#x10b;" horiz-adv-x="446" 
d="M224.5 571.5q-11.5 10.5 -11.5 29.5q0 42 44 42q42 0 42 -42q0 -19 -11 -29.5t-31 -10.5q-21 0 -32.5 10.5zM106 48.5q-48 57.5 -48 162.5q0 121 47 192t148 71q75 0 131 -37v-24q0 -45 -10 -69h-28l-6 78q-45 10 -90 10q-62 0 -107 -19q-41 -80 -41 -200q0 -88 39 -134
t118 -46q75 0 129 41l24 -32q-31 -25 -68 -38t-87 -13q-103 0 -151 57.5z" />
    <glyph glyph-name="d" unicode="d" horiz-adv-x="512" 
d="M59 234q0 101 43 170.5t132 69.5q44 0 78.5 -16.5t68.5 -47.5h6l-4 84v173h45v-667h-37l-3 68h-7q-24 -34 -61.5 -55.5t-84.5 -21.5q-176 0 -176 243zM326.5 55.5q34.5 24.5 55.5 61.5v253q-36 34 -67 48.5t-70 14.5q-141 0 -141 -202q0 -100 31.5 -150t108.5 -50
q48 0 82.5 24.5z" />
    <glyph glyph-name="eth" unicode="&#xf0;" horiz-adv-x="557" 
d="M134 40q-48 47 -48 134q0 83 48.5 128.5t129.5 45.5q44 0 79.5 -17.5t61.5 -45.5h5q-3 116 -63 194l-119 -43l-13 30l109 41q-48 48 -109 77l22 29q78 -39 125 -90l104 38l15 -32l-96 -34q40 -55 55.5 -113t15.5 -133q0 -79 -15 -134.5t-57.5 -88.5t-120.5 -33
q-81 0 -129 47zM330.5 40q25.5 5 52.5 16q13 29 20 67t7 77q0 23 -2 42q-31 31 -63 47t-75 16q-138 0 -138 -129q0 -141 141 -141q32 0 57.5 5z" />
    <glyph glyph-name="dcaron" unicode="&#x10f;" horiz-adv-x="554" 
d="M507 488q18 33 27 65.5t9 75.5h-55v33q17 6 38 6q56 0 56 -62q0 -68 -45 -124zM59 234q0 101 43 170.5t132 69.5q44 0 78.5 -16.5t68.5 -47.5h6l-4 84v173h45v-667h-37l-3 68h-7q-24 -34 -61.5 -55.5t-84.5 -21.5q-176 0 -176 243zM326.5 55.5q34.5 24.5 55.5 61.5v253
q-36 34 -67 48.5t-70 14.5q-141 0 -141 -202q0 -100 31.5 -150t108.5 -50q48 0 82.5 24.5z" />
    <glyph glyph-name="dcroat" unicode="&#x111;" horiz-adv-x="524" 
d="M59 234q0 101 43 170.5t132 69.5q44 0 78.5 -16.5t68.5 -47.5h6l-4 84v54h-140v38h140v81h45v-81h58v-38h-58v-548h-37l-3 68h-7q-24 -34 -61.5 -55.5t-84.5 -21.5q-176 0 -176 243zM326.5 55.5q34.5 24.5 55.5 61.5v253q-36 34 -67 48.5t-70 14.5q-141 0 -141 -202
q0 -100 31.5 -150t108.5 -50q48 0 82.5 24.5z" />
    <glyph glyph-name="uni1E0D" unicode="&#x1e0d;" horiz-adv-x="512" 
d="M59 234q0 101 43 170.5t132 69.5q44 0 78.5 -16.5t68.5 -47.5h6l-4 84v173h45v-667h-37l-3 68h-7q-24 -34 -61.5 -55.5t-84.5 -21.5q-176 0 -176 243zM326.5 55.5q34.5 24.5 55.5 61.5v253q-36 34 -67 48.5t-70 14.5q-141 0 -141 -202q0 -100 31.5 -150t108.5 -50
q48 0 82.5 24.5zM242.5 -133.5q-11.5 10.5 -11.5 29.5q0 21 11.5 32t32.5 11q20 0 31 -11t11 -32q0 -19 -11 -29.5t-31 -10.5q-21 0 -32.5 10.5z" />
    <glyph glyph-name="uni1E0F" unicode="&#x1e0f;" horiz-adv-x="512" 
d="M59 234q0 101 43 170.5t132 69.5q44 0 78.5 -16.5t68.5 -47.5h6l-4 84v173h45v-667h-37l-3 68h-7q-24 -34 -61.5 -55.5t-84.5 -21.5q-176 0 -176 243zM326.5 55.5q34.5 24.5 55.5 61.5v253q-36 34 -67 48.5t-70 14.5q-141 0 -141 -202q0 -100 31.5 -150t108.5 -50
q48 0 82.5 24.5zM85 -72h301v-44h-301v44z" />
    <glyph glyph-name="e" unicode="e" horiz-adv-x="466" 
d="M59 231q0 114 48.5 178.5t145.5 64.5q76 0 120 -47t44 -131q0 -10 -2 -36l-44 -46l-268 1q2 -92 39 -138t114 -46q44 0 74.5 8.5t61.5 26.5l15 -36q-34 -19 -68 -29t-84 -10q-196 0 -196 240zM371 254q5 18 5 47q0 61 -32.5 96.5t-94.5 35.5q-77 0 -109 -45.5t-38 -138.5
z" />
    <glyph glyph-name="eacute" unicode="&#xe9;" horiz-adv-x="466" 
d="M221 568l84 141l62 -7l-114 -139zM59 231q0 114 48.5 178.5t145.5 64.5q76 0 120 -47t44 -131q0 -10 -2 -36l-44 -46l-268 1q2 -92 39 -138t114 -46q44 0 74.5 8.5t61.5 26.5l15 -36q-34 -19 -68 -29t-84 -10q-196 0 -196 240zM371 254q5 18 5 47q0 61 -32.5 96.5
t-94.5 35.5q-77 0 -109 -45.5t-38 -138.5z" />
    <glyph glyph-name="ebreve" unicode="&#x115;" horiz-adv-x="466" 
d="M125 661l45 8q7 -35 23 -52t54 -17t54 17t23 52l45 -8q-20 -100 -122 -100t-122 100zM59 231q0 114 48.5 178.5t145.5 64.5q76 0 120 -47t44 -131q0 -10 -2 -36l-44 -46l-268 1q2 -92 39 -138t114 -46q44 0 74.5 8.5t61.5 26.5l15 -36q-34 -19 -68 -29t-84 -10
q-196 0 -196 240zM371 254q5 18 5 47q0 61 -32.5 96.5t-94.5 35.5q-77 0 -109 -45.5t-38 -138.5z" />
    <glyph glyph-name="ecaron" unicode="&#x11b;" horiz-adv-x="466" 
d="M121 697l30 7l94 -98h5l93 98l30 -7l-101 -131h-49zM59 231q0 114 48.5 178.5t145.5 64.5q76 0 120 -47t44 -131q0 -10 -2 -36l-44 -46l-268 1q2 -92 39 -138t114 -46q44 0 74.5 8.5t61.5 26.5l15 -36q-34 -19 -68 -29t-84 -10q-196 0 -196 240zM371 254q5 18 5 47
q0 61 -32.5 96.5t-94.5 35.5q-77 0 -109 -45.5t-38 -138.5z" />
    <glyph glyph-name="ecircumflex" unicode="&#xea;" horiz-adv-x="466" 
d="M121 569l102 131h49l101 -131l-30 -7l-93 98h-5l-94 -98zM59 231q0 114 48.5 178.5t145.5 64.5q76 0 120 -47t44 -131q0 -10 -2 -36l-44 -46l-268 1q2 -92 39 -138t114 -46q44 0 74.5 8.5t61.5 26.5l15 -36q-34 -19 -68 -29t-84 -10q-196 0 -196 240zM371 254q5 18 5 47
q0 61 -32.5 96.5t-94.5 35.5q-77 0 -109 -45.5t-38 -138.5z" />
    <glyph glyph-name="uni1EBF" unicode="&#x1ebf;" horiz-adv-x="491" 
d="M379 654l61 103l48 -8l-81 -102zM124 566l102 131h49l101 -131l-30 -7l-93 98h-5l-94 -98zM59 231q0 114 48.5 178.5t145.5 64.5q76 0 120 -47t44 -131q0 -10 -2 -36l-44 -46l-268 1q2 -92 39 -138t114 -46q44 0 74.5 8.5t61.5 26.5l15 -36q-34 -19 -68 -29t-84 -10
q-196 0 -196 240zM371 254q5 18 5 47q0 61 -32.5 96.5t-94.5 35.5q-77 0 -109 -45.5t-38 -138.5z" />
    <glyph glyph-name="uni1EC7" unicode="&#x1ec7;" horiz-adv-x="466" 
d="M124 566l102 131h49l101 -131l-30 -7l-93 98h-5l-94 -98zM59 231q0 114 48.5 178.5t145.5 64.5q76 0 120 -47t44 -131q0 -10 -2 -36l-44 -46l-268 1q2 -92 39 -138t114 -46q44 0 74.5 8.5t61.5 26.5l15 -36q-34 -19 -68 -29t-84 -10q-196 0 -196 240zM371 254q5 18 5 47
q0 61 -32.5 96.5t-94.5 35.5q-77 0 -109 -45.5t-38 -138.5zM221.5 -141.5q-11.5 10.5 -11.5 29.5q0 20 11.5 31t32.5 11q20 0 31 -11t11 -31q0 -19 -11 -29.5t-31 -10.5q-21 0 -32.5 10.5z" />
    <glyph glyph-name="uni1EC1" unicode="&#x1ec1;" horiz-adv-x="457" 
d="M3 748l47 9l62 -104l-28 -6zM115 565l102 132h48l102 -132l-30 -6l-93 98h-6l-92 -98zM50 231q0 114 48.5 178.5t145.5 64.5q76 0 120 -47t44 -131q0 -10 -2 -36l-44 -46l-268 1q2 -92 39 -138t114 -46q44 0 74.5 8.5t61.5 26.5l15 -36q-34 -19 -68 -29t-84 -10
q-196 0 -196 240zM362 254q5 18 5 47q0 61 -32.5 96.5t-94.5 35.5q-77 0 -109 -45.5t-38 -138.5z" />
    <glyph glyph-name="uni1EC3" unicode="&#x1ec3;" horiz-adv-x="483" 
d="M361 705v21q35 0 48.5 5.5t13.5 19.5q0 13 -7.5 19t-24.5 6q-21 0 -39 -7l-7 27q30 10 51 10q29 0 44 -14.5t15 -39.5q0 -49 -62 -52v-36h-23zM113 565l102 131h49l101 -131l-30 -7l-93 98h-5l-94 -98zM59 231q0 114 48.5 178.5t145.5 64.5q76 0 120 -47t44 -131
q0 -10 -2 -36l-44 -46l-268 1q2 -92 39 -138t114 -46q44 0 74.5 8.5t61.5 26.5l15 -36q-34 -19 -68 -29t-84 -10q-196 0 -196 240zM371 254q5 18 5 47q0 61 -32.5 96.5t-94.5 35.5q-77 0 -109 -45.5t-38 -138.5z" />
    <glyph glyph-name="uni1EC5" unicode="&#x1ec5;" horiz-adv-x="466" 
d="M129 763q10 63 63 63q17 0 30 -5t29 -15q9 -5 17.5 -9t15.5 -4q18 0 28 9t15 28l26 -8q-8 -63 -62 -63q-15 0 -26.5 4.5t-25.5 13.5q-12 8 -21 11.5t-19 3.5q-19 0 -29 -9t-15 -28zM116 565l102 132h49l101 -132l-30 -6l-93 98h-5l-94 -98zM59 231q0 114 48.5 178.5
t145.5 64.5q76 0 120 -47t44 -131q0 -10 -2 -36l-44 -46l-268 1q2 -92 39 -138t114 -46q44 0 74.5 8.5t61.5 26.5l15 -36q-34 -19 -68 -29t-84 -10q-196 0 -196 240zM371 254q5 18 5 47q0 61 -32.5 96.5t-94.5 35.5q-77 0 -109 -45.5t-38 -138.5z" />
    <glyph glyph-name="edieresis" unicode="&#xeb;" horiz-adv-x="466" 
d="M142 569q-9 8 -9 23t9 23.5t24 8.5t23.5 -8t8.5 -24q0 -15 -8.5 -23t-23.5 -8t-24 8zM299 569q-9 8 -9 23q0 16 9 24t25 8q15 0 23.5 -8t8.5 -24q0 -15 -8.5 -23t-23.5 -8q-16 0 -25 8zM59 231q0 114 48.5 178.5t145.5 64.5q76 0 120 -47t44 -131q0 -10 -2 -36l-44 -46
l-268 1q2 -92 39 -138t114 -46q44 0 74.5 8.5t61.5 26.5l15 -36q-34 -19 -68 -29t-84 -10q-196 0 -196 240zM371 254q5 18 5 47q0 61 -32.5 96.5t-94.5 35.5q-77 0 -109 -45.5t-38 -138.5z" />
    <glyph glyph-name="edotaccent" unicode="&#x117;" horiz-adv-x="466" 
d="M215.5 571.5q-11.5 10.5 -11.5 29.5q0 42 44 42q42 0 42 -42q0 -19 -11 -29.5t-31 -10.5q-21 0 -32.5 10.5zM59 231q0 114 48.5 178.5t145.5 64.5q76 0 120 -47t44 -131q0 -10 -2 -36l-44 -46l-268 1q2 -92 39 -138t114 -46q44 0 74.5 8.5t61.5 26.5l15 -36
q-34 -19 -68 -29t-84 -10q-196 0 -196 240zM371 254q5 18 5 47q0 61 -32.5 96.5t-94.5 35.5q-77 0 -109 -45.5t-38 -138.5z" />
    <glyph glyph-name="uni1EB9" unicode="&#x1eb9;" horiz-adv-x="466" 
d="M59 231q0 114 48.5 178.5t145.5 64.5q76 0 120 -47t44 -131q0 -10 -2 -36l-44 -46l-268 1q2 -92 39 -138t114 -46q44 0 74.5 8.5t61.5 26.5l15 -36q-34 -19 -68 -29t-84 -10q-196 0 -196 240zM371 254q5 18 5 47q0 61 -32.5 96.5t-94.5 35.5q-77 0 -109 -45.5t-38 -138.5
zM214.5 -133.5q-11.5 10.5 -11.5 29.5q0 21 11.5 32t32.5 11q20 0 31 -11t11 -32q0 -19 -11 -29.5t-31 -10.5q-21 0 -32.5 10.5z" />
    <glyph glyph-name="egrave" unicode="&#xe8;" horiz-adv-x="466" 
d="M133 702l62 7l84 -141l-32 -5zM59 231q0 114 48.5 178.5t145.5 64.5q76 0 120 -47t44 -131q0 -10 -2 -36l-44 -46l-268 1q2 -92 39 -138t114 -46q44 0 74.5 8.5t61.5 26.5l15 -36q-34 -19 -68 -29t-84 -10q-196 0 -196 240zM371 254q5 18 5 47q0 61 -32.5 96.5
t-94.5 35.5q-77 0 -109 -45.5t-38 -138.5z" />
    <glyph glyph-name="uni1EBB" unicode="&#x1ebb;" horiz-adv-x="466" 
d="M220 615v22q50 0 69 8.5t19 33.5q0 19 -11 28.5t-37 9.5q-22 0 -51 -8l-10 30q31 13 69 13q40 0 59.5 -20t19.5 -53q0 -38 -23 -55t-66 -19v-39h-27zM59 231q0 114 48.5 178.5t145.5 64.5q76 0 120 -47t44 -131q0 -10 -2 -36l-44 -46l-268 1q2 -92 39 -138t114 -46
q44 0 74.5 8.5t61.5 26.5l15 -36q-34 -19 -68 -29t-84 -10q-196 0 -196 240zM371 254q5 18 5 47q0 61 -32.5 96.5t-94.5 35.5q-77 0 -109 -45.5t-38 -138.5z" />
    <glyph glyph-name="emacron" unicode="&#x113;" horiz-adv-x="466" 
d="M113 607h270v-41h-270v41zM59 231q0 114 48.5 178.5t145.5 64.5q76 0 120 -47t44 -131q0 -10 -2 -36l-44 -46l-268 1q2 -92 39 -138t114 -46q44 0 74.5 8.5t61.5 26.5l15 -36q-34 -19 -68 -29t-84 -10q-196 0 -196 240zM371 254q5 18 5 47q0 61 -32.5 96.5t-94.5 35.5
q-77 0 -109 -45.5t-38 -138.5z" />
    <glyph glyph-name="eogonek" unicode="&#x119;" horiz-adv-x="468" 
d="M311 -121.5q-21 20.5 -21 56.5t21 60q-23 -4 -56 -4q-196 0 -196 240q0 114 48.5 178.5t145.5 64.5q76 0 120 -47t44 -131q0 -10 -2 -36l-44 -46l-268 1q2 -92 39 -138t114 -46q44 0 74.5 8.5t61.5 26.5l15 -36q-6 -3 -12.5 -7t-14.5 -7q-26 -18 -37 -36.5t-11 -43.5
q0 -23 8 -36q19 -4 39 -4q18 0 41 5l8 -32q-25 -11 -56 -11q-40 0 -61 20.5zM371 254q5 18 5 47q0 61 -32.5 96.5t-94.5 35.5q-77 0 -109 -45.5t-38 -138.5z" />
    <glyph glyph-name="uni1EBD" unicode="&#x1ebd;" horiz-adv-x="466" 
d="M114 568q2 40 21 62.5t52 22.5q17 0 30.5 -7.5t33.5 -21.5q18 -13 28.5 -18.5t22.5 -5.5q39 0 46 53l31 -9q-2 -40 -21 -62.5t-52 -22.5q-17 0 -32 7.5t-34 21.5q-30 24 -49 24q-39 0 -46 -53zM59 231q0 114 48.5 178.5t145.5 64.5q76 0 120 -47t44 -131q0 -10 -2 -36
l-44 -46l-268 1q2 -92 39 -138t114 -46q44 0 74.5 8.5t61.5 26.5l15 -36q-34 -19 -68 -29t-84 -10q-196 0 -196 240zM371 254q5 18 5 47q0 61 -32.5 96.5t-94.5 35.5q-77 0 -109 -45.5t-38 -138.5z" />
    <glyph glyph-name="f" unicode="f" horiz-adv-x="319" 
d="M105 426h-66l6 40h60v90q0 36 20.5 63.5t49.5 43.5q29 7 58 7q37 0 75 -14l-13 -38q-17 6 -31.5 8t-36.5 2q-36 0 -67 -9q-11 -31 -11 -68v-85h108l-5 -40h-103v-426h-44v426z" />
    <glyph glyph-name="g" unicode="g" horiz-adv-x="498" 
d="M90 -155l14 37q30 -14 66 -22t71 -8q45 0 76.5 7t56.5 22v137l3 60h-8q-61 -74 -145 -74q-83 0 -123.5 60.5t-40.5 163.5q0 246 173 246q86 0 136 -78h6l4 73h38v-531q0 -66 -46 -96t-127 -30q-88 0 -154 33zM372 121v232q-58 81 -135 81q-71 0 -101.5 -51t-30.5 -151
q0 -94 31 -141t96 -47q81 0 140 77z" />
    <glyph glyph-name="gbreve" unicode="&#x11f;" horiz-adv-x="498" 
d="M141 661l45 8q7 -35 23 -52t54 -17t54 17t23 52l45 -8q-20 -100 -122 -100t-122 100zM90 -155l14 37q30 -14 66 -22t71 -8q45 0 76.5 7t56.5 22v137l3 60h-8q-61 -74 -145 -74q-83 0 -123.5 60.5t-40.5 163.5q0 246 173 246q86 0 136 -78h6l4 74h38v-532q0 -66 -46 -96
t-127 -30q-88 0 -154 33zM372 121v232q-58 81 -135 81q-71 0 -101.5 -51t-30.5 -151q0 -94 31 -141t96 -47q81 0 140 77z" />
    <glyph glyph-name="gcaron" unicode="&#x1e7;" horiz-adv-x="498" 
d="M134 697l30 7l94 -98h5l93 98l30 -7l-101 -131h-49zM90 -155l14 37q30 -14 66 -22t71 -8q45 0 76.5 7t56.5 22v137l3 60h-8q-61 -74 -145 -74q-83 0 -123.5 60.5t-40.5 163.5q0 246 173 246q86 0 136 -78h6l4 74h38v-532q0 -66 -46 -96t-127 -30q-88 0 -154 33zM372 121
v232q-58 81 -135 81q-71 0 -101.5 -51t-30.5 -151q0 -94 31 -141t96 -47q81 0 140 77z" />
    <glyph glyph-name="gcircumflex" unicode="&#x11d;" horiz-adv-x="498" 
d="M130 565l102 132h49l101 -132l-30 -6l-93 98h-5l-94 -98zM90 -155l14 37q30 -14 66 -22t71 -8q45 0 76.5 7t56.5 22v137l3 60h-8q-61 -74 -145 -74q-83 0 -123.5 60.5t-40.5 163.5q0 246 173 246q86 0 136 -78h6l4 74h38v-532q0 -66 -46 -96t-127 -30q-88 0 -154 33z
M372 121v232q-58 81 -135 81q-71 0 -101.5 -51t-30.5 -151q0 -94 31 -141t96 -47q81 0 140 77z" />
    <glyph glyph-name="gcommaaccent" unicode="&#x123;" horiz-adv-x="498" 
d="M241 566q18 33 27 65t9 75h-55v33q17 6 38 6q56 0 56 -61q0 -68 -45 -125zM90 -155l14 37q30 -14 66 -22t71 -8q45 0 76.5 7t56.5 22v137l3 60h-8q-61 -74 -145 -74q-83 0 -123.5 60.5t-40.5 163.5q0 246 173 246q86 0 136 -78h6l4 74h38v-532q0 -66 -46 -96t-127 -30
q-88 0 -154 33zM372 121v232q-58 81 -135 81q-71 0 -101.5 -51t-30.5 -151q0 -94 31 -141t96 -47q81 0 140 77z" />
    <glyph glyph-name="gdotaccent" unicode="&#x121;" horiz-adv-x="498" 
d="M228.5 571.5q-11.5 10.5 -11.5 29.5q0 42 44 42q42 0 42 -42q0 -19 -11 -29.5t-31 -10.5q-21 0 -32.5 10.5zM90 -155l14 37q30 -14 66 -22t71 -8q45 0 76.5 7t56.5 22v137l3 60h-8q-61 -74 -145 -74q-83 0 -123.5 60.5t-40.5 163.5q0 246 173 246q86 0 136 -78h6l4 74h38
v-532q0 -66 -46 -96t-127 -30q-88 0 -154 33zM372 121v232q-58 81 -135 81q-71 0 -101.5 -51t-30.5 -151q0 -94 31 -141t96 -47q81 0 140 77z" />
    <glyph glyph-name="uni1E21" unicode="&#x1e21;" horiz-adv-x="498" 
d="M121 606h270v-40h-270v40zM90 -155l14 37q30 -14 66 -22t71 -8q45 0 76.5 7t56.5 22v137l3 60h-8q-61 -74 -145 -74q-83 0 -123.5 60.5t-40.5 163.5q0 246 173 246q86 0 136 -78h6l4 74h38v-532q0 -66 -46 -96t-127 -30q-88 0 -154 33zM372 121v232q-58 81 -135 81
q-71 0 -101.5 -51t-30.5 -151q0 -94 31 -141t96 -47q81 0 140 77z" />
    <glyph glyph-name="h" unicode="h" horiz-adv-x="510" 
d="M85 667h45v-182l-4 -88h6q83 77 181 77q58 0 87.5 -21.5t29.5 -69.5v-383h-45v420q-38 13 -81 13q-49 0 -95.5 -20t-78.5 -53v-360h-45v667z" />
    <glyph glyph-name="hbar" unicode="&#x127;" horiz-adv-x="511" 
d="M86 550h-65v37h65v80h44v-80h134v-37h-134v-65l-3 -88h6q82 77 180 77q59 0 88 -21.5t29 -69.5v-383h-44v420q-38 13 -81 13q-49 0 -95.5 -20t-79.5 -53v-360h-44v550z" />
    <glyph glyph-name="uni1E2B" unicode="&#x1e2b;" horiz-adv-x="510" 
d="M85 667h45v-182l-4 -88h6q83 77 181 77q58 0 87.5 -21.5t29.5 -69.5v-383h-45v420q-38 13 -81 13q-49 0 -95.5 -20t-78.5 -53v-360h-45v667zM133 -56l45 8q7 -35 23 -52.5t54 -17.5t54 17.5t23 52.5l45 -8q-19 -101 -122 -101t-122 101z" />
    <glyph glyph-name="hcircumflex" unicode="&#x125;" horiz-adv-x="510" 
d="M146 717l102 132h49l101 -132l-30 -7l-93 98h-5l-94 -98zM85 667h45v-182l-4 -88h6q83 77 181 77q58 0 87.5 -21.5t29.5 -69.5v-383h-45v420q-38 13 -81 13q-49 0 -95.5 -20t-78.5 -53v-360h-45v667z" />
    <glyph glyph-name="uni1E25" unicode="&#x1e25;" horiz-adv-x="510" 
d="M85 667h45v-182l-4 -88h6q83 77 181 77q58 0 87.5 -21.5t29.5 -69.5v-383h-45v420q-38 13 -81 13q-49 0 -95.5 -20t-78.5 -53v-360h-45v667zM223.5 -141.5q-11.5 10.5 -11.5 29.5q0 20 11.5 31t32.5 11q20 0 31 -11t11 -31q0 -19 -11 -29.5t-31 -10.5q-21 0 -32.5 10.5z
" />
    <glyph glyph-name="i" unicode="i" horiz-adv-x="214" 
d="M84 643h46v-89h-46v89zM85 465h44v-465h-44v465z" />
    <glyph glyph-name="dotlessi" unicode="&#x131;" horiz-adv-x="218" 
d="M87 465h44v-465h-44v465z" />
    <glyph glyph-name="iacute" unicode="&#xed;" horiz-adv-x="225" 
d="M89 568l84 141l62 -7l-114 -139zM87 465h44v-465h-44v465z" />
    <glyph glyph-name="ibreve" unicode="&#x12d;" horiz-adv-x="225" 
d="M-9 661l45 8q7 -35 23 -52t54 -17t54 17t23 52l45 -8q-20 -100 -122 -100t-122 100zM90 465h44v-465h-44v465z" />
    <glyph glyph-name="uni01D0" unicode="&#x1d0;" horiz-adv-x="225" 
d="M-18 697l30 7l94 -98h5l93 98l31 -7l-102 -131h-49zM87 469h44v-469h-44v469z" />
    <glyph glyph-name="icircumflex" unicode="&#xee;" horiz-adv-x="225" 
d="M-13 565l102 132h48l102 -132l-31 -6l-92 98h-6l-93 -98zM90 465h44v-465h-44v465z" />
    <glyph glyph-name="idieresis" unicode="&#xef;" horiz-adv-x="225" 
d="M10 569q-9 8 -9 23t9 23.5t24 8.5t23.5 -8t8.5 -24q0 -15 -8.5 -23t-23.5 -8t-24 8zM167 569q-9 8 -9 23q0 16 9 24t25 8q15 0 23.5 -8t8.5 -24q0 -15 -8.5 -23t-23.5 -8q-16 0 -25 8zM90 465h44v-465h-44v465z" />
    <glyph glyph-name="uni1ECB" unicode="&#x1ecb;" horiz-adv-x="224" 
d="M90 643h46v-89h-46v89zM90 464h44v-464h-44v464zM80.5 -141.5q-11.5 10.5 -11.5 29.5q0 20 11.5 31t32.5 11q20 0 31 -11t11 -31q0 -19 -11 -29.5t-31 -10.5q-21 0 -32.5 10.5z" />
    <glyph glyph-name="igrave" unicode="&#xec;" horiz-adv-x="225" 
d="M-18 702l63 7l83 -141l-31 -5zM87 465h44v-465h-44v465z" />
    <glyph glyph-name="uni1EC9" unicode="&#x1ec9;" horiz-adv-x="229" 
d="M86 615v22q50 0 69 8.5t19 33.5q0 19 -11 28.5t-37 9.5q-22 0 -51 -8l-10 30q31 13 69 13q40 0 59.5 -20t19.5 -53q0 -38 -23 -55t-66 -19v-39h-27zM88 469h44v-469h-44v469z" />
    <glyph glyph-name="ij" unicode="&#x133;" horiz-adv-x="440" 
d="M84 643h46v-89h-46v89zM312 643h46v-89h-46v89zM85 465h44v-465h-44v465zM160 -175l10 39q35 -9 72 -9q34 0 61 9q6 16 7.5 32.5t1.5 42.5v526h44v-530q0 -58 -29.5 -90t-85.5 -32q-43 0 -81 12z" />
    <glyph glyph-name="imacron" unicode="&#x12b;" horiz-adv-x="225" 
d="M-24 606h271v-40h-271v40zM90 465h44v-465h-44v465z" />
    <glyph glyph-name="iogonek" unicode="&#x12f;" horiz-adv-x="214" 
d="M130 554h-46v89h46v-89zM164 -155q-24 -11 -56 -11q-40 0 -61 20.5t-21 56.5q0 54 59 84v470h44v-470q-34 -15 -47.5 -33.5t-13.5 -49.5q0 -18 8 -36q19 -4 40 -4q16 0 41 5z" />
    <glyph glyph-name="itilde" unicode="&#x129;" horiz-adv-x="225" 
d="M-20 534q2 40 21 62.5t52 22.5q17 0 30.5 -7.5t33.5 -21.5q18 -13 28.5 -18.5t22.5 -5.5q39 0 46 53l31 -9q-2 -40 -21 -62.5t-52 -22.5q-17 0 -31 7.5t-36 22.5q-17 13 -27 18.5t-21 5.5q-39 0 -46 -54zM90 465h44v-465h-44v465z" />
    <glyph glyph-name="j" unicode="j" horiz-adv-x="255" 
d="M129 643h46v-89h-46v89zM-23 -175l10 39q33 -9 71 -9q34 0 61 9q6 16 8 32.5t2 42.5v527h44v-531q0 -58 -30 -90t-86 -32q-43 0 -80 12z" />
    <glyph glyph-name="uni0237" unicode="&#x237;" horiz-adv-x="254" 
d="M-23 -175l10 39q33 -9 71 -9q34 0 61 9q6 16 8 32.5t2 42.5v525h44v-529q0 -58 -30 -90t-86 -32q-43 0 -80 12z" />
    <glyph glyph-name="jcircumflex" unicode="&#x135;" horiz-adv-x="316" 
d="M78 566l102 131h49l101 -131l-30 -7l-93 98h-5l-94 -98zM31 -175l10 39q35 -9 72 -9q34 0 61 9q6 16 7.5 32.5t1.5 42.5v526h44v-530q0 -58 -29.5 -90t-85.5 -32q-44 0 -81 12z" />
    <glyph glyph-name="k" unicode="k" horiz-adv-x="480" 
d="M370 25l-48 108q-22 50 -50.5 72t-79.5 22h-67v-227h-44v667h44v-401h62q53 0 80 22t47 64l53 119l44 -16l-56 -120q-16 -35 -36 -54.5t-56 -30.5v-6q38 -12 59 -31.5t38 -57.5l56 -125l39 -6v-25q-22 -5 -36 -5q-35 0 -49 31z" />
    <glyph glyph-name="kcommaaccent" unicode="&#x137;" horiz-adv-x="480" 
d="M370 25l-48 108q-22 50 -50.5 72t-79.5 22h-67v-227h-44v644h44v-378h62q53 0 80 22t47 64l53 119l44 -16l-56 -120q-16 -35 -36 -54.5t-56 -30.5v-6q38 -12 59 -31.5t38 -57.5l56 -125l39 -6v-25q-22 -5 -36 -5q-35 0 -49 31zM218 -228q18 33 27 65t9 75h-55v33
q19 7 38 7q56 0 56 -62q0 -68 -45 -125z" />
    <glyph glyph-name="kgreenlandic" unicode="&#x138;" horiz-adv-x="495" 
d="M388.5 3q-10.5 7 -17.5 23l-46 102q-15 35 -29.5 55t-39 32t-64.5 12h-67v-227h-44v477h44v-211h62q58 0 85 20.5t44 60.5l54 127l44 -14l-55 -126q-14 -33 -33.5 -52t-55.5 -33v-6q37 -12 56 -30.5t36 -57.5l53 -123l34 -8v-23q-14 -5 -33 -5q-17 0 -27.5 7z" />
    <glyph glyph-name="l" unicode="l" horiz-adv-x="263" 
d="M99 27q-20 22 -20 42v598h44v-587q0 -18 2 -27.5t8 -20.5h15l66 31l20 -25q-38 -36 -92 -45q-23 12 -43 34z" />
    <glyph glyph-name="lacute" unicode="&#x13a;" horiz-adv-x="265" 
d="M79 714l84 140l62 -6l-114 -140zM99 27q-20 22 -20 42v598h44v-587q0 -18 2 -27.5t8 -20.5h15l66 31l20 -25q-38 -36 -92 -45q-23 12 -43 34z" />
    <glyph glyph-name="lcaron" unicode="&#x13e;" horiz-adv-x="300" 
d="M99 27q-20 22 -20 42v598h44v-587q0 -18 2 -27.5t8 -20.5h15l66 31l20 -25q-38 -36 -92 -45q-23 12 -43 34zM207 481q18 33 27 65.5t9 75.5h-55v33q17 6 38 6q56 0 56 -62q0 -68 -45 -125z" />
    <glyph glyph-name="lcommaaccent" unicode="&#x13c;" horiz-adv-x="263" 
d="M99 27q-20 22 -20 42v598h44v-587q0 -18 2 -27.5t8 -20.5h15l66 31l20 -25q-38 -36 -92 -45q-23 12 -43 34zM117 -228q18 33 27 65t9 75h-55v33q19 7 38 7q56 0 56 -62q0 -68 -45 -125z" />
    <glyph glyph-name="ldot" unicode="&#x140;" horiz-adv-x="291" 
d="M99 27q-20 22 -20 42v598h44v-587q0 -18 2 -27.5t8 -20.5h15l66 31l20 -25q-38 -36 -92 -45q-23 12 -43 34zM217.5 262.5q-11.5 10.5 -11.5 29.5q0 20 12 31.5t31 11.5q20 0 31.5 -11.5t11.5 -31.5q0 -19 -11.5 -29.5t-31.5 -10.5t-31.5 10.5z" />
    <glyph glyph-name="uni1E37" unicode="&#x1e37;" horiz-adv-x="263" 
d="M99 27q-20 22 -20 42v598h44v-587q0 -18 2 -27.5t8 -20.5h15l66 31l20 -25q-38 -36 -92 -45q-23 12 -43 34zM105.5 -133.5q-11.5 10.5 -11.5 29.5q0 21 11.5 32t32.5 11q20 0 31 -11t11 -32q0 -19 -11 -29.5t-31 -10.5q-21 0 -32.5 10.5z" />
    <glyph glyph-name="uni1E39" unicode="&#x1e39;" horiz-adv-x="269" 
d="M-22 755h270v-41h-270v41zM99 27q-20 22 -20 42v598h44v-587q0 -18 2 -27.5t8 -20.5h15l66 31l20 -25q-38 -36 -92 -45q-23 12 -43 34zM107.5 -133.5q-11.5 10.5 -11.5 29.5q0 21 11.5 32t32.5 11q20 0 31 -11t11 -32q0 -19 -11 -29.5t-31 -10.5q-21 0 -32.5 10.5z" />
    <glyph glyph-name="uni1E3B" unicode="&#x1e3b;" horiz-adv-x="294" 
d="M103 27q-20 22 -20 42v598h44v-587q0 -18 2 -27.5t8 -20.5h15l66 31l20 -25q-38 -36 -92 -45q-23 12 -43 34zM71 -72h301v-44h-301v44z" />
    <glyph glyph-name="lslash" unicode="&#x142;" horiz-adv-x="283" 
d="M115 27.5q-20 22.5 -20 42.5v234l-105 -34l-12 38l117 38v314h44v-300l107 35l12 -37l-119 -39v-238q0 -19 2 -28t8 -20h15l66 30l20 -25q-37 -35 -92 -44q-23 11 -43 33.5z" />
    <glyph glyph-name="m" unicode="m" horiz-adv-x="794" 
d="M84 466h37l4 -67h7q82 75 174 75q53 0 80.5 -18t30.5 -57h6q83 75 175 75q60 0 87.5 -21t27.5 -72v-381h-44v419q-20 7 -36.5 10.5t-40.5 3.5q-46 0 -91.5 -18t-79.5 -51v-364h-45v419q-20 7 -36.5 10.5t-39.5 3.5q-47 0 -92 -18t-79 -52v-363h-45v466z" />
    <glyph glyph-name="uni1E43" unicode="&#x1e43;" horiz-adv-x="794" 
d="M84 466h37l4 -67h7q82 75 174 75q53 0 80.5 -18t30.5 -57h6q83 75 175 75q60 0 87.5 -21t27.5 -72v-381h-44v419q-20 7 -36.5 10.5t-40.5 3.5q-46 0 -91.5 -18t-79.5 -51v-364h-45v419q-20 7 -36.5 10.5t-39.5 3.5q-47 0 -92 -18t-79 -52v-363h-45v466zM366.5 -133.5
q-11.5 10.5 -11.5 29.5q0 21 11.5 32t32.5 11q20 0 31 -11t11 -32q0 -19 -11 -29.5t-31 -10.5q-21 0 -32.5 10.5z" />
    <glyph glyph-name="n" unicode="n" horiz-adv-x="510" 
d="M84 466h37l3 -69h7q83 77 181 77q58 0 87.5 -21.5t29.5 -69.5v-383h-45v420q-38 13 -81 13q-49 0 -95.5 -20t-78.5 -53v-360h-45v466z" />
    <glyph glyph-name="nacute" unicode="&#x144;" horiz-adv-x="510" 
d="M244 565l84 141l62 -7l-114 -139zM84 466h37l3 -69h7q83 77 181 77q58 0 87.5 -21.5t29.5 -69.5v-383h-45v420q-38 13 -81 13q-49 0 -95.5 -20t-78.5 -53v-360h-45v466z" />
    <glyph glyph-name="napostrophe" unicode="&#x149;" horiz-adv-x="597" 
d="M33 312q18 34 27 66t9 75h-55v33q16 6 38 6q56 0 56 -62q0 -67 -45 -124zM172 466h37l3 -69h7q83 77 181 77q58 0 87.5 -21.5t29.5 -69.5v-383h-45v420q-38 13 -81 13q-49 0 -95.5 -20t-78.5 -53v-360h-45v466z" />
    <glyph glyph-name="ncaron" unicode="&#x148;" horiz-adv-x="510" 
d="M144 697l30 7l94 -98h5l93 98l30 -7l-101 -131h-49zM85 466h37l3 -69h7q83 77 181 77q58 0 87.5 -21.5t29.5 -69.5v-383h-45v420q-38 13 -81 13q-49 0 -95.5 -20t-78.5 -53v-360h-45v466z" />
    <glyph glyph-name="ncommaaccent" unicode="&#x146;" horiz-adv-x="510" 
d="M84 466h37l3 -69h7q83 77 181 77q58 0 87.5 -21.5t29.5 -69.5v-383h-45v420q-38 13 -81 13q-49 0 -95.5 -20t-78.5 -53v-360h-45v466zM246 -228q18 33 27 65t9 75h-55v33q19 7 38 7q56 0 56 -62q0 -68 -45 -125z" />
    <glyph glyph-name="uni1E45" unicode="&#x1e45;" horiz-adv-x="510" 
d="M238.5 571.5q-11.5 10.5 -11.5 29.5q0 42 44 42q42 0 42 -42q0 -19 -11 -29.5t-31 -10.5q-21 0 -32.5 10.5zM84 466h37l3 -69h7q83 77 181 77q58 0 87.5 -21.5t29.5 -69.5v-383h-45v420q-38 13 -81 13q-49 0 -95.5 -20t-78.5 -53v-360h-45v466z" />
    <glyph glyph-name="uni1E47" unicode="&#x1e47;" horiz-adv-x="510" 
d="M84 466h37l3 -69h7q83 77 181 77q58 0 87.5 -21.5t29.5 -69.5v-383h-45v420q-38 13 -81 13q-49 0 -95.5 -20t-78.5 -53v-360h-45v466zM237.5 -133.5q-11.5 10.5 -11.5 29.5q0 21 11.5 32t32.5 11q20 0 31 -11t11 -32q0 -19 -11 -29.5t-31 -10.5q-21 0 -32.5 10.5z" />
    <glyph glyph-name="eng" unicode="&#x14b;" horiz-adv-x="510" 
d="M261 -171q73 21 115 51q8 27 8 69v471q-38 13 -81 13q-49 0 -95.5 -20t-78.5 -53v-360h-45v466h37l3 -69h7q83 77 181 77q58 0 87.5 -21.5t29.5 -69.5v-419q0 -68 -32.5 -109.5t-112.5 -72.5z" />
    <glyph glyph-name="uni1E49" unicode="&#x1e49;" horiz-adv-x="510" 
d="M84 466h37l3 -69h7q83 77 181 77q58 0 87.5 -21.5t29.5 -69.5v-383h-45v420q-38 13 -81 13q-49 0 -95.5 -20t-78.5 -53v-360h-45v466zM119 -72h301v-44h-301v44z" />
    <glyph glyph-name="ntilde" unicode="&#xf1;" horiz-adv-x="510" 
d="M125 570q2 40 21 62t52 22q17 0 30.5 -7.5t33.5 -21.5q18 -13 28.5 -18.5t22.5 -5.5q39 0 46 54l31 -10q-2 -40 -21 -62t-52 -22q-17 0 -32 7.5t-34 21.5q-30 24 -49 24q-39 0 -46 -54zM84 466h37l3 -69h7q83 77 181 77q58 0 87.5 -21.5t29.5 -69.5v-383h-45v420
q-38 13 -81 13q-49 0 -95.5 -20t-78.5 -53v-360h-45v466z" />
    <glyph glyph-name="o" unicode="o" horiz-adv-x="498" 
d="M103 53q-45 62 -45 174q0 118 45 186t157 68q90 0 135 -63.5t45 -175.5q0 -117 -45 -184t-157 -67q-90 0 -135 62zM358 55q17 28 27 75.5t10 100.5q0 107 -34.5 157.5t-112.5 50.5q-68 0 -109 -24q-17 -28 -27 -76.5t-10 -102.5q0 -106 34.5 -155.5t112.5 -49.5
q66 0 109 24z" />
    <glyph glyph-name="oacute" unicode="&#xf3;" horiz-adv-x="498" 
d="M229 568l84 141l62 -7l-114 -139zM103 53q-45 62 -45 174q0 118 45 186t157 68q90 0 135 -63.5t45 -175.5q0 -117 -45 -184t-157 -67q-90 0 -135 62zM358 55q17 28 27 75.5t10 100.5q0 107 -34.5 157.5t-112.5 50.5q-68 0 -109 -24q-17 -28 -27 -76.5t-10 -102.5
q0 -106 34.5 -155.5t112.5 -49.5q66 0 109 24z" />
    <glyph glyph-name="obreve" unicode="&#x14f;" horiz-adv-x="498" 
d="M126 661l45 8q7 -35 23 -52t54 -17t54 17t23 52l45 -8q-20 -100 -122 -100t-122 100zM103 53q-45 62 -45 174q0 118 45 186t157 68q90 0 135 -63.5t45 -175.5q0 -117 -45 -184t-157 -67q-90 0 -135 62zM358 55q17 28 27 75.5t10 100.5q0 107 -34.5 157.5t-112.5 50.5
q-68 0 -109 -24q-17 -28 -27 -76.5t-10 -102.5q0 -106 34.5 -155.5t112.5 -49.5q66 0 109 24z" />
    <glyph glyph-name="uni01D2" unicode="&#x1d2;" horiz-adv-x="498" 
d="M121 697l30 7l94 -98h5l93 98l30 -7l-101 -131h-49zM103 53q-45 62 -45 174q0 118 45 186t157 68q90 0 135 -63.5t45 -175.5q0 -117 -45 -184t-157 -67q-90 0 -135 62zM358 55q17 28 27 75.5t10 100.5q0 107 -34.5 157.5t-112.5 50.5q-68 0 -109 -24q-17 -28 -27 -76.5
t-10 -102.5q0 -106 34.5 -155.5t112.5 -49.5q66 0 109 24z" />
    <glyph glyph-name="ocircumflex" unicode="&#xf4;" horiz-adv-x="498" 
d="M122 565l102 132h49l101 -132l-30 -6l-93 98h-5l-94 -98zM103 53q-45 62 -45 174q0 118 45 186t157 68q90 0 135 -63.5t45 -175.5q0 -117 -45 -184t-157 -67q-90 0 -135 62zM358 55q17 28 27 75.5t10 100.5q0 107 -34.5 157.5t-112.5 50.5q-68 0 -109 -24
q-17 -28 -27 -76.5t-10 -102.5q0 -106 34.5 -155.5t112.5 -49.5q66 0 109 24z" />
    <glyph glyph-name="uni1ED1" unicode="&#x1ed1;" horiz-adv-x="498" 
d="M381 653l61 103l48 -8l-81 -102zM126 565l102 131h49l101 -131l-30 -7l-93 98h-5l-94 -98zM103 53q-45 62 -45 174q0 118 45 186t157 68q90 0 135 -63.5t45 -175.5q0 -117 -45 -184t-157 -67q-90 0 -135 62zM358 55q17 28 27 75.5t10 100.5q0 107 -34.5 157.5
t-112.5 50.5q-68 0 -109 -24q-17 -28 -27 -76.5t-10 -102.5q0 -106 34.5 -155.5t112.5 -49.5q66 0 109 24z" />
    <glyph glyph-name="uni1ED9" unicode="&#x1ed9;" horiz-adv-x="498" 
d="M122 565l102 132h49l101 -132l-30 -6l-93 98h-5l-94 -98zM103 53q-45 62 -45 174q0 118 45 186t157 68q90 0 135 -63.5t45 -175.5q0 -117 -45 -184t-157 -67q-90 0 -135 62zM358 55q17 28 27 75.5t10 100.5q0 107 -34.5 157.5t-112.5 50.5q-68 0 -109 -24
q-17 -28 -27 -76.5t-10 -102.5q0 -106 34.5 -155.5t112.5 -49.5q66 0 109 24zM217.5 -141.5q-11.5 10.5 -11.5 29.5q0 20 11.5 31t32.5 11q20 0 31 -11t11 -31q0 -19 -11 -29.5t-31 -10.5q-21 0 -32.5 10.5z" />
    <glyph glyph-name="uni1ED3" unicode="&#x1ed3;" horiz-adv-x="498" 
d="M20 749l47 8l62 -103l-28 -7zM129 566l102 131h48l102 -131l-30 -7l-93 98h-6l-92 -98zM103 53q-45 62 -45 174q0 118 45 186t157 68q90 0 135 -63.5t45 -175.5q0 -117 -45 -184t-157 -67q-90 0 -135 62zM358 55q17 28 27 75.5t10 100.5q0 107 -34.5 157.5t-112.5 50.5
q-68 0 -109 -24q-17 -28 -27 -76.5t-10 -102.5q0 -106 34.5 -155.5t112.5 -49.5q66 0 109 24z" />
    <glyph glyph-name="uni1ED5" unicode="&#x1ed5;" horiz-adv-x="498" 
d="M370 706v20q35 0 48.5 6t13.5 20q0 13 -7.5 19t-24.5 6q-16 0 -39 -7l-7 26q26 10 51 10q29 0 44 -14t15 -40q0 -49 -62 -51v-36h-23zM122 565l102 132h49l101 -132l-30 -6l-93 98h-5l-94 -98zM103 53q-45 62 -45 174q0 118 45 186t157 68q90 0 135 -63.5t45 -175.5
q0 -117 -45 -184t-157 -67q-90 0 -135 62zM358 55q17 28 27 75.5t10 100.5q0 107 -34.5 157.5t-112.5 50.5q-68 0 -109 -24q-17 -28 -27 -76.5t-10 -102.5q0 -106 34.5 -155.5t112.5 -49.5q66 0 109 24z" />
    <glyph glyph-name="uni1ED7" unicode="&#x1ed7;" horiz-adv-x="498" 
d="M137 763q10 63 63 63q17 0 30 -5t29 -15q9 -5 17.5 -9t15.5 -4q18 0 28 9t15 28l26 -8q-8 -63 -62 -63q-15 0 -26.5 4.5t-25.5 13.5q-12 8 -21 11.5t-19 3.5q-19 0 -29 -9t-15 -28zM124 565l102 132h49l101 -132l-30 -6l-93 98h-5l-94 -98zM103 53q-45 62 -45 174
q0 118 45 186t157 68q90 0 135 -63.5t45 -175.5q0 -117 -45 -184t-157 -67q-90 0 -135 62zM358 55q17 28 27 75.5t10 100.5q0 107 -34.5 157.5t-112.5 50.5q-68 0 -109 -24q-17 -28 -27 -76.5t-10 -102.5q0 -106 34.5 -155.5t112.5 -49.5q66 0 109 24z" />
    <glyph glyph-name="odieresis" unicode="&#xf6;" horiz-adv-x="498" 
d="M145 569q-9 8 -9 23t9 23.5t24 8.5t23.5 -8t8.5 -24q0 -15 -8.5 -23t-23.5 -8t-24 8zM302 569q-9 8 -9 23q0 16 9 24t25 8q15 0 23.5 -8t8.5 -24q0 -15 -8.5 -23t-23.5 -8q-16 0 -25 8zM103 53q-45 62 -45 174q0 118 45 186t157 68q90 0 135 -63.5t45 -175.5
q0 -117 -45 -184t-157 -67q-90 0 -135 62zM358 55q17 28 27 75.5t10 100.5q0 107 -34.5 157.5t-112.5 50.5q-68 0 -109 -24q-17 -28 -27 -76.5t-10 -102.5q0 -106 34.5 -155.5t112.5 -49.5q66 0 109 24z" />
    <glyph glyph-name="uni1ECD" unicode="&#x1ecd;" horiz-adv-x="498" 
d="M103 53q-45 62 -45 174q0 118 45 186t157 68q90 0 135 -63.5t45 -175.5q0 -117 -45 -184t-157 -67q-90 0 -135 62zM358 55q17 28 27 75.5t10 100.5q0 107 -34.5 157.5t-112.5 50.5q-68 0 -109 -24q-17 -28 -27 -76.5t-10 -102.5q0 -106 34.5 -155.5t112.5 -49.5
q66 0 109 24zM216.5 -141.5q-11.5 10.5 -11.5 29.5q0 20 11.5 31t32.5 11q20 0 31 -11t11 -31q0 -19 -11 -29.5t-31 -10.5q-21 0 -32.5 10.5z" />
    <glyph glyph-name="ograve" unicode="&#xf2;" horiz-adv-x="498" 
d="M136 702l62 7l84 -141l-32 -5zM103 53q-45 62 -45 174q0 118 45 186t157 68q90 0 135 -63.5t45 -175.5q0 -117 -45 -184t-157 -67q-90 0 -135 62zM358 55q17 28 27 75.5t10 100.5q0 107 -34.5 157.5t-112.5 50.5q-68 0 -109 -24q-17 -28 -27 -76.5t-10 -102.5
q0 -106 34.5 -155.5t112.5 -49.5q66 0 109 24z" />
    <glyph glyph-name="uni1ECF" unicode="&#x1ecf;" horiz-adv-x="498" 
d="M221 615v22q50 0 69 8.5t19 33.5q0 19 -11 28.5t-37 9.5q-22 0 -51 -8l-10 30q31 13 69 13q40 0 59.5 -20t19.5 -53q0 -38 -23 -55t-66 -19v-39h-27zM103 53q-45 62 -45 174q0 118 45 186t157 68q90 0 135 -63.5t45 -175.5q0 -117 -45 -184t-157 -67q-90 0 -135 62z
M358 55q17 28 27 75.5t10 100.5q0 107 -34.5 157.5t-112.5 50.5q-68 0 -109 -24q-17 -28 -27 -76.5t-10 -102.5q0 -106 34.5 -155.5t112.5 -49.5q66 0 109 24z" />
    <glyph glyph-name="ohorn" unicode="&#x1a1;" horiz-adv-x="555" 
d="M102.5 56.5q-44.5 61.5 -44.5 172.5q0 118 45 185t157 67q59 0 98.5 -28t59.5 -80h13q31 34 43.5 71t14.5 96h46q-2 -78 -25 -125.5t-79 -82.5q9 -37 9 -88q0 -117 -44.5 -183t-157.5 -66q-91 0 -135.5 61.5zM358 59q17 28 27 74.5t10 100.5q0 106 -34.5 155.5
t-112.5 49.5q-68 0 -109 -24q-17 -28 -27 -75.5t-10 -100.5q0 -106 34.5 -155t112.5 -49q66 0 109 24z" />
    <glyph glyph-name="uni1EDB" unicode="&#x1edb;" horiz-adv-x="555" 
d="M243 565l84 140l62 -6l-114 -140zM102.5 56.5q-44.5 61.5 -44.5 172.5q0 118 45 185t157 67q59 0 98.5 -28t59.5 -80h13q31 34 43.5 71t14.5 96h46q-2 -78 -25 -125.5t-79 -82.5q9 -37 9 -88q0 -117 -44.5 -183t-157.5 -66q-91 0 -135.5 61.5zM358 59q17 28 27 74.5
t10 100.5q0 106 -34.5 155.5t-112.5 49.5q-68 0 -109 -24q-17 -28 -27 -75.5t-10 -100.5q0 -106 34.5 -155t112.5 -49q66 0 109 24z" />
    <glyph glyph-name="uni1EE3" unicode="&#x1ee3;" horiz-adv-x="555" 
d="M102.5 56.5q-44.5 61.5 -44.5 172.5q0 118 45 185t157 67q59 0 98.5 -28t59.5 -80h13q31 34 43.5 71t14.5 96h46q-2 -78 -25 -125.5t-79 -82.5q9 -37 9 -88q0 -117 -44.5 -183t-157.5 -66q-91 0 -135.5 61.5zM358 59q17 28 27 74.5t10 100.5q0 106 -34.5 155.5
t-112.5 49.5q-68 0 -109 -24q-17 -28 -27 -75.5t-10 -100.5q0 -106 34.5 -155t112.5 -49q66 0 109 24zM221.5 -141.5q-11.5 10.5 -11.5 29.5q0 20 11.5 31t32.5 11q20 0 31 -11t11 -31q0 -19 -11 -29.5t-31 -10.5q-21 0 -32.5 10.5z" />
    <glyph glyph-name="uni1EDD" unicode="&#x1edd;" horiz-adv-x="555" 
d="M141 700l62 6l84 -140l-32 -6zM102.5 56.5q-44.5 61.5 -44.5 172.5q0 118 45 185t157 67q59 0 98.5 -28t59.5 -80h13q31 34 43.5 71t14.5 96h46q-2 -78 -25 -125.5t-79 -82.5q9 -37 9 -88q0 -117 -44.5 -183t-157.5 -66q-91 0 -135.5 61.5zM358 59q17 28 27 74.5
t10 100.5q0 106 -34.5 155.5t-112.5 49.5q-68 0 -109 -24q-17 -28 -27 -75.5t-10 -100.5q0 -106 34.5 -155t112.5 -49q66 0 109 24z" />
    <glyph glyph-name="uni1EDF" unicode="&#x1edf;" horiz-adv-x="555" 
d="M227 615v22q50 0 69 8.5t19 33.5q0 19 -11 28.5t-37 9.5q-22 0 -51 -8l-10 30q31 13 69 13q40 0 59.5 -20t19.5 -53q0 -38 -23 -55t-66 -19v-39h-27zM102.5 56.5q-44.5 61.5 -44.5 172.5q0 118 45 185t157 67q59 0 98.5 -28t59.5 -80h13q31 34 43.5 71t14.5 96h46
q-2 -78 -25 -125.5t-79 -82.5q9 -37 9 -88q0 -117 -44.5 -183t-157.5 -66q-91 0 -135.5 61.5zM358 59q17 28 27 74.5t10 100.5q0 106 -34.5 155.5t-112.5 49.5q-68 0 -109 -24q-17 -28 -27 -75.5t-10 -100.5q0 -106 34.5 -155t112.5 -49q66 0 109 24z" />
    <glyph glyph-name="uni1EE1" unicode="&#x1ee1;" horiz-adv-x="555" 
d="M124 568q2 40 21 62.5t52 22.5q17 0 30.5 -7.5t33.5 -21.5q18 -13 28.5 -18.5t22.5 -5.5q39 0 46 53l31 -9q-2 -40 -21 -62.5t-52 -22.5q-17 0 -32 7.5t-34 21.5q-30 24 -49 24q-39 0 -46 -53zM102.5 56.5q-44.5 61.5 -44.5 172.5q0 118 45 185t157 67q59 0 98.5 -28
t59.5 -80h13q31 34 43.5 71t14.5 96h46q-2 -78 -25 -125.5t-79 -82.5q9 -37 9 -88q0 -117 -44.5 -183t-157.5 -66q-91 0 -135.5 61.5zM358 59q17 28 27 74.5t10 100.5q0 106 -34.5 155.5t-112.5 49.5q-68 0 -109 -24q-17 -28 -27 -75.5t-10 -100.5q0 -106 34.5 -155
t112.5 -49q66 0 109 24z" />
    <glyph glyph-name="ohungarumlaut" unicode="&#x151;" horiz-adv-x="498" 
d="M142 566q18 33 27 65t9 76h-55v33q22 6 37 6q57 0 57 -62q0 -68 -46 -125zM307 566q18 33 27 65t9 76h-55v33q22 6 38 6q56 0 56 -62q0 -68 -46 -125zM103 53q-45 62 -45 174q0 118 45 186t157 68q90 0 135 -63.5t45 -175.5q0 -117 -45 -184t-157 -67q-90 0 -135 62z
M358 55q17 28 27 75.5t10 100.5q0 107 -34.5 157.5t-112.5 50.5q-68 0 -109 -24q-17 -28 -27 -76.5t-10 -102.5q0 -106 34.5 -155.5t112.5 -49.5q66 0 109 24z" />
    <glyph glyph-name="omacron" unicode="&#x14d;" horiz-adv-x="498" 
d="M117 606h270v-40h-270v40zM103 53q-45 62 -45 174q0 118 45 186t157 68q90 0 135 -63.5t45 -175.5q0 -117 -45 -184t-157 -67q-90 0 -135 62zM358 55q17 28 27 75.5t10 100.5q0 107 -34.5 157.5t-112.5 50.5q-68 0 -109 -24q-17 -28 -27 -76.5t-10 -102.5
q0 -106 34.5 -155.5t112.5 -49.5q66 0 109 24z" />
    <glyph glyph-name="oslash" unicode="&#xf8;" horiz-adv-x="498" 
d="M440 242q0 -117 -45 -184t-157 -67q-40 0 -70 12l-49 -107l-40 10l54 117q-75 56 -75 204q0 118 45 186t157 68q43 0 76 -15l38 82l40 -9l-44 -95q70 -58 70 -202zM151 64l167 361q-31 14 -70 14q-68 0 -109 -24q-17 -28 -27 -76.5t-10 -102.5q0 -126 49 -172zM385 130.5
q10 47.5 10 100.5q0 120 -44 170l-165 -359q28 -11 63 -11q66 0 109 24q17 28 27 75.5z" />
    <glyph glyph-name="oslashacute" unicode="&#x1ff;" horiz-adv-x="498" 
d="M250 560l-32 6l84 140l62 -6zM440 242q0 -117 -45 -184t-157 -67q-40 0 -70 12l-49 -107l-40 10l54 117q-75 56 -75 204q0 118 45 186t157 68q43 0 76 -15l38 82l40 -9l-44 -95q70 -58 70 -202zM151 64l167 361q-31 14 -70 14q-68 0 -109 -24q-17 -28 -27 -76.5
t-10 -102.5q0 -126 49 -172zM385 130.5q10 47.5 10 100.5q0 120 -44 170l-165 -359q28 -11 63 -11q66 0 109 24q17 28 27 75.5z" />
    <glyph glyph-name="otilde" unicode="&#xf5;" horiz-adv-x="498" 
d="M117 570q2 40 21 62t52 22q17 0 30.5 -7.5t33.5 -21.5q18 -13 28.5 -18.5t22.5 -5.5q39 0 46 54l31 -10q-2 -40 -21 -62t-52 -22q-17 0 -32 7.5t-34 21.5q-30 24 -49 24q-39 0 -46 -54zM103 53q-45 62 -45 174q0 118 45 186t157 68q90 0 135 -63.5t45 -175.5
q0 -117 -45 -184t-157 -67q-90 0 -135 62zM358 55q17 28 27 75.5t10 100.5q0 107 -34.5 157.5t-112.5 50.5q-68 0 -109 -24q-17 -28 -27 -76.5t-10 -102.5q0 -106 34.5 -155.5t112.5 -49.5q66 0 109 24z" />
    <glyph glyph-name="oe" unicode="&#x153;" horiz-adv-x="802" 
d="M102.5 56.5q-44.5 61.5 -44.5 172.5q0 118 45 185t157 67q59 0 99 -29t60 -83h4q21 51 63 78t104 27q76 0 120 -47.5t44 -131.5q0 -11 -2 -35l-44 -46l-268 1q3 -91 39 -135t114 -44q43 0 74 8.5t62 26.5l15 -36q-35 -19 -69 -29.5t-84 -10.5q-128 0 -171 104h-6
q-43 -104 -176 -104q-91 0 -135.5 61.5zM358 59q16 29 26.5 73t10.5 94q0 112 -34.5 162.5t-112.5 50.5q-68 0 -109 -24q-17 -28 -27 -75.5t-10 -100.5q0 -106 34.5 -155t112.5 -49q66 0 109 24zM707 254q6 21 6 47q0 61 -33 96.5t-95 35.5q-76 0 -108.5 -46t-37.5 -138z
" />
    <glyph glyph-name="p" unicode="p" horiz-adv-x="519" 
d="M85 466h39l4 -68h8q40 38 79 57t85 19q161 0 161 -239q0 -110 -42 -173.5t-133 -63.5q-41 0 -81 16.5t-72 46.5h-6l3 -85v-163h-45v653zM382.5 88.5q31.5 50.5 31.5 148.5q0 102 -29 149.5t-97 47.5q-45 0 -86.5 -23.5t-72.5 -60.5v-245q63 -67 150 -67q72 0 103.5 50.5z
" />
    <glyph glyph-name="thorn" unicode="&#xfe;" horiz-adv-x="481" 
d="M86 672h47v-259h6q34 22 67 34t73 12q151 0 151 -193q0 -91 -39 -144t-116 -53q-76 0 -136 43h-6v-292h-47v852zM356 152.5q27 39.5 27 113.5q0 76 -25.5 112.5t-93.5 36.5q-65 0 -131 -42v-222q35 -19 65 -28.5t66 -9.5q65 0 92 39.5z" />
    <glyph glyph-name="q" unicode="q" horiz-adv-x="508" 
d="M379 -14l4 82h-7q-28 -31 -64 -50.5t-87 -19.5q-83 0 -126 61t-43 159q0 126 54 191.5t162 65.5q68 0 151 -25v-648h-44v184zM317 58q37 20 62 53v310q-54 13 -109 13q-86 0 -127 -51.5t-41 -161.5q0 -89 33 -136t99 -47q46 0 83 20z" />
    <glyph glyph-name="r" unicode="r" horiz-adv-x="350" 
d="M84 464h35l4 -87h7q24 42 64.5 67.5t91.5 25.5q7 0 16.5 -6.5t14.5 -13.5l-6 -32h-39q-52 0 -88.5 -23.5t-54.5 -65.5v-329h-45v464z" />
    <glyph glyph-name="racute" unicode="&#x155;" horiz-adv-x="358" 
d="M159 566l84 140l62 -6l-114 -140zM84 464h35l4 -87h7q24 42 64.5 67.5t91.5 25.5q7 0 16.5 -6.5t14.5 -13.5l-6 -32h-39q-52 0 -88.5 -23.5t-54.5 -65.5v-329h-45v464z" />
    <glyph glyph-name="rcaron" unicode="&#x159;" horiz-adv-x="358" 
d="M68 697l30 7l94 -98h5l93 98l30 -7l-101 -131h-49zM85 464h35l4 -87h7q24 42 64.5 67.5t91.5 25.5q7 0 16.5 -6.5t14.5 -13.5l-6 -32h-39q-52 0 -88.5 -23.5t-54.5 -65.5v-329h-45v464z" />
    <glyph glyph-name="rcommaaccent" unicode="&#x157;" horiz-adv-x="359" 
d="M85 464h35l4 -87h7q24 42 64.5 67.5t91.5 25.5q7 0 16.5 -6.5t14.5 -13.5l-6 -32h-39q-52 0 -88.5 -23.5t-54.5 -65.5v-329h-45v464zM100 -228q18 33 27 65t9 75h-55v33q19 7 38 7q56 0 56 -62q0 -68 -45 -125z" />
    <glyph glyph-name="uni1E5B" unicode="&#x1e5b;" horiz-adv-x="368" 
d="M95 464h35l4 -87h7q24 42 64.5 67.5t91.5 25.5q7 0 16.5 -6.5t14.5 -13.5l-6 -32h-39q-52 0 -88.5 -23.5t-54.5 -65.5v-329h-45v464zM86.5 -133.5q-11.5 10.5 -11.5 29.5q0 21 11.5 32t32.5 11q20 0 31 -11t11 -32q0 -19 -11 -29.5t-31 -10.5q-21 0 -32.5 10.5z" />
    <glyph glyph-name="uni1E5D" unicode="&#x1e5d;" horiz-adv-x="378" 
d="M97 607h270v-41h-270v41zM95 464h35l4 -87h7q24 42 64.5 67.5t91.5 25.5q7 0 16.5 -6.5t14.5 -13.5l-6 -32h-39q-52 0 -88.5 -23.5t-54.5 -65.5v-329h-45v464zM86.5 -133.5q-11.5 10.5 -11.5 29.5q0 21 11.5 32t32.5 11q20 0 31 -11t11 -32q0 -19 -11 -29.5t-31 -10.5
q-21 0 -32.5 10.5z" />
    <glyph glyph-name="uni1E5F" unicode="&#x1e5f;" horiz-adv-x="360" 
d="M89 464h35l4 -87h7q24 42 64.5 67.5t91.5 25.5q7 0 16.5 -6.5t14.5 -13.5l-6 -32h-39q-52 0 -88.5 -23.5t-54.5 -65.5v-329h-45v464zM82 -72h301v-44h-301v44z" />
    <glyph glyph-name="s" unicode="s" horiz-adv-x="411" 
d="M53 21l15 38q34 -15 67 -22t72 -7q52 0 94 14q13 32 13 72q0 31 -9 48t-29.5 27.5t-62.5 20.5q-79 18 -116.5 46t-37.5 85q0 56 39 93.5t122 37.5q69 0 117 -27v-20q0 -31 -10 -59h-27l-7 62q-34 6 -77 6q-61 0 -87.5 -20t-26.5 -63q0 -29 11 -46t36.5 -29t75.5 -25
q72 -18 102.5 -45.5t30.5 -81.5q0 -57 -36.5 -96t-120.5 -39q-87 0 -148 30z" />
    <glyph glyph-name="sacute" unicode="&#x15b;" horiz-adv-x="411" 
d="M179 565l84 141l62 -7l-114 -139zM53 21l15 38q34 -15 67 -22t72 -7q52 0 94 14q13 32 13 72q0 31 -9 48t-29.5 27.5t-62.5 20.5q-79 18 -116.5 46t-37.5 85q0 56 39 93.5t122 37.5q69 0 117 -27v-20q0 -31 -10 -59h-27l-7 62q-34 6 -77 6q-61 0 -87.5 -20t-26.5 -63
q0 -29 11 -46t36.5 -29t75.5 -25q72 -18 102.5 -45.5t30.5 -81.5q0 -57 -36.5 -96t-120.5 -39q-87 0 -148 30z" />
    <glyph glyph-name="scaron" unicode="&#x161;" horiz-adv-x="411" 
d="M78 697l30 7l94 -98h5l93 98l30 -7l-101 -131h-49zM53 21l15 38q34 -15 67 -22t72 -7q52 0 94 14q13 32 13 72q0 31 -9 48t-29.5 27.5t-62.5 20.5q-79 18 -116.5 46t-37.5 85q0 56 39 93.5t122 37.5q69 0 117 -27v-20q0 -31 -10 -59h-27l-7 62q-34 6 -77 6
q-61 0 -87.5 -20t-26.5 -63q0 -29 11 -46t36.5 -29t75.5 -25q72 -18 102.5 -45.5t30.5 -81.5q0 -57 -36.5 -96t-120.5 -39q-87 0 -148 30z" />
    <glyph glyph-name="scedilla" unicode="&#x15f;" horiz-adv-x="411" 
d="M126 -200l12 32q33 -12 71 -12q31 0 52 7q6 13 6 37q0 21 -11 31.5t-35 10.5q-29 0 -46 -6l-31 31l50 60q-83 2 -141 30l15 38q34 -15 67 -22t72 -7q52 0 94 14q13 32 13 72q0 31 -9 48t-29.5 27.5t-62.5 20.5q-79 18 -116.5 46t-37.5 85q0 56 39 93.5t122 37.5
q69 0 117 -27v-20q0 -31 -10 -59h-27l-7 62q-34 6 -77 6q-61 0 -87.5 -20t-26.5 -63q0 -29 11 -46t36.5 -29t75.5 -25q72 -18 102.5 -45.5t30.5 -81.5q0 -52 -29.5 -89t-97.5 -45l-45 -60q21 9 49 9q73 0 73 -73q0 -84 -101 -84q-44 0 -81 16z" />
    <glyph glyph-name="scircumflex" unicode="&#x15d;" horiz-adv-x="411" 
d="M80 565l102 132h49l101 -132l-30 -6l-93 98h-5l-94 -98zM53 21l15 38q34 -15 67 -22t72 -7q52 0 94 14q13 32 13 72q0 31 -9 48t-29.5 27.5t-62.5 20.5q-79 18 -116.5 46t-37.5 85q0 56 39 93.5t122 37.5q69 0 117 -27v-20q0 -31 -10 -59h-27l-7 62q-34 6 -77 6
q-61 0 -87.5 -20t-26.5 -63q0 -29 11 -46t36.5 -29t75.5 -25q72 -18 102.5 -45.5t30.5 -81.5q0 -57 -36.5 -96t-120.5 -39q-87 0 -148 30z" />
    <glyph glyph-name="scommaaccent" unicode="&#x219;" horiz-adv-x="411" 
d="M53 21l15 38q34 -15 67 -22t72 -7q52 0 94 14q13 32 13 72q0 31 -9 48t-29.5 27.5t-62.5 20.5q-79 18 -116.5 46t-37.5 85q0 56 39 93.5t122 37.5q69 0 117 -27v-20q0 -31 -10 -59h-27l-7 62q-34 6 -77 6q-61 0 -87.5 -20t-26.5 -63q0 -29 11 -46t36.5 -29t75.5 -25
q72 -18 102.5 -45.5t30.5 -81.5q0 -57 -36.5 -96t-120.5 -39q-87 0 -148 30zM186 -228q18 33 27 65t9 75h-55v33q19 7 38 7q56 0 56 -62q0 -68 -45 -125z" />
    <glyph glyph-name="uni1E61" unicode="&#x1e61;" horiz-adv-x="411" 
d="M177.5 571.5q-11.5 10.5 -11.5 30.5t11.5 31t32.5 11q20 0 31 -11t11 -31t-11 -30.5t-31 -10.5q-21 0 -32.5 10.5zM53 21l15 38q34 -15 67 -22t72 -7q52 0 94 14q13 32 13 72q0 31 -9 48t-29.5 27.5t-62.5 20.5q-79 18 -116.5 46t-37.5 85q0 56 39 93.5t122 37.5
q69 0 117 -27v-20q0 -31 -10 -59h-27l-7 62q-34 6 -77 6q-61 0 -87.5 -20t-26.5 -63q0 -29 11 -46t36.5 -29t75.5 -25q72 -18 102.5 -45.5t30.5 -81.5q0 -57 -36.5 -96t-120.5 -39q-87 0 -148 30z" />
    <glyph glyph-name="uni1E63" unicode="&#x1e63;" horiz-adv-x="411" 
d="M53 21l15 38q34 -15 67 -22t72 -7q52 0 94 14q13 32 13 72q0 31 -9 48t-29.5 27.5t-62.5 20.5q-79 18 -116.5 46t-37.5 85q0 56 39 93.5t122 37.5q69 0 117 -27v-20q0 -31 -10 -59h-27l-7 62q-34 6 -77 6q-61 0 -87.5 -20t-26.5 -63q0 -29 11 -46t36.5 -29t75.5 -25
q72 -18 102.5 -45.5t30.5 -81.5q0 -57 -36.5 -96t-120.5 -39q-87 0 -148 30zM185.5 -133.5q-11.5 10.5 -11.5 29.5q0 21 11.5 32t32.5 11q20 0 31 -11t11 -32q0 -19 -11 -29.5t-31 -10.5q-21 0 -32.5 10.5z" />
    <glyph glyph-name="germandbls" unicode="&#xdf;" horiz-adv-x="535" 
d="M216 2l8 41q38 -9 71 -9q59 0 89 10q28 58 28 129q0 72 -40 111.5t-126 45.5v44q64 0 96.5 33t32.5 92q0 117 -127 117q-60 0 -119 -15v-601h-46v532q0 66 46 97t129 31q77 0 120 -42t43 -115q0 -60 -25 -93t-81 -53v-6q77 -19 110 -63t33 -114q0 -86 -39 -134.5
t-124 -48.5q-39 0 -79 11z" />
    <glyph glyph-name="uni0259" unicode="&#x259;" horiz-adv-x="479" 
d="M103.5 42.5q-44.5 47.5 -44.5 131.5q0 11 2 35l45 47l268 -2q-3 90 -39.5 134.5t-113.5 44.5q-44 0 -74.5 -8.5t-61.5 -26.5l-16 36q35 20 69 30t84 10q196 0 196 -236q0 -114 -48.5 -178.5t-145.5 -64.5q-76 0 -120.5 47.5zM336 81.5q32 45.5 38 138.5l-269 -5
q-5 -17 -5 -47q0 -61 32.5 -96.5t94.5 -35.5q77 0 109 45.5z" />
    <glyph glyph-name="t" unicode="t" horiz-adv-x="356" 
d="M174 2q-61 31 -61 87v337h-80l6 40h74v129h44v-129h154l-5 -40h-149v-325q0 -20 2 -31t7 -25q31 -9 61 -9q20 0 42 4.5t38 12.5l13 -38q-15 -8 -39.5 -14t-46.5 -6q-33 0 -60 7z" />
    <glyph glyph-name="tbar" unicode="&#x167;" horiz-adv-x="356" 
d="M174 1q-28 15 -44.5 35.5t-16.5 51.5v155h-77v40h77v137h-80l6 39h74v133h44v-133h154l-5 -39h-149v-137h110v-40h-110v-143q0 -20 2 -31t7 -25q28 -8 61 -8q20 0 42 4.5t38 11.5l13 -37q-16 -8 -40 -14.5t-46 -6.5q-27 0 -60 7z" />
    <glyph glyph-name="tcaron" unicode="&#x165;" horiz-adv-x="356" 
d="M43 824l30 7l94 -98h5l93 98l30 -7l-101 -132h-49zM174 2q-61 31 -61 87v331h-80l6 39h74v133h44v-133h154l-5 -39h-149v-319q0 -20 2 -31t7 -25q31 -9 61 -9q20 0 42 4.5t38 12.5l13 -38q-15 -8 -39.5 -14t-46.5 -6q-33 0 -60 7z" />
    <glyph glyph-name="uni0163" unicode="&#x163;" horiz-adv-x="356" 
d="M103 -200l12 32q32 -12 71 -12q31 0 52 7q6 18 6 37q0 21 -11 31.5t-36 10.5q-28 0 -45 -6l-32 31l60 70l-24 12t-31.5 29t-11.5 47v331h-80l6 39h74v133h44v-133h154l-5 -39h-149v-319q0 -20 2 -31t7 -25q31 -9 61 -9q20 0 42 4.5t38 12.5l13 -38q-15 -8 -39.5 -14
t-46.5 -6q-16 0 -24 1l-47 -64q19 9 49 9q73 0 73 -73q0 -84 -102 -84q-43 0 -80 16z" />
    <glyph glyph-name="uni021B" unicode="&#x21b;" horiz-adv-x="356" 
d="M174 2q-61 31 -61 87v331h-80l6 39h74v133h44v-133h154l-5 -39h-149v-319q0 -20 2 -31t7 -25q31 -9 61 -9q20 0 42 4.5t38 12.5l13 -38q-15 -8 -39.5 -14t-46.5 -6q-33 0 -60 7zM183 -228q18 33 27 65t9 75h-55v33q19 7 38 7q56 0 56 -62q0 -68 -45 -125z" />
    <glyph glyph-name="uni1E97" unicode="&#x1e97;" horiz-adv-x="356" 
d="M34 717.5q-9 8.5 -9 22.5q0 15 9 23.5t24 8.5t23.5 -8t8.5 -24q0 -14 -8.5 -22.5t-23.5 -8.5t-24 8.5zM191 717.5q-9 8.5 -9 22.5q0 16 9 24t25 8q15 0 23.5 -8t8.5 -24q0 -14 -8.5 -22.5t-23.5 -8.5q-16 0 -25 8.5zM174 2q-61 31 -61 87v331h-80l6 39h74v133h44v-133
h154l-5 -39h-149v-319q0 -20 2 -31t7 -25q31 -9 61 -9q20 0 42 4.5t38 12.5l13 -38q-15 -8 -39.5 -14t-46.5 -6q-33 0 -60 7z" />
    <glyph glyph-name="uni1E6D" unicode="&#x1e6d;" horiz-adv-x="356" 
d="M174 2q-61 31 -61 87v331h-80l6 39h74v133h44v-133h154l-5 -39h-149v-319q0 -20 2 -31t7 -25q31 -9 61 -9q20 0 42 4.5t38 12.5l13 -38q-15 -8 -39.5 -14t-46.5 -6q-33 0 -60 7zM167.5 -141.5q-11.5 10.5 -11.5 29.5q0 20 11.5 31t32.5 11q20 0 31 -11t11 -31
q0 -19 -11 -29.5t-31 -10.5q-21 0 -32.5 10.5z" />
    <glyph glyph-name="uni1E6F" unicode="&#x1e6f;" horiz-adv-x="356" 
d="M174 2q-61 31 -61 87v331h-80l6 39h74v133h44v-133h154l-5 -39h-149v-319q0 -20 2 -31t7 -25q31 -9 61 -9q20 0 42 4.5t38 12.5l13 -38q-15 -8 -39.5 -14t-46.5 -6q-33 0 -60 7zM55 -72h301v-44h-301v44z" />
    <glyph glyph-name="u" unicode="u" horiz-adv-x="504" 
d="M108.5 12.5q-29.5 21.5 -29.5 69.5v384h45v-422q35 -12 79 -12q51 0 96 21.5t76 55.5v357h45v-466h-37l-4 71h-6q-42 -40 -83 -60t-94 -20q-58 0 -87.5 21.5z" />
    <glyph glyph-name="uacute" unicode="&#xfa;" horiz-adv-x="504" 
d="M221 565l84 140l62 -6l-114 -140zM108.5 12.5q-29.5 21.5 -29.5 69.5v384h45v-422q35 -12 79 -12q51 0 96 21.5t76 55.5v357h45v-466h-37l-4 71h-6q-42 -40 -83 -60t-94 -20q-58 0 -87.5 21.5z" />
    <glyph glyph-name="ubreve" unicode="&#x16d;" horiz-adv-x="504" 
d="M130 661l45 8q7 -35 23 -52t54 -17t54 17t23 52l45 -8q-20 -100 -122 -100t-122 100zM108.5 12.5q-29.5 21.5 -29.5 69.5v384h45v-422q35 -12 79 -12q51 0 96 21.5t76 55.5v357h45v-466h-37l-4 71h-6q-42 -40 -83 -60t-94 -20q-58 0 -87.5 21.5z" />
    <glyph glyph-name="uni01D4" unicode="&#x1d4;" horiz-adv-x="504" 
d="M124 697l30 7l94 -98h5l93 98l30 -7l-101 -131h-49zM108.5 12.5q-29.5 21.5 -29.5 69.5v384h45v-422q35 -12 79 -12q51 0 96 21.5t76 55.5v357h45v-466h-37l-4 71h-6q-42 -40 -83 -60t-94 -20q-58 0 -87.5 21.5z" />
    <glyph glyph-name="ucircumflex" unicode="&#xfb;" horiz-adv-x="504" 
d="M124 566l102 131h49l101 -131l-30 -7l-93 98h-5l-94 -98zM108.5 12.5q-29.5 21.5 -29.5 69.5v384h45v-422q35 -12 79 -12q51 0 96 21.5t76 55.5v357h45v-466h-37l-4 71h-6q-42 -40 -83 -60t-94 -20q-58 0 -87.5 21.5z" />
    <glyph glyph-name="udieresis" unicode="&#xfc;" horiz-adv-x="504" 
d="M149 569q-9 8 -9 23t9 23.5t24 8.5t23.5 -8t8.5 -24q0 -15 -8.5 -23t-23.5 -8t-24 8zM306 569q-9 8 -9 23q0 16 9 24t25 8q15 0 23.5 -8t8.5 -24q0 -15 -8.5 -23t-23.5 -8q-16 0 -25 8zM108.5 12.5q-29.5 21.5 -29.5 69.5v384h45v-422q35 -12 79 -12q51 0 96 21.5
t76 55.5v357h45v-466h-37l-4 71h-6q-42 -40 -83 -60t-94 -20q-58 0 -87.5 21.5z" />
    <glyph glyph-name="uni01D8" unicode="&#x1d8;" horiz-adv-x="504" 
d="M234 695l68 114l56 -8l-92 -112zM149 569q-9 8 -9 23t9 23.5t24 8.5t23.5 -8t8.5 -24q0 -15 -8.5 -23t-23.5 -8t-24 8zM306 569q-9 8 -9 23q0 16 9 24t25 8q15 0 23.5 -8t8.5 -24q0 -15 -8.5 -23t-23.5 -8q-16 0 -25 8zM108.5 12.5q-29.5 21.5 -29.5 69.5v384h45v-422
q35 -12 79 -12q51 0 96 21.5t76 55.5v357h45v-466h-37l-4 71h-6q-42 -40 -83 -60t-94 -20q-58 0 -87.5 21.5z" />
    <glyph glyph-name="uni01DA" unicode="&#x1da;" horiz-adv-x="504" 
d="M134 809l29 7l86 -90h6l85 90l29 -7l-93 -122h-48zM148 569q-9 8 -9 23t9 23.5t24 8.5t23.5 -8t8.5 -24q0 -15 -8.5 -23t-23.5 -8t-24 8zM305 569q-9 8 -9 23q0 16 9 24t25 8q15 0 23.5 -8t8.5 -24q0 -15 -8.5 -23t-23.5 -8q-16 0 -25 8zM108.5 12.5
q-29.5 21.5 -29.5 69.5v384h45v-422q35 -12 79 -12q51 0 96 21.5t76 55.5v357h45v-466h-37l-4 71h-6q-42 -40 -83 -60t-94 -20q-58 0 -87.5 21.5z" />
    <glyph glyph-name="uni01DC" unicode="&#x1dc;" horiz-adv-x="504" 
d="M146 801l57 8l67 -114l-31 -6zM148.5 569q-8.5 8 -8.5 23q0 16 8.5 24t23.5 8q16 0 25 -8t9 -24q0 -15 -9 -23t-25 -8q-15 0 -23.5 8zM305.5 569q-8.5 8 -8.5 23q0 32 33 32q15 0 24 -8.5t9 -23.5t-9 -23t-24 -8q-16 0 -24.5 8zM108.5 12.5q-29.5 21.5 -29.5 69.5v384h45
v-422q35 -12 79 -12q51 0 96 21.5t76 55.5v357h45v-466h-37l-4 71h-6q-42 -40 -83 -60t-94 -20q-58 0 -87.5 21.5z" />
    <glyph glyph-name="uni01D6" unicode="&#x1d6;" horiz-adv-x="504" 
d="M116 731h270v-40h-270v40zM147 569q-9 8 -9 23t9 23.5t24 8.5t23.5 -8t8.5 -24q0 -15 -8.5 -23t-23.5 -8t-24 8zM304 569q-9 8 -9 23q0 16 9 24t25 8q15 0 23.5 -8t8.5 -24q0 -15 -8.5 -23t-23.5 -8q-16 0 -25 8zM108.5 12.5q-29.5 21.5 -29.5 69.5v384h45v-422
q35 -12 79 -12q51 0 96 21.5t76 55.5v357h45v-466h-37l-4 71h-6q-42 -40 -83 -60t-94 -20q-58 0 -87.5 21.5z" />
    <glyph glyph-name="uni1EE5" unicode="&#x1ee5;" horiz-adv-x="504" 
d="M108.5 12.5q-29.5 21.5 -29.5 69.5v384h45v-422q35 -12 79 -12q51 0 96 21.5t76 55.5v357h45v-466h-37l-4 71h-6q-42 -40 -83 -60t-94 -20q-58 0 -87.5 21.5zM221.5 -141.5q-11.5 10.5 -11.5 29.5q0 20 11.5 31t32.5 11q20 0 31 -11t11 -31q0 -19 -11 -29.5t-31 -10.5
q-21 0 -32.5 10.5z" />
    <glyph glyph-name="ugrave" unicode="&#xf9;" horiz-adv-x="504" 
d="M136 702l62 7l84 -141l-32 -5zM108.5 12.5q-29.5 21.5 -29.5 69.5v384h45v-422q35 -12 79 -12q51 0 96 21.5t76 55.5v357h45v-466h-37l-4 71h-6q-42 -40 -83 -60t-94 -20q-58 0 -87.5 21.5z" />
    <glyph glyph-name="uni1EE7" unicode="&#x1ee7;" horiz-adv-x="504" 
d="M222 615v22q50 0 69 8.5t19 33.5q0 19 -11 28.5t-37 9.5q-22 0 -51 -8l-10 30q31 13 69 13q40 0 59.5 -20t19.5 -53q0 -38 -23 -55t-66 -19v-39h-27zM108.5 12.5q-29.5 21.5 -29.5 69.5v384h45v-422q35 -12 79 -12q51 0 96 21.5t76 55.5v357h45v-466h-37l-4 71h-6
q-42 -40 -83 -60t-94 -20q-58 0 -87.5 21.5z" />
    <glyph glyph-name="uhorn" unicode="&#x1b0;" horiz-adv-x="605" 
d="M108.5 16.5q-29.5 21.5 -29.5 69.5v380h45v-417q34 -13 79 -13q49 0 95 20t77 53v357h45v-96h8q38 15 61.5 33.5t37.5 51t15 85.5h46q0 -87 -39 -134t-129 -77v-329h-37l-4 71h-6q-41 -38 -84 -57t-93 -19q-58 0 -87.5 21.5z" />
    <glyph glyph-name="uni1EE9" unicode="&#x1ee9;" horiz-adv-x="605" 
d="M225 565l84 141l62 -7l-114 -140zM108.5 16.5q-29.5 21.5 -29.5 69.5v380h45v-417q34 -13 79 -13q49 0 95 20t77 53v357h45v-96h8q38 15 61.5 33.5t37.5 51t15 85.5h46q0 -87 -39 -134t-129 -77v-329h-37l-4 71h-6q-41 -38 -84 -57t-93 -19q-58 0 -87.5 21.5z" />
    <glyph glyph-name="uni1EF1" unicode="&#x1ef1;" horiz-adv-x="605" 
d="M108.5 16.5q-29.5 21.5 -29.5 69.5v380h45v-417q34 -13 79 -13q49 0 95 20t77 53v357h45v-96h8q38 15 61.5 33.5t37.5 51t15 85.5h46q0 -87 -39 -134t-129 -77v-329h-37l-4 71h-6q-41 -38 -84 -57t-93 -19q-58 0 -87.5 21.5zM217.5 -141.5q-11.5 10.5 -11.5 29.5
q0 20 11.5 31t32.5 11q20 0 31 -11t11 -31q0 -19 -11 -29.5t-31 -10.5q-21 0 -32.5 10.5z" />
    <glyph glyph-name="uni1EEB" unicode="&#x1eeb;" horiz-adv-x="605" 
d="M132 700l62 6l84 -140l-32 -6zM108.5 16.5q-29.5 21.5 -29.5 69.5v380h45v-417q34 -13 79 -13q49 0 95 20t77 53v357h45v-96h8q38 15 61.5 33.5t37.5 51t15 85.5h46q0 -87 -39 -134t-129 -77v-329h-37l-4 71h-6q-41 -38 -84 -57t-93 -19q-58 0 -87.5 21.5z" />
    <glyph glyph-name="uni1EED" unicode="&#x1eed;" horiz-adv-x="605" 
d="M223 615v22q50 0 69 8.5t19 33.5q0 19 -11 28.5t-37 9.5q-22 0 -51 -8l-10 30q31 13 69 13q40 0 59.5 -20t19.5 -53q0 -38 -23 -55t-66 -19v-39h-27zM108.5 16.5q-29.5 21.5 -29.5 69.5v380h45v-417q34 -13 79 -13q49 0 95 20t77 53v357h45v-96h8q38 15 61.5 33.5
t37.5 51t15 85.5h46q0 -87 -39 -134t-129 -77v-329h-37l-4 71h-6q-41 -38 -84 -57t-93 -19q-58 0 -87.5 21.5z" />
    <glyph glyph-name="uni1EEF" unicode="&#x1eef;" horiz-adv-x="605" 
d="M117 568q2 40 21 62.5t52 22.5q17 0 30.5 -7.5t33.5 -21.5q18 -13 28.5 -18.5t22.5 -5.5q39 0 46 53l31 -9q-2 -40 -21 -62.5t-52 -22.5q-17 0 -32 7.5t-34 21.5q-30 24 -49 24q-39 0 -46 -53zM108.5 16.5q-29.5 21.5 -29.5 69.5v380h45v-417q34 -13 79 -13q49 0 95 20
t77 53v357h45v-96h8q38 15 61.5 33.5t37.5 51t15 85.5h46q0 -87 -39 -134t-129 -77v-329h-37l-4 71h-6q-41 -38 -84 -57t-93 -19q-58 0 -87.5 21.5z" />
    <glyph glyph-name="uhungarumlaut" unicode="&#x171;" horiz-adv-x="504" 
d="M141 565q18 33 27 65t9 76h-55v33q22 6 37 6q57 0 57 -62q0 -68 -46 -125zM306 565q18 33 27 65t9 76h-55v33q22 6 38 6q56 0 56 -62q0 -68 -46 -125zM108.5 12.5q-29.5 21.5 -29.5 69.5v384h45v-422q35 -12 79 -12q51 0 96 21.5t76 55.5v357h45v-466h-37l-4 71h-6
q-42 -40 -83 -60t-94 -20q-58 0 -87.5 21.5z" />
    <glyph glyph-name="umacron" unicode="&#x16b;" horiz-adv-x="504" 
d="M117 606h270v-40h-270v40zM108.5 12.5q-29.5 21.5 -29.5 69.5v384h45v-422q35 -12 79 -12q51 0 96 21.5t76 55.5v357h45v-466h-37l-4 71h-6q-42 -40 -83 -60t-94 -20q-58 0 -87.5 21.5z" />
    <glyph glyph-name="uogonek" unicode="&#x173;" horiz-adv-x="504" 
d="M448 -155q-24 -11 -56 -11q-40 0 -61 20.5t-21 56.5q0 33 18.5 56.5t54.5 40.5l-4 63h-6q-42 -40 -83 -60t-94 -20q-58 0 -87.5 21.5t-29.5 69.5v384h45v-422q35 -12 79 -12q51 0 96 21.5t76 55.5v357h45v-466h-8q-33 -19 -46.5 -39t-13.5 -49q0 -18 8 -36q19 -4 40 -4
q16 0 41 5z" />
    <glyph glyph-name="uring" unicode="&#x16f;" horiz-adv-x="504" 
d="M171.5 580q-25.5 21 -25.5 60t31.5 66.5t83.5 27.5q97 0 97 -83q0 -39 -30 -65.5t-84 -26.5q-47 0 -72.5 21zM313 600q9 26 9 48q0 54 -65 54q-38 0 -66 -9q-9 -26 -9 -50q0 -25 16 -38.5t48 -13.5q39 0 67 9zM108.5 12.5q-29.5 21.5 -29.5 69.5v384h45v-422
q35 -12 79 -12q51 0 96 21.5t76 55.5v357h45v-466h-37l-4 71h-6q-42 -40 -83 -60t-94 -20q-58 0 -87.5 21.5z" />
    <glyph glyph-name="utilde" unicode="&#x169;" horiz-adv-x="504" 
d="M120 570q2 40 21 62t52 22q17 0 30.5 -7.5t33.5 -21.5q18 -13 28.5 -18.5t22.5 -5.5q39 0 46 54l31 -10q-2 -40 -21 -62t-52 -22q-17 0 -32 7.5t-34 21.5q-30 24 -49 24q-39 0 -46 -54zM108.5 12.5q-29.5 21.5 -29.5 69.5v384h45v-422q35 -12 79 -12q51 0 96 21.5
t76 55.5v357h45v-466h-37l-4 71h-6q-42 -40 -83 -60t-94 -20q-58 0 -87.5 21.5z" />
    <glyph glyph-name="v" unicode="v" horiz-adv-x="469" 
d="M37 464l46 5q76 -259 146 -426h12q67 161 147 426l45 -5q-76 -242 -168 -464h-61q-87 203 -167 464z" />
    <glyph glyph-name="w" unicode="w" horiz-adv-x="699" 
d="M43 464l44 5q64 -268 118 -424h10q73 193 116 328q-4 16 -20 84l40 6q46 -197 124 -420h11q56 149 131 427l43 -5q-46 -160 -78.5 -262.5t-70.5 -202.5h-60q-53 145 -101 304h-5q-28 -88 -100 -278l-10 -26h-54q-81 225 -138 464z" />
    <glyph glyph-name="wacute" unicode="&#x1e83;" horiz-adv-x="699" 
d="M318 565l84 141l62 -7l-114 -140zM43 464l44 5q64 -268 118 -424h10q73 193 116 328q-4 16 -20 84l40 6q46 -197 124 -420h11q56 149 131 427l43 -5q-46 -160 -78.5 -262.5t-70.5 -202.5h-60q-53 145 -101 304h-5q-28 -88 -100 -278l-10 -26h-54q-81 225 -138 464z" />
    <glyph glyph-name="wcircumflex" unicode="&#x175;" horiz-adv-x="699" 
d="M218 565l102 132h49l101 -132l-30 -6l-93 98h-5l-94 -98zM43 464l44 5q64 -268 118 -424h10q73 193 116 328q-4 16 -20 84l40 6q46 -197 124 -420h11q56 149 131 427l43 -5q-46 -160 -78.5 -262.5t-70.5 -202.5h-60q-53 145 -101 304h-5q-28 -88 -100 -278l-10 -26h-54
q-81 225 -138 464z" />
    <glyph glyph-name="wdieresis" unicode="&#x1e85;" horiz-adv-x="699" 
d="M242 569q-9 8 -9 23t9 23.5t24 8.5t23.5 -8t8.5 -24q0 -15 -8.5 -23t-23.5 -8t-24 8zM399 569q-9 8 -9 23q0 16 9 24t25 8q15 0 23.5 -8t8.5 -24q0 -15 -8.5 -23t-23.5 -8q-16 0 -25 8zM43 464l44 5q64 -268 118 -424h10q73 193 116 328q-4 16 -20 84l40 6
q46 -197 124 -420h11q56 149 131 427l43 -5q-46 -160 -78.5 -262.5t-70.5 -202.5h-60q-53 145 -101 304h-5q-28 -88 -100 -278l-10 -26h-54q-81 225 -138 464z" />
    <glyph glyph-name="wgrave" unicode="&#x1e81;" horiz-adv-x="699" 
d="M232 699l62 7l84 -141l-32 -5zM43 464l44 5q64 -268 118 -424h10q73 193 116 328q-4 16 -20 84l40 6q46 -197 124 -420h11q56 149 131 427l43 -5q-46 -160 -78.5 -262.5t-70.5 -202.5h-60q-53 145 -101 304h-5q-28 -88 -100 -278l-10 -26h-54q-81 225 -138 464z" />
    <glyph glyph-name="x" unicode="x" horiz-adv-x="473" 
d="M39 3q64 112 149 231q-74 102 -146 227l45 8q60 -113 133 -215h34q74 101 136 215l43 -8q-69 -119 -147 -225q81 -117 146 -233l-44 -9q-51 96 -134 221h-35q-83 -121 -137 -221z" />
    <glyph glyph-name="y" unicode="y" horiz-adv-x="482" 
d="M62 -168v22q0 25 8 55h33v-49q20 -4 49 -4q26 0 48 6q29 64 61 160h-68q-49 121 -83.5 222t-68.5 221l45 5q65 -237 133 -407h57q68 210 115 407l45 -5q-37 -156 -85.5 -308t-98.5 -273q-29 -67 -112 -67q-46 0 -78 15z" />
    <glyph glyph-name="yacute" unicode="&#xfd;" horiz-adv-x="482" 
d="M221 568l84 141l62 -7l-114 -139zM62 -168v22q0 25 8 55h33v-49q20 -4 49 -4q26 0 48 6q29 64 61 160h-68q-49 121 -83.5 222t-68.5 221l45 5q65 -237 133 -407h57q68 210 115 407l45 -5q-37 -156 -85.5 -308t-98.5 -273q-29 -67 -112 -67q-46 0 -78 15z" />
    <glyph glyph-name="ycircumflex" unicode="&#x177;" horiz-adv-x="482" 
d="M119 565l102 132h49l101 -132l-30 -6l-93 98h-5l-94 -98zM62 -168v22q0 25 8 55h33v-49q20 -4 49 -4q26 0 48 6q29 64 61 160h-68q-49 121 -83.5 222t-68.5 221l45 5q65 -237 133 -407h57q68 210 115 407l45 -5q-37 -156 -85.5 -308t-98.5 -273q-29 -67 -112 -67
q-46 0 -78 15z" />
    <glyph glyph-name="ydieresis" unicode="&#xff;" horiz-adv-x="482" 
d="M139 569q-9 8 -9 23t9 23.5t24 8.5t23.5 -8t8.5 -24q0 -15 -8.5 -23t-23.5 -8t-24 8zM296 569q-9 8 -9 23q0 16 9 24t25 8q15 0 23.5 -8t8.5 -24q0 -15 -8.5 -23t-23.5 -8q-16 0 -25 8zM62 -168v22q0 25 8 55h33v-49q20 -4 49 -4q26 0 48 6q29 64 61 160h-68
q-49 121 -83.5 222t-68.5 221l45 5q65 -237 133 -407h57q68 210 115 407l45 -5q-37 -156 -85.5 -308t-98.5 -273q-29 -67 -112 -67q-46 0 -78 15z" />
    <glyph glyph-name="uni1E8F" unicode="&#x1e8f;" horiz-adv-x="482" 
d="M213.5 574.5q-11.5 10.5 -11.5 29.5q0 21 11.5 32t32.5 11q20 0 31 -11t11 -32q0 -19 -11 -29.5t-31 -10.5q-21 0 -32.5 10.5zM62 -168v22q0 25 8 55h33v-49q20 -4 49 -4q26 0 48 6q29 64 61 160h-68q-49 121 -83.5 222t-68.5 221l45 5q65 -237 133 -407h57
q68 210 115 407l45 -5q-37 -156 -85.5 -308t-98.5 -273q-29 -67 -112 -67q-46 0 -78 15z" />
    <glyph glyph-name="uni1EF5" unicode="&#x1ef5;" horiz-adv-x="482" 
d="M62 -168v22q0 25 8 55h33v-49q20 -4 49 -4q26 0 48 6q29 64 61 160h-68q-49 121 -83.5 222t-68.5 221l45 5q65 -237 133 -407h57q68 210 115 407l45 -5q-37 -156 -85.5 -308t-98.5 -273q-29 -67 -112 -67q-46 0 -78 15zM203.5 -289.5q-11.5 10.5 -11.5 29.5q0 42 44 42
q42 0 42 -42q0 -19 -11 -29.5t-31 -10.5q-21 0 -32.5 10.5z" />
    <glyph glyph-name="ygrave" unicode="&#x1ef3;" horiz-adv-x="482" 
d="M127 699l62 6l84 -140l-32 -6zM62 -168v22q0 25 8 55h33v-49q20 -4 49 -4q26 0 48 6q29 64 61 160h-68q-49 121 -83.5 222t-68.5 221l45 5q65 -237 133 -407h57q68 210 115 407l45 -5q-37 -156 -85.5 -308t-98.5 -273q-29 -67 -112 -67q-46 0 -78 15z" />
    <glyph glyph-name="uni1EF7" unicode="&#x1ef7;" horiz-adv-x="482" 
d="M214 615v22q50 0 69 8.5t19 33.5q0 19 -11 28.5t-37 9.5q-22 0 -51 -8l-10 30q31 13 69 13q40 0 59.5 -20t19.5 -53q0 -38 -23 -55t-66 -19v-39h-27zM62 -168v22q0 25 8 55h33v-49q20 -4 49 -4q26 0 48 6q29 64 61 160h-68q-49 121 -83.5 222t-68.5 221l45 5
q65 -237 133 -407h57q68 210 115 407l45 -5q-37 -156 -85.5 -308t-98.5 -273q-29 -67 -112 -67q-46 0 -78 15z" />
    <glyph glyph-name="uni1EF9" unicode="&#x1ef9;" horiz-adv-x="482" 
d="M109 544q2 40 21 62t52 22q17 0 30.5 -7.5t33.5 -21.5q18 -13 28.5 -18.5t22.5 -5.5q39 0 46 54l31 -10q-2 -40 -21 -62t-52 -22q-17 0 -32 7.5t-34 21.5q-30 24 -49 24q-39 0 -46 -54zM62 -168v22q0 25 8 55h33v-49q20 -4 49 -4q26 0 48 6q29 64 61 160h-68
q-49 121 -83.5 222t-68.5 221l45 5q65 -237 133 -407h57q68 210 115 407l45 -5q-37 -156 -85.5 -308t-98.5 -273q-29 -67 -112 -67q-46 0 -78 15z" />
    <glyph glyph-name="z" unicode="z" horiz-adv-x="436" 
d="M57 52l264 368v7h-210l-5 -60h-31q-9 34 -9 64v35h302v-54l-264 -365v-8h231l5 64h31q9 -36 9 -65v-38h-323v52z" />
    <glyph glyph-name="zacute" unicode="&#x17a;" horiz-adv-x="436" 
d="M186 566l84 140l62 -6l-114 -140zM57 52l264 368v7h-210l-5 -60h-31q-9 34 -9 64v35h302v-54l-264 -365v-8h231l5 64h31q9 -36 9 -65v-38h-323v52z" />
    <glyph glyph-name="zcaron" unicode="&#x17e;" horiz-adv-x="437" 
d="M98 697l30 7l94 -98h5l93 98l30 -7l-101 -131h-49zM59 52l264 368v7h-210l-5 -60h-31q-9 34 -9 64v35h302v-54l-264 -365v-8h231l5 64h31q9 -36 9 -65v-38h-323v52z" />
    <glyph glyph-name="zdotaccent" unicode="&#x17c;" horiz-adv-x="436" 
d="M190.5 571.5q-11.5 10.5 -11.5 29.5q0 42 44 42q42 0 42 -42q0 -19 -11 -29.5t-31 -10.5q-21 0 -32.5 10.5zM57 52l264 368v7h-210l-5 -60h-31q-9 34 -9 64v35h302v-54l-264 -365v-8h231l5 64h31q9 -36 9 -65v-38h-323v52z" />
    <glyph glyph-name="uni1E93" unicode="&#x1e93;" horiz-adv-x="436" 
d="M58 52l264 368v7h-210l-5 -60h-31q-9 34 -9 64v35h302v-54l-264 -365v-8h231l5 64h31q9 -36 9 -65v-38h-323v52zM193.5 -133.5q-11.5 10.5 -11.5 29.5q0 21 11.5 32t32.5 11q20 0 31 -11t11 -32q0 -19 -11 -29.5t-31 -10.5q-21 0 -32.5 10.5z" />
    <glyph glyph-name="ordfeminine" unicode="&#xaa;" horiz-adv-x="353" 
d="M77.5 288.5q-23.5 23.5 -23.5 60.5q0 52 40.5 80t108.5 28q26 0 54 -5v60q0 39 -14.5 53t-55.5 14q-36 0 -73 -8l-6 -41h-23q-6 30 -6 44v16q58 26 120 26q49 0 73.5 -25t24.5 -72v-249h-34l-3 50h-6q-42 -55 -108 -55q-45 0 -68.5 23.5zM211.5 316q24.5 14 45.5 41v59
q-34 6 -70 6t-78 -8q-14 -25 -14 -56q0 -28 13.5 -42t46.5 -14q32 0 56.5 14z" />
    <glyph glyph-name="ordmasculine" unicode="&#xba;" horiz-adv-x="372" 
d="M84 307.5q-31 42.5 -31 122.5q0 83 34 126.5t109 43.5q61 0 92.5 -41.5t31.5 -123.5q0 -83 -34 -126.5t-109 -43.5q-62 0 -93 42.5zM225 305.5q16 2.5 34 8.5q19 48 19 113q0 71 -21.5 103t-70.5 32q-23 0 -39 -2.5t-34 -8.5q-19 -47 -19 -113q0 -69 21.5 -102t70.5 -33
q23 0 39 2.5z" />
    <glyph glyph-name="uni207F" unicode="&#x207f;" horiz-adv-x="391" 
d="M66 616h32l5 -58h6q30 30 61.5 45.5t69.5 15.5q46 0 66 -20t20 -60v-274h-42v307q-22 9 -54 9q-64 0 -123 -55v-261h-41v351z" />
    <glyph glyph-name="pi" unicode="&#x3c0;" horiz-adv-x="593" 
d="M413.5 17.5q-21.5 23.5 -21.5 80.5v329h-213v-427h-46v427h-87v41h481v-41h-89v-341q0 -30 4 -45q23 -5 47 -5q19 0 35 2v-41q-13 -3 -39 -3q-50 0 -71.5 23.5z" />
    <glyph glyph-name="uni0E01" unicode="&#xe01;" horiz-adv-x="548" 
d="M138 312l-73 100v34q106 76 231 76q53 0 91 -15t57.5 -39.5t19.5 -52.5v-415h-46v450q-55 29 -128 29q-52 0 -99.5 -13t-83.5 -38v-5l65 -85q10 -12 10 -31q0 -11 -1 -17l-49 -290h-44z" />
    <glyph glyph-name="uni0E16" unicode="&#xe16;" horiz-adv-x="556" 
d="M122 8q-19 18 -19 52q0 6 2 22l38 230l-74 100v34q106 76 236 76q53 0 90.5 -15t57 -39.5t19.5 -52.5v-415h-46v450q-55 29 -128 29q-50 0 -100 -13.5t-87 -37.5v-5l65 -85q11 -14 11 -31q0 -5 -2 -17l-36 -205q-3 -12 -3 -22q0 -17 9.5 -24.5t31.5 -7.5h56v-30
q-35 -11 -68 -11q-34 0 -53 18z" />
    <glyph glyph-name="uni0E20" unicode="&#xe20;" horiz-adv-x="568" 
d="M51 -1v32h40q23 0 31.5 9t12.5 33l37 239l-75 100v34q51 37 103.5 56.5t115.5 19.5q53 0 91 -15t57.5 -39.5t19.5 -52.5v-415h-46v450q-55 29 -129 29q-96 0 -171 -51v-5l67 -85q10 -12 10 -31q0 -11 -1 -17l-38 -229q-6 -36 -23.5 -53.5t-50.5 -17.5q-28 0 -51 9z" />
    <glyph glyph-name="uni0E24" unicode="&#xe24;" horiz-adv-x="556" 
d="M426 450q-55 29 -128 29q-50 0 -100 -13.5t-87 -37.5v-5l65 -85q11 -14 11 -31q0 -5 -2 -17l-36 -205q-3 -12 -3 -22q0 -17 9.5 -24.5t31.5 -7.5h56v-30q-35 -11 -68 -11q-34 0 -53 18t-19 52q0 6 2 22l38 230l-74 100v34q106 76 236 76q53 0 90.5 -15t57 -39.5
t19.5 -52.5v-608h-46v643z" />
    <glyph glyph-name="uni0E24.short" horiz-adv-x="556" 
d="M426 450q-55 29 -128 29q-50 0 -100 -13.5t-87 -37.5v-5l65 -85q11 -14 11 -31q0 -5 -2 -17l-36 -200q-3 -12 -3 -22q0 -17 9.5 -25t31.5 -8h56v-30q-35 -11 -68 -11q-34 0 -53 18t-19 52q0 6 2 22l38 226l-74 100v34q106 76 236 76q53 0 90.5 -15t57 -39.5t19.5 -52.5
v-608h-46v643z" />
    <glyph glyph-name="uni0E26" unicode="&#xe26;" horiz-adv-x="565" 
d="M435 450q-55 29 -127 29q-95 0 -170 -51v-5l67 -85q10 -12 10 -31q0 -11 -1 -17l-38 -229q-6 -36 -23.5 -53.5t-50.5 -17.5q-28 0 -51 9v32h40q23 0 31.5 9t12.5 33l37 239l-75 100v34q51 37 103 56.5t114 19.5q53 0 91 -15t57 -39.5t19 -52.5v-608h-46v643z" />
    <glyph glyph-name="uni0E26.short" horiz-adv-x="565" 
d="M435 450q-55 29 -127 29q-95 0 -170 -51v-5l67 -85q10 -12 10 -31q0 -11 -1 -17l-38 -225q-6 -36 -23.5 -53.5t-50.5 -17.5q-29 0 -51 10v31h40q23 0 31.5 9t12.5 33l37 235l-75 100v34q51 37 103 56.5t114 19.5q53 0 91 -15t57 -39.5t19 -52.5v-608h-46v643z" />
    <glyph glyph-name="uni0E0E" unicode="&#xe0e;" horiz-adv-x="568" 
d="M300 -161q-39 0 -70 -4t-74 -14l-13 38q44 12 77.5 16.5t73.5 4.5q37 0 68.5 -7t67.5 -20h8v597q-55 29 -129 29q-96 0 -171 -51v-5l67 -85q10 -12 10 -31q0 -11 -1 -17l-38 -229q-6 -36 -23.5 -53.5t-50.5 -17.5q-28 0 -51 9v32h40q23 0 31.5 9t12.5 33l37 239l-75 100
v34q51 37 103.5 56.5t115.5 19.5q53 0 91 -15t57.5 -39.5t19.5 -52.5v-506q0 -40 -20 -63.5t-60 -25.5q-52 19 -104 19z" />
    <glyph glyph-name="doChadathai.short" horiz-adv-x="568" 
d="M143 -115q49 13 82.5 19t68.5 6q68 0 136 -26h8v566q-55 29 -129 29q-96 0 -171 -51v-5l67 -85q10 -12 10 -31q0 -11 -1 -17l-38 -225q-6 -36 -23.5 -53.5t-50.5 -17.5q-29 0 -51 10v31h40q23 0 31.5 9t12.5 33l37 235l-75 100v34q51 37 103.5 56.5t115.5 19.5
q53 0 91 -15t57.5 -39.5t19.5 -52.5v-474q0 -41 -20 -64t-60 -25q-47 16 -104 16q-39 0 -69.5 -4.5t-74.5 -16.5z" />
    <glyph glyph-name="uni0E0F" unicode="&#xe0f;" horiz-adv-x="568" 
d="M294 -136q-20 -22 -45.5 -32t-67.5 -10q-37 0 -75 15l13 40q33 -12 67 -12q67 0 100 20l-22 61h46l29 -96q22 0 50.5 2.5t40.5 5.5q8 22 8 62v530q-55 29 -129 29q-96 0 -171 -51v-5l67 -85q10 -12 10 -31q0 -11 -1 -17l-38 -229q-6 -36 -23.5 -53.5t-50.5 -17.5
q-28 0 -51 9v32h40q23 0 31.5 9t12.5 33l37 239l-75 100v34q51 37 103.5 56.5t115.5 19.5q53 0 91 -15t57.5 -39.5t19.5 -52.5v-475q0 -65 -31 -96.5t-87 -31.5h-57z" />
    <glyph glyph-name="toPatakthai.short" horiz-adv-x="568" 
d="M294 -116q-20 -22 -45.5 -32t-67.5 -10q-37 0 -75 15l13 40q33 -12 67 -12q67 0 100 20l-22 61h46l29 -96q22 0 50.5 2.5t40.5 5.5q8 22 8 62v510q-55 29 -129 29q-96 0 -171 -51v-5l67 -85q10 -12 10 -31q0 -11 -1 -17l-38 -225q-6 -36 -23.5 -53.5t-50.5 -17.5
q-29 0 -51 10v31h40q23 0 31.5 9t12.5 33l37 235l-75 100v34q51 37 103.5 56.5t115.5 19.5q53 0 91 -15t57.5 -39.5t19.5 -52.5v-455q0 -65 -31 -96.5t-87 -31.5h-57z" />
    <glyph glyph-name="uni0E0D" unicode="&#xe0d;" horiz-adv-x="845" 
d="M507 -168q-31 4 -73 15l10 41q69 -18 133 -18q28 0 57.5 5.5t53.5 13.5q3 15 3 35q0 45 -13 82q-36 -12 -78 -12q-85 0 -133.5 38.5t-48.5 113.5v308q-27 13 -55 19t-66 6q-51 0 -100 -13.5t-86 -37.5v-5l65 -85q11 -14 11 -31q0 -5 -2 -17l-36 -205q-3 -12 -3 -22
q0 -17 9.5 -24.5t31.5 -7.5h56v-30q-35 -11 -68 -11q-34 0 -53 18t-19 51q0 7 2 23l38 230l-74 100v34q106 76 234 76q78 0 119.5 -31t41.5 -76v-255q0 -66 33 -94.5t105 -28.5q33 0 59 5t54 15v455h46v-419q0 -27 -11.5 -43.5t-37.5 -30.5v-2l20 -27q2 -20 2 -29
q0 -67 -43.5 -100t-115.5 -33q-37 0 -68 4z" />
    <glyph glyph-name="yoYingthai.less" horiz-adv-x="845" 
d="M122 12q-19 18 -19 51q0 7 2 23l38 226l-74 100v34q106 76 234 76q78 0 119.5 -31t41.5 -76v-255q0 -66 33 -94.5t105 -28.5q33 0 59 5t54 15v455h46v-419q0 -47 -46 -73t-115 -26q-85 1 -133.5 39t-48.5 113v308q-27 13 -55 19t-66 6q-51 0 -100 -13.5t-86 -37.5v-5
l65 -85q11 -14 11 -31q0 -5 -2 -17l-36 -200q-3 -12 -3 -22q0 -17 9.5 -25t31.5 -8h56v-30q-35 -11 -68 -11q-34 0 -53 18z" />
    <glyph glyph-name="uni0E02" unicode="&#xe02;" horiz-adv-x="491" 
d="M108 34q-40 44 -40 118v79q0 31 11.5 53.5t33.5 51.5q19 26 28 43.5t9 38.5q0 28 -11 40t-39 12h-39v42h48q48 0 67.5 -25t19.5 -64q0 -28 -10.5 -49.5t-30.5 -49.5q-21 -32 -31 -52.5t-10 -48.5v-73q0 -57 28.5 -87t105.5 -30q67 0 113 18v461h46v-405q0 -51 -39.5 -84
t-119.5 -33q-100 0 -140 44z" />
    <glyph glyph-name="uni0E03" unicode="&#xe03;" horiz-adv-x="516" 
d="M90 152v74q0 37 16.5 60.5t48.5 51.5q25 22 36.5 37t11.5 36q0 25 -7 46h-7q-25 -42 -71 -42q-51 0 -51 59q0 16 5 38h35v-61q4 -1 13 -1q28 0 40.5 15t18.5 47h45q12 -26 17.5 -48.5t5.5 -50.5q0 -29 -13.5 -49t-40.5 -46q-28 -26 -42.5 -48t-14.5 -55v-65q0 -57 29 -87
t106 -30q69 0 115 18v461h46v-405q0 -50 -41 -83.5t-120 -33.5q-181 0 -181 162z" />
    <glyph glyph-name="uni0E0A" unicode="&#xe0a;" horiz-adv-x="500" 
d="M68 152v79q0 31 11.5 53.5t33.5 51.5q19 26 28 43.5t9 38.5q0 28 -11 40t-39 12h-39v42h48q48 0 67.5 -25t19.5 -64q0 -28 -10.5 -49.5t-30.5 -49.5q-21 -32 -31 -52.5t-10 -48.5v-73q0 -57 29 -87t106 -30q74 0 121 18v198q0 43 -22 63t-67 31v39q39 0 58.5 16.5
t28.5 44.5q11 36 13 75l50 -8q-4 -46 -20 -82q-19 -46 -72 -63v-4q39 -17 58 -40t19 -65v-149q0 -50 -43 -83.5t-124 -33.5q-181 0 -181 162z" />
    <glyph glyph-name="uni0E0B" unicode="&#xe0b;" horiz-adv-x="533" 
d="M134.5 34.5q-43.5 44.5 -43.5 117.5v74q0 36 16.5 60t47.5 52q25 22 36.5 37t11.5 36q0 25 -7 46h-7q-25 -42 -71 -42q-51 0 -51 59q0 16 5 38h35v-61q4 -1 13 -1q28 0 40.5 15t18.5 47h45q12 -26 17.5 -48.5t5.5 -50.5q0 -29 -13 -49t-40 -46q-28 -26 -42.5 -48
t-14.5 -55v-65q0 -56 32.5 -86.5t109.5 -30.5q71 0 124 20v196q0 43 -22 63t-67 31v39q39 0 58.5 16.5t28.5 44.5q11 36 13 75l50 -8q-4 -46 -20 -82q-19 -46 -72 -63v-4q39 -17 58 -40t19 -65v-149q0 -49 -45 -83t-125 -34q-101 0 -144.5 44.5z" />
    <glyph glyph-name="uni0E04" unicode="&#xe04;" horiz-adv-x="562" 
d="M122 142q-34 46 -50 88t-16 94q0 198 232 198q83 0 136.5 -30.5t53.5 -84.5v-407h-45v451q-27 12 -67 20t-81 8q-94 0 -138.5 -36.5t-44.5 -121.5q0 -40 8.5 -70.5t27.5 -62.5h7q25 29 62.5 56t72.5 39l44 -12l1 -15q2 -33 -5 -61h-32l-8 44q-23 -6 -53 -24t-54 -38
l-57 -177h-48z" />
    <glyph glyph-name="uni0E05" unicode="&#xe05;" horiz-adv-x="582" 
d="M125 142q-34 49 -51.5 91.5t-17.5 96.5q0 89 33 140.5t103 51.5q37 0 63.5 -16.5t45.5 -50.5q20 33 50.5 50t66.5 17q24 0 42 -3.5t38 -11.5v-507h-46v474q-15 5 -43 5q-33 0 -57.5 -16.5t-35.5 -42.5h-32q-14 27 -34.5 43t-51.5 16q-52 0 -74 -39t-22 -111q0 -42 10 -74
t29 -67h7q25 29 63 56t72 39l45 -12l1 -15q2 -33 -5 -61h-33l-7 44q-23 -6 -53 -24t-54 -38l-58 -177h-48z" />
    <glyph glyph-name="uni0E28" unicode="&#xe28;" horiz-adv-x="593" 
d="M122 142q-34 46 -50 88t-16 94q0 198 232 198q45 0 83.5 -9.5t63.5 -27.5l44 32l81 19l10 -43l-113 -29q21 -24 21 -57v-407h-45v451q-27 12 -67 20t-81 8q-94 0 -138.5 -36.5t-44.5 -121.5q0 -40 8.5 -70.5t27.5 -62.5h7q25 29 62.5 56t72.5 39l44 -12l1 -15
q2 -33 -5 -61h-32l-8 44q-23 -6 -53 -24t-54 -38l-57 -177h-48z" />
    <glyph glyph-name="uni0E14" unicode="&#xe14;" horiz-adv-x="552" 
d="M65 248q0 128 57 201t178 73q85 0 168 -32v-490h-46v462q-55 17 -122 17q-101 0 -145 -60.5t-44 -170.5q0 -111 31 -161t95 -50q26 0 54 7l9 -38q-27 -11 -65 -11q-170 0 -170 253z" />
    <glyph glyph-name="uni0E15" unicode="&#xe15;" horiz-adv-x="571" 
d="M103.5 57q-38.5 62 -38.5 195q0 132 31.5 201t104.5 69q34 0 58 -17t41 -51q18 32 47.5 50t65.5 18q46 0 74 -19v-503h-46v474q-17 5 -37 5q-58 0 -90 -61h-33q-13 29 -30 45t-45 16q-54 0 -74.5 -58t-20.5 -169q0 -116 27 -165.5t88 -49.5q26 0 54 7l10 -38
q-28 -11 -66 -11q-82 0 -120.5 62z" />
    <glyph glyph-name="uni0E17" unicode="&#xe17;" horiz-adv-x="550" 
d="M87 512h42l3 -80h8q97 90 205 90q121 0 121 -87v-435h-46v466q-20 7 -39 10t-46 3q-54 0 -105.5 -24.5t-96.5 -65.5v-389h-46v512z" />
    <glyph glyph-name="uni0E11" unicode="&#xe11;" horiz-adv-x="549" 
d="M86 226q0 37 16 60.5t47 51.5q24 21 35.5 36.5t11.5 36.5q0 25 -7 46h-7q-25 -42 -71 -42q-51 0 -51 59q0 16 5 38h35v-61q4 -1 13 -1q28 0 40.5 15t18.5 47h45q15 -36 20 -58h5q37 34 69.5 51t67.5 17q39 0 62.5 -20t23.5 -56v-446h-45v472q-21 7 -52 7q-58 0 -128 -60
q-1 -35 -14.5 -56t-41.5 -48q-26 -24 -39 -44.5t-13 -52.5v-218h-46v226z" />
    <glyph glyph-name="uni0E19" unicode="&#xe19;" horiz-adv-x="548" 
d="M85 77v435h46v-467q36 -12 85 -12q109 0 202 88v391h46v-512h-42l-3 77h-8q-46 -43 -95 -65t-109 -22q-122 0 -122 87z" />
    <glyph glyph-name="uni0E21" unicode="&#xe21;" horiz-adv-x="539" 
d="M231 9q-46 19 -91 64h-8l-3 -73h-42v512h46v-396q85 -83 193 -83q26 0 44.5 2.5t38.5 9.5v467h46v-435q0 -87 -120 -87q-58 0 -104 19z" />
    <glyph glyph-name="uni0E0C" unicode="&#xe0c;" horiz-adv-x="850" 
d="M122 8q-19 18 -19 51q0 7 2 23l38 230l-74 100v34q106 76 234 76q78 0 120 -30.5t42 -76.5v-303q40 -40 83 -59.5t93 -19.5q26 0 43 2.5t36 9.5v467h46v-435q0 -87 -115 -87q-52 0 -95.5 18.5t-82.5 60.5h-8l-4 -69h-41v454q-53 25 -123 25q-51 0 -100 -13.5t-86 -37.5
v-5l65 -85q11 -14 11 -31q0 -5 -2 -17l-37 -205q-3 -12 -3 -22q0 -17 9.5 -24.5t31.5 -7.5h56v-30q-33 -11 -67 -11t-53 18z" />
    <glyph glyph-name="uni0E13" unicode="&#xe13;" horiz-adv-x="847" 
d="M122 8q-19 18 -19 52q0 6 2 22l38 230l-74 100v34q106 76 234 76q78 0 120 -30.5t42 -76.5v-371q33 -11 73 -11q53 0 95 18.5t84 58.5v402h46v-512h-42l-3 67h-8q-43 -41 -83 -59t-97 -18q-56 0 -83.5 21t-27.5 67v376q-53 25 -122 25q-51 0 -100 -13.5t-86 -37.5v-5
l65 -85q11 -14 11 -31q0 -5 -2 -17l-36 -205q-3 -12 -3 -22q0 -17 9.5 -24.5t31.5 -7.5h56v-30q-35 -11 -68 -11q-34 0 -53 18z" />
    <glyph glyph-name="uni0E12" unicode="&#xe12;" horiz-adv-x="850" 
d="M473 69h-8l-4 -69h-41v474q-17 5 -38 5q-30 0 -49.5 -15.5t-34.5 -45.5h-33q-12 29 -28.5 45t-44.5 16q-49 0 -68 -57.5t-19 -169.5q0 -116 27 -165.5t88 -49.5q26 0 54 7l10 -38q-28 -11 -66 -11q-83 0 -121 62t-38 195q0 132 29 201t99 69q34 0 56 -16.5t41 -51.5
q18 33 44 50.5t64 17.5q45 0 73 -19v-391q78 -79 174 -79q26 0 44 2.5t37 9.5v467h46v-435q0 -87 -116 -87q-102 0 -177 79z" />
    <glyph glyph-name="uni0E06" unicode="&#xe06;" horiz-adv-x="557" 
d="M237 9.5q-47 19.5 -92 58.5h-6l-4 -68h-42v226q0 37 15 60.5t44 51.5q23 22 33.5 37t10.5 36q0 25 -7 46h-7q-25 -42 -71 -42q-51 0 -51 59q0 16 5 38h35v-61q4 -1 13 -1q28 0 40.5 15t18.5 47h45q12 -26 17.5 -48.5t5.5 -50.5q0 -29 -12 -49t-37 -46
q-25 -25 -38.5 -47.5t-13.5 -55.5v-105q47 -39 92 -58t97 -19q61 0 99 17v462h46v-426q0 -47 -35 -71.5t-100 -24.5q-54 0 -101 19.5z" />
    <glyph glyph-name="uni0E18" unicode="&#xe18;" horiz-adv-x="511" 
d="M127 24q-45 34 -45 109v76h45v-66q0 -62 31.5 -86t106.5 -24q81 0 130 21v211l-217 27q-56 7 -82 30t-26 73q0 59 53.5 93t148.5 34q84 0 162 -20l-13 -38q-70 15 -144 15q-84 0 -144 -14q-17 -34 -17 -65q0 -35 15.5 -48.5t59.5 -18.5l179 -24q18 -2 44 -26t26 -38v-154
q0 -52 -46 -76.5t-129 -24.5q-93 0 -138 34z" />
    <glyph glyph-name="uni0E23" unicode="&#xe23;" horiz-adv-x="459" 
d="M54 27l16 40q37 -18 70.5 -26t80.5 -8q66 0 116 22q18 30 18 79q0 46 -29.5 68.5t-104.5 33.5q-76 10 -117.5 42.5t-41.5 86.5q0 69 43.5 113t133.5 44q43 0 74.5 -5t63.5 -18l-19 -40q-30 11 -60 15.5t-71 4.5q-54 0 -95 -15q-24 -37 -24 -81q0 -36 13 -55t40.5 -28.5
t84.5 -19.5q76 -12 115.5 -42t39.5 -90q0 -71 -43 -114t-141 -43q-101 0 -163 36z" />
    <glyph glyph-name="uni0E08" unicode="&#xe08;" horiz-adv-x="508" 
d="M138 195q-7 20 -13 26t-24 6h-28v41h41q27 0 39 -10.5t22 -34.5l70 -183h62q41 50 67 115t26 141q0 67 -13.5 106t-48 58t-97.5 19q-67 0 -129 -14v-72h-30q-13 32 -13 72v28q92 29 180 29q108 0 152 -55.5t44 -168.5q0 -88 -28.5 -157.5t-85.5 -140.5h-120z" />
    <glyph glyph-name="uni0E27" unicode="&#xe27;" horiz-adv-x="479" 
d="M139 1.5q-38 11.5 -73 35.5l23 36q58 -40 133 -40q84 0 116 54.5t32 163.5q0 84 -10.5 131.5t-42 72t-95.5 24.5q-55 0 -109 -21l-7 -76h-30q-9 31 -9 67v30q27 19 71 31t92 12q74 0 114.5 -31.5t56 -90t15.5 -149.5q0 -126 -43.5 -193.5t-147.5 -67.5q-48 0 -86 11.5z
" />
    <glyph glyph-name="uni0E07" unicode="&#xe07;" horiz-adv-x="481" 
d="M33 397l44 13l140 -368h51q104 142 104 322q0 28 -5 57.5t-15 50.5q-15 4 -26.5 5.5t-30.5 1.5q-17 0 -49 -5l-8 41q19 3 34 5t32 2q55 0 84.5 -39.5t29.5 -117.5q0 -104 -31.5 -193.5t-96.5 -171.5h-103z" />
    <glyph glyph-name="uni0E10" unicode="&#xe10;" horiz-adv-x="541" 
d="M138 195q-7 20 -13 26t-24 6h-28v41h41q27 0 39 -10.5t22 -34.5l70 -183h62q41 50 67 115t26 141q0 67 -13.5 106t-48 58t-97.5 19q-67 0 -129 -14v-71h-30q-13 32 -13 73v26q92 29 180 29q84 0 132 -37l44 32l81 19l10 -43l-115 -30q44 -53 44 -165q0 -88 -28.5 -157.5
t-85.5 -140.5h-120zM241 -161q-20 -22 -45.5 -32t-67.5 -10q-38 0 -75 15l13 40q33 -12 67 -12q67 0 100 20l-22 61h46l29 -96q22 0 52 2.5t42 5.5q2 9 2 29q0 22 -3.5 45.5t-8.5 40.5l49 5q5 -30 5 -49q0 -117 -106 -117h-62z" />
    <glyph glyph-name="thoThanthai.less" horiz-adv-x="541" 
d="M138 195q-7 20 -13 26t-24 6h-28v41h41q27 0 39 -10.5t22 -34.5l70 -183h62q41 50 67 115t26 141q0 67 -13.5 106t-48 58t-97.5 19q-67 0 -129 -14v-71h-30q-13 32 -13 73v26q92 29 180 29q84 0 132 -37l44 32l81 19l10 -43l-115 -30q44 -53 44 -165q0 -88 -28.5 -157.5
t-85.5 -140.5h-120z" />
    <glyph glyph-name="uni0E09" unicode="&#xe09;" horiz-adv-x="540" 
d="M120 79v141h-42v41h52q35 0 35 -38v-178q36 -12 82 -12t85.5 20t77.5 60v229q0 76 -32.5 106.5t-110.5 30.5q-79 0 -151 -18v-69h-30q-7 21 -10 36.5t-3 34.5v25q104 34 201 34q182 0 182 -169v-353h-41l-3 74h-7q-35 -41 -74.5 -62.5t-92.5 -21.5q-118 0 -118 89z" />
    <glyph glyph-name="uni0E25" unicode="&#xe25;" horiz-adv-x="513" 
d="M85 28q-34 38 -34 101q0 82 47.5 118.5t147.5 36.5q37 0 68 -4t69 -14v76q0 53 -11 82t-39 42t-81 13q-60 0 -124 -11v-77h-29q-14 36 -14 77v24q51 15 91 22.5t88 7.5q94 0 129.5 -42t35.5 -127v-353h-45v229q-67 14 -135 14q-78 0 -134 -14q-18 -44 -18 -91
q0 -106 88 -106q37 0 63 10l12 -40q-22 -6 -39 -9t-40 -3q-62 0 -96 38z" />
    <glyph glyph-name="uni0E2A" unicode="&#xe2a;" horiz-adv-x="551" 
d="M85 28q-34 38 -34 101q0 82 47.5 118.5t147.5 36.5q37 0 68 -4t69 -14v76q0 53 -11 82t-39 42t-81 13q-60 0 -124 -11v-77h-29q-14 36 -14 77v24q51 15 91 22.5t88 7.5q79 0 119 -34l40 29l81 19l10 -43l-110 -28q25 -37 25 -112v-353h-45v229q-67 14 -135 14
q-78 0 -134 -14q-18 -44 -18 -91q0 -106 88 -106q37 0 63 10l12 -40q-22 -6 -39 -9t-40 -3q-62 0 -96 38z" />
    <glyph glyph-name="uni0E1A" unicode="&#xe1a;" horiz-adv-x="545" 
d="M135 26.5q-50 36.5 -50 110.5v375h46v-367q0 -60 36 -86t111 -26q83 0 137 22v457h46v-417q0 -52 -49.5 -78.5t-133.5 -26.5q-93 0 -143 36.5z" />
    <glyph glyph-name="uni0E1B" unicode="&#xe1b;" horiz-adv-x="545" 
d="M135 26.5q-50 36.5 -50 110.5v375h46v-367q0 -60 36 -86t111 -26q83 0 137 22v641h46v-601q0 -52 -49.5 -78.5t-133.5 -26.5q-93 0 -143 36.5z" />
    <glyph glyph-name="uni0E29" unicode="&#xe29;" horiz-adv-x="589" 
d="M138 27.5q-53 36.5 -53 109.5v375h46v-367q0 -59 38.5 -85t117.5 -26q84 0 138 22v179l-23 -1l-24 1q-68 2 -117 20v88h43v-62q46 -8 87 -8q12 0 34 2v237h46v-230q29 7 71 29l21 -35q-49 -25 -92 -35v-146q0 -51 -50 -77.5t-134 -26.5q-96 0 -149 36.5z" />
    <glyph glyph-name="uni0E22" unicode="&#xe22;" horiz-adv-x="532" 
d="M116 26.5q-53 38.5 -53 120.5q0 49 24.5 82t68.5 46v7q-44 15 -64 43.5t-20 71.5q0 55 33 90t98 35q23 0 56 -6l-6 -40q-26 3 -51 3q-35 0 -71 -7q-14 -42 -14 -73q0 -50 29 -75.5t83 -25.5h35v-42h-40q-56 0 -86 -28t-30 -79q0 -61 39.5 -89.5t116.5 -28.5q86 0 137 28
v453h47v-411q0 -54 -48 -83.5t-136 -29.5q-95 0 -148 38.5z" />
    <glyph glyph-name="uni0E1C" unicode="&#xe1c;" horiz-adv-x="597" 
d="M98 56.5q-33 61.5 -33 196.5q0 100 14.5 158.5t46 84.5t84.5 26q34 0 65 -11l-10 -38q-24 6 -53 6q-40 0 -61.5 -22t-30.5 -70t-9 -134q0 -80 9.5 -126.5t30 -68t56.5 -21.5q52 0 76 38v147h43v-147q34 -37 88 -37q33 0 54 7v467h45v-491q-34 -26 -88 -26q-37 0 -64 12
t-52 40h-7q-19 -27 -42 -39.5t-58 -12.5q-71 0 -104 61.5z" />
    <glyph glyph-name="uni0E1D" unicode="&#xe1d;" horiz-adv-x="597" 
d="M98 56.5q-33 61.5 -33 196.5q0 100 14.5 158.5t46 84.5t84.5 26q34 0 65 -11l-10 -38q-24 6 -53 6q-40 0 -61.5 -22t-30.5 -70t-9 -134q0 -80 9.5 -126.5t30 -68t56.5 -21.5q52 0 76 38v147h43v-147q34 -37 88 -37q33 0 54 7v651h45v-675q-34 -26 -88 -26q-37 0 -64 12
t-52 40h-7q-19 -27 -42 -39.5t-58 -12.5q-71 0 -104 61.5z" />
    <glyph glyph-name="uni0E1F" unicode="&#xe1f;" horiz-adv-x="631" 
d="M73 515l46 5q6 -118 15.5 -226t23.5 -250h8q22 59 59.5 169.5t64.5 198.5h46q27 -88 64.5 -198.5t59.5 -169.5h8q13 116 27.5 308t21.5 342l45 -4q-29 -447 -63 -690h-61q-30 80 -65.5 183t-57.5 178h-4q-40 -140 -123 -361h-61q-34 241 -54 515z" />
    <glyph glyph-name="uni0E1E" unicode="&#xe1e;" horiz-adv-x="626" 
d="M73 515l46 5q6 -118 15.5 -226t23.5 -250h8q22 59 59.5 169.5t64.5 198.5h46q27 -88 64.5 -198.5t59.5 -169.5h8q14 142 23.5 250t15.5 226l46 -5q-20 -274 -54 -515h-61q-30 80 -65.5 183t-57.5 178h-4q-40 -140 -123 -361h-61q-34 241 -54 515z" />
    <glyph glyph-name="uni0E2B" unicode="&#xe2b;" horiz-adv-x="535" 
d="M87 512h45v-186l207 6q27 25 40 64q9 24 14 48.5t12 72.5l47 -6q-10 -97 -43 -156q-7 -12 -23.5 -24t-39.5 -21q34 -10 51 -32.5t26 -67.5l42 -210h-46l-38 199q-9 48 -32.5 69t-73.5 21h-143v-289h-45v512z" />
    <glyph glyph-name="uni0E2C" unicode="&#xe2c;" horiz-adv-x="641" 
d="M73 515l46 5q6 -118 15.5 -226t23.5 -250h8q82 197 126 343h47q44 -146 126 -343h8q15 118 23.5 200.5t15.5 182.5q-15 15 -41.5 26.5t-52.5 15.5v54q13 -1 45 -1q85 0 139 18l13 -43q-33 -10 -86 -10q-16 0 -36.5 2t-27.5 3v-6q46 -14 67 -36t18 -56q-15 -179 -46 -394
h-61q-43 104 -74 185t-51 150h-5q-20 -69 -51 -150t-74 -185h-61q-34 241 -54 515z" />
    <glyph glyph-name="loChulathai.short" horiz-adv-x="640" 
d="M73 515l46 5q6 -118 15.5 -226t23.5 -250h8q82 197 126 343h47q44 -146 126 -343h8q14 104 22 180t16 181q-16 15 -42 26.5t-52 15.5v55q17 -1 59 -1q77 1 125 17l13 -43q-17 -5 -42.5 -7.5t-47.5 -1.5q-20 0 -60 4v-5q47 -15 67.5 -36.5t17.5 -55.5
q-9 -101 -18.5 -183.5t-26.5 -189.5h-61q-43 104 -74 185t-51 150h-5q-20 -69 -51 -150t-74 -185h-61q-34 241 -54 515z" />
    <glyph glyph-name="uni0E2D" unicode="&#xe2d;" horiz-adv-x="509" 
d="M59 161v78q0 8 18.5 24.5t28.5 16.5h135v-42h-137v-80q0 -65 32.5 -95t109.5 -30q63 0 96.5 23t45.5 69.5t12 124.5q0 90 -15 139.5t-46.5 69.5t-84.5 20q-67 0 -133 -13v-74h-30q-13 36 -13 73v22q86 35 177 35q70 0 112 -27.5t60.5 -86.5t18.5 -158q0 -88 -18 -144.5
t-61.5 -86t-119.5 -29.5q-188 0 -188 171z" />
    <glyph glyph-name="uni0E2E" unicode="&#xe2e;" horiz-adv-x="555" 
d="M59 161v78q0 8 18.5 24.5t28.5 16.5h135v-42h-137v-80q0 -65 32.5 -95t109.5 -30q63 0 96.5 23t45.5 69.5t12 124.5q0 90 -15 139.5t-46.5 69.5t-84.5 20q-67 0 -133 -13v-74h-30q-13 36 -13 73v22q86 35 177 35q80 0 124 -37l43 32l81 19l10 -43l-115 -30
q48 -61 48 -213q0 -88 -18 -144.5t-61.5 -86t-119.5 -29.5q-188 0 -188 171z" />
    <glyph glyph-name="uni0E32" unicode="&#xe32;" horiz-adv-x="389" 
d="M259 455q-43 17 -100 17q-54 0 -113 -14l-9 37q65 20 128 20q69 0 104.5 -25.5t35.5 -73.5v-416h-46v455z" />
    <glyph glyph-name="uni0E33" unicode="&#xe33;" horiz-adv-x="389" 
d="M-249 623q-24 21 -24 61q0 39 29.5 66t82.5 27q94 0 94 -83q0 -39 -29 -65.5t-83 -26.5q-46 0 -70 21zM-112 644q8 27 8 48q0 27 -14.5 39.5t-46.5 12.5q-35 0 -63 -8q-9 -27 -9 -50q0 -51 61 -51q32 0 64 9zM259 455q-43 17 -100 17q-54 0 -113 -14l-9 37q65 20 128 20
q69 0 104.5 -25.5t35.5 -73.5v-416h-46v455z" />
    <glyph glyph-name="uni0E45" unicode="&#xe45;" horiz-adv-x="389" 
d="M259 455q-43 17 -100 17q-54 0 -113 -14l-9 37q65 20 128 20q69 0 104.5 -25.5t35.5 -73.5v-613h-46v652z" />
    <glyph glyph-name="uni0E30" unicode="&#xe30;" horiz-adv-x="451" 
d="M73 351v78h45v-49q42 -13 96 -13q43 0 75.5 7.5t64.5 24.5l20 -37q-37 -21 -73.5 -28t-87.5 -7q-81 0 -140 24zM73 109v78h45v-49q42 -13 96 -13q43 0 75.5 7.5t64.5 24.5l20 -37q-37 -21 -73.5 -28t-87.5 -7q-81 0 -140 24z" />
    <glyph glyph-name="uni0E40" unicode="&#xe40;" horiz-adv-x="286" 
d="M104 18.5q-25 28.5 -25 78.5v415h45v-435q0 -24 6 -41q23 -4 47 -4h48v-32q-22 -10 -54 -10q-42 0 -67 28.5z" />
    <glyph glyph-name="uni0E41" unicode="&#xe41;" horiz-adv-x="546" 
d="M104 18.5q-25 28.5 -25 78.5v415h45v-435q0 -24 6 -41q23 -4 47 -4h48v-32q-22 -10 -54 -10q-42 0 -67 28.5zM364 18.5q-25 28.5 -25 78.5v415h45v-435q0 -24 6 -41q23 -4 47 -4h48v-32q-22 -10 -54 -10q-42 0 -67 28.5z" />
    <glyph glyph-name="uni0E44" unicode="&#xe44;" horiz-adv-x="392" 
d="M194 18.5q-25 28.5 -25 78.5v332q0 30 4.5 46.5t16.5 36.5l123 193v7q-44 0 -94.5 -17.5t-91.5 -44.5v-46l-18 -5q-14 39 -45.5 72.5t-67.5 46.5l11 34q36 -15 60 -33t41 -44q50 37 96.5 56.5t102.5 24.5l49 -36v-13q0 -8 -3.5 -16t-8.5 -16l-113 -183q-10 -18 -13 -30
t-3 -37v-348q0 -22 5 -41q23 -4 47 -4h48v-32q-20 -10 -54 -10q-42 0 -67 28.5z" />
    <glyph glyph-name="uni0E43" unicode="&#xe43;" horiz-adv-x="359" 
d="M176.5 18q-24.5 28 -24.5 79v371q0 21 5.5 34t19.5 25l100 79v98q-24 10 -46.5 13.5t-54.5 3.5q-60 0 -117 -17v-84h-30q-12 35 -14 77v25q70 41 167 41q71 0 106 -28.5t35 -78.5q0 -37 -9.5 -59t-36.5 -42l-58 -44q-14 -10 -18 -20t-4 -29v-385q0 -23 5 -41q23 -4 47 -4
h49v-32q-22 -10 -55 -10q-42 0 -66.5 28z" />
    <glyph glyph-name="uni0E42" unicode="&#xe42;" horiz-adv-x="341" 
d="M157.5 19q-24.5 28 -24.5 78v356q0 27 -2 40.5t-11 23.5l-114 153v34l44 31q79 -3 141 -3q83 0 137 11l12 -37q-57 -16 -143 -16q-47 0 -80.5 2t-75.5 9v-8l114 -148q15 -18 19 -37.5t4 -55.5v-374q0 -24 6 -41q21 -5 47 -5h48v-31q-22 -10 -54 -10q-43 0 -67.5 28z" />
    <glyph glyph-name="uni0261" unicode="&#x261;" horiz-adv-x="498" 
d="M90 -157l14 36q30 -13 66.5 -21t70.5 -8q46 0 77.5 7t55.5 22v136l3 60h-7q-63 -74 -146 -74t-123.5 61t-40.5 164q0 116 41.5 181t132.5 65q85 0 135 -79h6l4 74h38v-532q0 -66 -46 -96t-127 -30q-86 0 -154 34zM373 118v233q-59 81 -136 81q-71 0 -101 -51t-30 -152
q0 -94 31 -140.5t96 -46.5q81 0 140 76z" />
    <glyph glyph-name="zero" unicode="0" horiz-adv-x="631" 
d="M138.5 67.5q-54.5 72.5 -54.5 222.5q0 152 53.5 232t188.5 80q114 0 168 -72.5t54 -223.5q0 -153 -53 -232t-189 -79q-113 0 -167.5 72.5zM389 45q37 6 63 17q48 105 48 234q0 95 -18 151.5t-58 83t-109 26.5q-35 0 -72.5 -6.5t-63.5 -16.5q-48 -105 -48 -233
q0 -95 18 -152t58 -83.5t109 -26.5q36 0 73 6z" />
    <glyph glyph-name="one" unicode="1" horiz-adv-x="384" 
d="M220 541l-10 7l-128 -51l-13 33l143 72q20 -2 37.5 -15t17.5 -25v-562h-47v541z" />
    <glyph glyph-name="two" unicode="2" horiz-adv-x="571" 
d="M82 62q158 108 244.5 198.5t86.5 178.5q0 66 -30.5 92.5t-99.5 26.5q-68 0 -134 -22v-95h-33q-14 46 -14 88v31q47 21 90 31.5t96 10.5q88 0 130 -39.5t42 -118.5q0 -108 -86 -201.5t-236 -192.5v-8h299v75h34q13 -36 13 -83v-34h-402v62z" />
    <glyph glyph-name="three" unicode="3" horiz-adv-x="535" 
d="M75 17l8 42q78 -21 168 -21q36 0 62 3t58 9q26 38 26 105q0 62 -33 91t-110 29h-84v43h84q68 0 102 30.5t34 87.5q0 62 -33 92t-99 30q-63 0 -133 -16v-88h-33q-14 42 -14 78v34q50 18 92 27t94 9q172 0 172 -161q0 -53 -22 -86t-69 -54v-6q56 -19 77 -52t21 -88
q0 -75 -42.5 -118t-150.5 -43q-85 0 -175 23z" />
    <glyph glyph-name="four" unicode="4" horiz-adv-x="577" 
d="M375 126h-295l-15 50l302 426h54v-432h86v-44h-86v-126h-46v126zM374 170v208l7 164h-6l-259 -365l2 -7h256z" />
    <glyph glyph-name="five" unicode="5" horiz-adv-x="537" 
d="M170 0q-40 6 -87 18l7 44q93 -24 172 -24q40 0 68 4t59 14q24 57 24 129q0 74 -30 102t-100 28q-37 0 -68.5 -5.5t-67.5 -18.5l-46 36l19 275h298v-44h-255l-16 -223q43 13 75 18.5t68 5.5q83 0 126.5 -40t43.5 -128q0 -98 -45 -147.5t-159 -49.5q-46 0 -86 6z" />
    <glyph glyph-name="six" unicode="6" horiz-adv-x="532" 
d="M133 60.5q-50 60.5 -50 170.5q0 120 57 207.5t165 160.5l41 -22q-92 -63 -141.5 -123.5t-69.5 -145.5q83 48 168 48q82 0 124.5 -43t42.5 -128q0 -80 -42 -132.5t-146 -52.5q-99 0 -149 60.5zM346 47.5q25 3.5 51 11.5q25 54 25 126q0 67 -30.5 97.5t-99.5 30.5
q-81 0 -162 -48q-1 -12 -1 -34q0 -96 38.5 -141.5t117.5 -45.5q36 0 61 3.5z" />
    <glyph glyph-name="seven" unicode="7" horiz-adv-x="549" 
d="M199 8q35 167 89.5 296t138.5 248v6h-303v-89h-33q-14 39 -14 90v43h399v-58q-92 -135 -144 -261t-84 -280z" />
    <glyph glyph-name="eight" unicode="8" horiz-adv-x="578" 
d="M139.5 37.5q-50.5 42.5 -50.5 122.5q0 55 20.5 87t64.5 63v7q-35 23 -52.5 50.5t-17.5 70.5q0 77 51 120.5t152 43.5q84 0 127 -43.5t43 -124.5q0 -46 -17 -77t-52 -54v-6q45 -27 63.5 -59.5t18.5 -80.5q0 -81 -46 -121.5t-155 -40.5q-99 0 -149.5 42.5zM416 339
q15 40 15 85q0 76 -32 105.5t-110 29.5q-61 0 -118 -19q-11 -26 -16 -48.5t-5 -47.5q0 -68 39.5 -94.5t122.5 -26.5q60 0 104 16zM428 61q15 39 15 85q0 52 -14.5 82t-48 43.5t-92.5 13.5q-66 0 -112 -9q-22 -22 -31.5 -49.5t-9.5 -64.5q0 -69 39.5 -96.5t131.5 -27.5
q69 0 122 23z" />
    <glyph glyph-name="nine" unicode="9" horiz-adv-x="534" 
d="M188 23q93 63 140 116t68 132q-40 -26 -77 -38.5t-87 -12.5q-77 0 -123 45.5t-46 129.5q0 91 47 147.5t150 56.5q98 0 145 -63.5t47 -176.5q0 -122 -56 -204t-167 -155zM326 275.5q37 11.5 76 37.5q3 21 3 46q0 98 -37 147t-113 49q-67 0 -116 -15q-15 -36 -22 -70
t-7 -75q0 -66 33.5 -98.5t96.5 -32.5q49 0 86 11.5z" />
    <glyph glyph-name="fraction" unicode="&#x2044;" horiz-adv-x="180" 
d="M-119 10l381 609l37 -10l-382 -609z" />
    <glyph glyph-name="onehalf" unicode="&#xbd;" horiz-adv-x="787" 
d="M164 6l384 613l37 -9l-384 -615zM152 567l-4 3l-73 -29l-9 25l80 50q16 -1 32.5 -10.5t16.5 -17.5v-332h-43v311zM529 58q181 111 181 197q0 35 -15.5 49.5t-51.5 14.5q-27 0 -62 -6v-46h-34q-7 25 -7 54v16q50 21 108 21q56 0 80.5 -27.5t24.5 -73.5q0 -58 -49.5 -111
t-131.5 -104v-5h147v32h32q8 -21 8 -51v-18h-230v58z" />
    <glyph glyph-name="uni2153" unicode="&#x2153;" horiz-adv-x="838" 
d="M164 6l384 613l37 -9l-384 -615zM152 567l-4 3l-73 -29l-9 25l80 50q16 -1 32.5 -10.5t16.5 -17.5v-332h-43v311zM542 7l6 38q48 -12 95 -12q42 0 71 6q11 23 11 53q0 63 -84 63h-36v38h36q74 0 74 64q0 32 -16.5 47t-49.5 15q-31 0 -63 -4v-37h-33q-7 25 -7 45v17
q50 18 105 18q53 0 80 -26t27 -69q0 -34 -16 -54t-49 -32v-3q41 -12 57.5 -33t16.5 -52q0 -43 -29 -68.5t-94 -25.5q-55 0 -102 12z" />
    <glyph glyph-name="uni2154" unicode="&#x2154;" horiz-adv-x="873" 
d="M228 6l384 613l37 -9l-384 -615zM71 316q180 110 180 197q0 35 -15 49.5t-51 14.5q-27 0 -62 -6v-46h-34q-7 25 -7 54v16q49 21 108 21q104 0 104 -101q0 -102 -180 -215v-5h146v32h32q8 -21 8 -51v-18h-229v58zM577 6l6 38q48 -12 95 -12q43 0 71 7q11 22 11 52
q0 31 -21.5 47.5t-62.5 16.5h-36v37h36q74 0 74 65q0 62 -66 62q-33 0 -63 -5v-37h-33q-7 25 -7 45v17q50 18 105 18q53 0 80 -25.5t27 -69.5q0 -34 -16 -54t-49 -32v-3q41 -12 57.5 -33t16.5 -52q0 -43 -29 -68.5t-94 -25.5q-55 0 -102 12z" />
    <glyph glyph-name="onequarter" unicode="&#xbc;" horiz-adv-x="794" 
d="M164 6l384 613l37 -9l-384 -615zM152 567l-4 3l-73 -29l-9 25l80 50q16 -1 32.5 -10.5t16.5 -17.5v-332h-43v311zM629 71h-156l-16 38l171 244h43v-246h55v-36h-55v-71h-42v71zM630 107v75q0 56 7 119h-4l-127 -190l2 -4h122z" />
    <glyph glyph-name="threequarters" unicode="&#xbe;" horiz-adv-x="821" 
d="M220 6l384 613l37 -9l-384 -615zM69 261l6 38q48 -12 95 -12q42 0 71 6q11 23 11 53q0 63 -84 63h-36v38h36q74 0 74 64q0 32 -16.5 47t-49.5 15q-31 0 -63 -4v-37h-33q-7 25 -7 45v17q49 18 105 18q53 0 80 -26t27 -69q0 -34 -16 -54t-49 -32v-3q41 -12 57.5 -33
t16.5 -52q0 -43 -29 -68.5t-94 -25.5q-55 0 -102 12zM656 71h-156l-16 38l171 244h43v-246h55v-36h-55v-71h-42v71zM658 107v75q0 56 7 119h-4l-127 -190l2 -4h122z" />
    <glyph glyph-name="oneeighth" unicode="&#x215b;" horiz-adv-x="802" 
d="M147 6l384 613l37 -9l-384 -615zM153 569l-4 3l-74 -29l-9 23l80 50q16 -1 32.5 -10.5t16.5 -17.5v-332h-42v313zM521.5 19q-30.5 27 -30.5 74q0 33 14 53t44 38v4q-24 14 -35.5 30.5t-11.5 43.5q0 41 33 66.5t90 25.5q48 0 75 -26.5t27 -70.5q0 -50 -45 -77v-5
q27 -16 38.5 -36t11.5 -52q0 -45 -31.5 -70t-95.5 -25q-53 0 -83.5 27zM672 203q12 21 12 45q0 35 -16.5 52t-56.5 17q-27 0 -58 -8q-10 -24 -10 -50q0 -28 19.5 -45t57.5 -17q33 0 52 6zM680 39q9 22 9 48q0 39 -17 56.5t-59 17.5t-66 -8q-8 -16 -11 -28.5t-3 -28.5
q0 -34 19.5 -50t62.5 -16q39 0 65 9z" />
    <glyph glyph-name="threeeighths" unicode="&#x215c;" horiz-adv-x="873" 
d="M217 6l384 613l37 -9l-384 -615zM69 265l6 38q44 -11 95 -11q42 0 71 6q11 23 11 53q0 31 -21.5 47t-62.5 16h-36v38h36q38 0 56 15.5t18 48.5q0 62 -66 62q-33 0 -63 -5v-36h-33q-7 23 -7 44v17q49 18 105 18q53 0 80 -25.5t27 -69.5q0 -34 -16 -54t-49 -32v-3
q41 -11 57.5 -32.5t16.5 -52.5q0 -43 -29 -68.5t-94 -25.5q-49 0 -102 12zM591.5 19q-30.5 27 -30.5 74q0 33 14 53t44 38v4q-24 14 -35.5 30.5t-11.5 43.5q0 41 33 66.5t90 25.5q48 0 75 -26.5t27 -70.5q0 -50 -45 -77v-5q27 -16 38.5 -36t11.5 -52q0 -45 -31.5 -70
t-95.5 -25q-53 0 -83.5 27zM743 203q12 21 12 45q0 35 -16.5 52t-56.5 17q-27 0 -58 -8q-10 -24 -10 -50q0 -28 19.5 -45t57.5 -17q33 0 52 6zM750 39q9 22 9 48q0 39 -17 56.5t-59 17.5t-66 -8q-8 -16 -11 -28.5t-3 -28.5q0 -34 19.5 -50t62.5 -16q39 0 65 9z" />
    <glyph glyph-name="fiveeighths" unicode="&#x215d;" horiz-adv-x="866" 
d="M211 6l384 613l37 -9l-384 -615zM73 265l6 38q47 -11 88 -11q40 0 71 10q10 30 10 65q0 33 -15.5 48.5t-48.5 15.5q-22 0 -37.5 -2.5t-34.5 -9.5l-35 30l13 163h169v-39h-133l-8 -116q21 7 37 9.5t38 2.5q46 0 71.5 -25.5t25.5 -70.5q0 -55 -29.5 -87t-99.5 -32
q-43 0 -88 11zM585.5 19q-30.5 27 -30.5 74q0 33 14 53t44 38v4q-24 14 -35.5 30.5t-11.5 43.5q0 41 33 66.5t90 25.5q48 0 75 -26.5t27 -70.5q0 -50 -45 -77v-5q27 -16 38.5 -36t11.5 -52q0 -45 -31.5 -70t-95.5 -25q-53 0 -83.5 27zM736 203q12 21 12 45q0 35 -16.5 52
t-56.5 17q-27 0 -58 -8q-10 -24 -10 -50q0 -28 19.5 -45t57.5 -17q33 0 52 6zM744 39q9 22 9 48q0 39 -17 56.5t-59 17.5t-66 -8q-8 -16 -11 -28.5t-3 -28.5q0 -34 19.5 -50t62.5 -16q39 0 65 9z" />
    <glyph glyph-name="seveneighths" unicode="&#x215e;" horiz-adv-x="823" 
d="M167 6l384 613l37 -9l-384 -615zM124 259q29 174 135 308v5h-155v-47h-34q-9 24 -9 59v28h242v-50q-59 -78 -90.5 -149.5t-45.5 -157.5zM541.5 19q-30.5 27 -30.5 74q0 33 14 53t44 38v4q-24 14 -35.5 30.5t-11.5 43.5q0 41 33 66.5t90 25.5q48 0 75 -26.5t27 -70.5
q0 -50 -45 -77v-5q27 -16 38.5 -36t11.5 -52q0 -45 -31.5 -70t-95.5 -25q-53 0 -83.5 27zM693 203q12 21 12 45q0 35 -16.5 52t-56.5 17q-27 0 -58 -8q-10 -24 -10 -50q0 -28 19.5 -45t57.5 -17q33 0 52 6zM700 39q9 22 9 48q0 39 -17 56.5t-59 17.5t-66 -8
q-8 -16 -11 -28.5t-3 -28.5q0 -34 19.5 -50t62.5 -16q39 0 65 9z" />
    <glyph glyph-name="uni2080" unicode="&#x2080;" horiz-adv-x="357" 
d="M73 -91.5q-31 44.5 -31 132.5q0 86 34.5 136t107.5 50q69 0 100 -44t31 -133q0 -86 -34.5 -136t-107.5 -50q-69 0 -100 44.5zM253 -84q19 63 19 127q0 75 -19 109t-74 34q-43 0 -76 -11q-19 -65 -19 -126q0 -76 19 -110.5t74 -34.5q40 0 76 12z" />
    <glyph glyph-name="uni2081" unicode="&#x2081;" horiz-adv-x="222" 
d="M121 181l-4 3l-74 -29l-9 23l80 50q16 -1 32.5 -10.5t16.5 -17.5v-332h-42v313z" />
    <glyph glyph-name="uni2082" unicode="&#x2082;" horiz-adv-x="321" 
d="M46 -73q181 111 181 197q0 35 -15.5 49.5t-51.5 14.5q-27 0 -62 -6v-46h-34q-7 25 -7 54v16q50 21 108 21q56 0 80.5 -27.5t24.5 -73.5q0 -57 -49.5 -109.5t-131.5 -105.5v-5h147v32h32q8 -21 8 -51v-18h-230v58z" />
    <glyph glyph-name="uni2083" unicode="&#x2083;" horiz-adv-x="307" 
d="M37 -124l6 38q48 -12 95 -12q42 0 71 6q11 23 11 53q0 63 -84 63h-36v38h36q74 0 74 64q0 32 -16.5 47t-49.5 15q-31 0 -63 -4v-37h-33q-7 25 -7 45v17q49 18 105 18q53 0 80 -26t27 -69q0 -34 -16 -54t-49 -32v-3q41 -12 57.5 -33t16.5 -52q0 -43 -29 -68.5t-94 -25.5
q-55 0 -102 12z" />
    <glyph glyph-name="uni2084" unicode="&#x2084;" horiz-adv-x="333" 
d="M200 -60h-156l-16 38l171 244h43v-246h55v-36h-55v-71h-42v71zM201 -24v75q0 56 7 119h-4l-127 -190l2 -4h122z" />
    <glyph glyph-name="uni2085" unicode="&#x2085;" horiz-adv-x="297" 
d="M42 -125l6 38q47 -11 88 -11q40 0 71 10q10 30 10 65q0 33 -15.5 48.5t-48.5 15.5q-22 0 -37.5 -2.5t-34.5 -9.5l-35 30l13 163h169v-39h-133l-8 -116q21 7 37 9.5t38 2.5q46 0 71.5 -25.5t25.5 -70.5q0 -55 -29.5 -87t-99.5 -32q-43 0 -88 11z" />
    <glyph glyph-name="uni2086" unicode="&#x2086;" horiz-adv-x="310" 
d="M66.5 -98.5q-28.5 37.5 -28.5 99.5q0 70 34.5 123.5t104.5 100.5l32 -18q-55 -39 -82.5 -68.5t-40.5 -73.5q24 12 45.5 17.5t45.5 5.5q48 0 73 -27.5t25 -76.5q0 -50 -31 -85t-91 -35q-58 0 -86.5 37.5zM222 -88q12 34 12 64q0 73 -66 73q-44 0 -88 -20q-1 -10 -1 -28
q0 -48 18.5 -73.5t65.5 -25.5q30 0 59 10z" />
    <glyph glyph-name="uni2087" unicode="&#x2087;" horiz-adv-x="311" 
d="M95 -131q29 174 135 308v5h-155v-47h-34q-9 24 -9 59v28h242v-50q-59 -78 -90.5 -149.5t-45.5 -157.5z" />
    <glyph glyph-name="uni2088" unicode="&#x2088;" horiz-adv-x="319" 
d="M66.5 -110q-30.5 27 -30.5 74q0 34 13.5 53.5t44.5 37.5v4q-24 14 -35.5 30.5t-11.5 43.5q0 41 33 67t90 26q48 0 75 -27t27 -71q0 -49 -45 -77v-4q27 -17 38.5 -37t11.5 -52q0 -44 -32 -69.5t-95 -25.5q-53 0 -83.5 27zM217 74q12 21 12 46q0 34 -16.5 51t-56.5 17
q-26 0 -58 -7q-10 -24 -10 -50q0 -28 19.5 -45t57.5 -17q36 0 52 5zM225 -90q9 22 9 48q0 39 -17 56.5t-59 17.5q-41 0 -66 -7q-8 -17 -11 -29.5t-3 -28.5q0 -34 19.5 -50t62.5 -16q35 0 65 9z" />
    <glyph glyph-name="uni2089" unicode="&#x2089;" horiz-adv-x="353" 
d="M105 -111q41 28 70 58t54 73q-23 -13 -42.5 -18.5t-43.5 -5.5q-48 0 -74.5 27t-26.5 75q0 55 33.5 92t89.5 37q58 0 86.5 -36.5t28.5 -95.5q0 -69 -36.5 -123t-106.5 -101zM195 39.5q16 5.5 42 18.5q1 16 1 37q0 47 -19.5 70.5t-63.5 23.5q-26 0 -61 -10q-11 -36 -11 -72
q0 -39 17.5 -56t56.5 -17q22 0 38 5.5z" />
    <glyph glyph-name="uni2070" unicode="&#x2070;" horiz-adv-x="362" 
d="M42 506q0 86 34.5 136t107.5 50q69 0 102.5 -46t33.5 -132t-35.5 -135.5t-108.5 -49.5q-134 0 -134 177zM256 384q18 56 18 123q0 73 -19.5 107t-74.5 34q-38 0 -74 -12q-17 -55 -17 -123q0 -73 19 -106.5t74 -33.5q42 0 74 11z" />
    <glyph glyph-name="uni00B9" unicode="&#xb9;" horiz-adv-x="222" 
d="M121 645l-4 3l-74 -29l-9 23l80 50q16 -1 32.5 -10.5t16.5 -17.5v-332h-42v313z" />
    <glyph glyph-name="uni00B2" unicode="&#xb2;" horiz-adv-x="321" 
d="M46 392q181 111 181 197q0 35 -15.5 49.5t-51.5 14.5q-27 0 -62 -6v-46h-34q-7 25 -7 54v16q49 21 108 21q56 0 80.5 -27.5t24.5 -73.5q0 -58 -49.5 -111t-131.5 -104v-5h147v32h32q8 -21 8 -51v-18h-230v58z" />
    <glyph glyph-name="uni00B3" unicode="&#xb3;" horiz-adv-x="307" 
d="M37 342l6 38q48 -12 95 -12q42 0 71 6q11 23 11 53q0 63 -84 63h-36v38h36q74 0 74 64q0 32 -16.5 47t-49.5 15q-31 0 -63 -4v-37h-33q-7 25 -7 45v17q49 18 105 18q53 0 80 -26t27 -69q0 -34 -16 -54t-49 -32v-3q41 -12 57.5 -33t16.5 -52q0 -43 -29 -68.5t-94 -25.5
q-55 0 -102 12z" />
    <glyph glyph-name="uni2074" unicode="&#x2074;" horiz-adv-x="333" 
d="M200 405h-156l-16 38l171 244h43v-246h55v-36h-55v-71h-42v71zM201 441v75q0 56 7 119h-4l-127 -190l2 -4h122z" />
    <glyph glyph-name="uni2075" unicode="&#x2075;" horiz-adv-x="297" 
d="M42 341l6 38q47 -11 88 -11q40 0 71 10q10 29 10 64q0 34 -15.5 49t-48.5 15q-38 0 -72 -11l-35 30l13 162h169v-38h-133l-8 -116q20 7 36 9t39 2q46 0 71.5 -25t25.5 -70q0 -55 -29.5 -87t-99.5 -32q-43 0 -88 11z" />
    <glyph glyph-name="uni2076" unicode="&#x2076;" horiz-adv-x="310" 
d="M66.5 366.5q-28.5 37.5 -28.5 99.5q0 70 34.5 123.5t104.5 100.5l32 -18q-55 -39 -82.5 -68.5t-40.5 -73.5q24 12 45.5 17.5t45.5 5.5q48 0 73 -27.5t25 -76.5q0 -50 -31 -85t-91 -35q-58 0 -86.5 37.5zM222 377q12 34 12 64q0 73 -66 73q-44 0 -88 -20q-1 -10 -1 -28
q0 -48 18.5 -73.5t65.5 -25.5q30 0 59 10z" />
    <glyph glyph-name="uni2077" unicode="&#x2077;" horiz-adv-x="311" 
d="M95 334q29 174 135 308v5h-155v-47h-34q-9 24 -9 59v28h242v-50q-59 -78 -90.5 -149.5t-45.5 -157.5z" />
    <glyph glyph-name="uni2078" unicode="&#x2078;" horiz-adv-x="319" 
d="M66.5 356q-30.5 27 -30.5 74q0 34 13.5 53.5t44.5 37.5v4q-24 14 -35.5 30.5t-11.5 43.5q0 41 33 67t90 26q48 0 75 -27t27 -71q0 -49 -45 -77v-4q27 -17 38.5 -37t11.5 -52q0 -44 -32 -69.5t-95 -25.5q-53 0 -83.5 27zM217 540q12 21 12 46q0 34 -16.5 51t-56.5 17
q-26 0 -58 -7q-10 -24 -10 -50q0 -28 19.5 -45t57.5 -17q36 0 52 5zM225 376q9 22 9 48q0 39 -17 56.5t-59 17.5t-66 -7q-8 -17 -11 -29.5t-3 -28.5q0 -34 19.5 -50t62.5 -16q35 0 65 9z" />
    <glyph glyph-name="uni2079" unicode="&#x2079;" horiz-adv-x="353" 
d="M105 354q42 29 71 58.5t53 72.5q-23 -13 -42.5 -18.5t-43.5 -5.5q-48 0 -74.5 27t-26.5 75q0 55 33.5 92t89.5 37q58 0 86.5 -36.5t28.5 -95.5q0 -69 -36.5 -123t-106.5 -101zM195 504.5q16 5.5 42 18.5q1 16 1 37q0 47 -19.5 70.5t-63.5 23.5q-26 0 -61 -10
q-11 -36 -11 -72q0 -39 17.5 -56t56.5 -17q22 0 38 5.5z" />
    <glyph glyph-name="uni0E50" unicode="&#xe50;" horiz-adv-x="532" 
d="M110.5 52q-49.5 57 -49.5 165q0 115 55.5 176t168.5 61q89 0 137.5 -58t48.5 -166q0 -116 -54 -175.5t-168 -59.5q-89 0 -138.5 57zM387 61q19 30 29.5 72.5t10.5 89.5q0 98 -40 144t-120 46q-67 0 -123 -27q-19 -29 -29 -71.5t-10 -89.5q0 -99 39.5 -144.5t120.5 -45.5
q68 0 122 26z" />
    <glyph glyph-name="uni0E51" unicode="&#xe51;" horiz-adv-x="522" 
d="M179 -6q110 11 172 65t62 150q0 109 -40 185q-27 10 -53 14t-60 4q-155 0 -155 -129q0 -50 27.5 -75.5t92.5 -26.5l-7 -39q-78 1 -117.5 38.5t-39.5 102.5q0 80 51 125.5t153 45.5q104 0 148.5 -61t44.5 -179q0 -114 -71 -181t-206 -80z" />
    <glyph glyph-name="uni0E52" unicode="&#xe52;" horiz-adv-x="616" 
d="M76 173v358h44v-353q0 -74 46.5 -108.5t149.5 -34.5q60 0 103 7.5t80 23.5v341q-14 5 -36 5q-52 0 -67 -64h-32q-17 64 -64 64q-26 0 -35 -19.5t-9 -57.5q0 -29 6 -64l-41 -3q-8 37 -8 72q0 114 79 114q31 0 51 -16t35 -48h6q13 30 36.5 47t55.5 17q33 0 67 -13v-330
q0 -117 -227 -117q-240 0 -240 179z" />
    <glyph glyph-name="uni0E53" unicode="&#xe53;" horiz-adv-x="603" 
d="M65 206q0 132 31.5 190.5t102.5 58.5q35 0 59.5 -14t46.5 -43h7q24 28 53.5 42.5t67.5 14.5q50 0 87 -25v-430h-44v406q-24 8 -54 8q-55 0 -95 -42v-119h-40v117q-16 21 -36 32.5t-47 11.5q-36 0 -56.5 -20.5t-29.5 -66t-9 -121.5q0 -87 23 -129t73 -42q30 0 58 9l9 -36
q-31 -14 -72 -14q-135 0 -135 212z" />
    <glyph glyph-name="uni0E54" unicode="&#xe54;" horiz-adv-x="555" 
d="M109.5 50q-48.5 55 -48.5 157q0 81 19 133.5t68 81.5t136 29h137q13 54 13 125h44q-1 -64 -10.5 -99t-36 -51t-78.5 -16h-77q-70 0 -107 -24t-50.5 -67t-13.5 -110q0 -92 38 -133t113 -41q69 0 138 33l-26 134q15 29 48 43h61v-39h-73l35 -169l65 -10v-28q-20 -4 -36 -4
q-27 0 -41 11t-23 35h-7q-30 -22 -65.5 -34t-89.5 -12q-84 0 -132.5 55z" />
    <glyph glyph-name="uni0E55" unicode="&#xe55;" horiz-adv-x="555" 
d="M109.5 50q-48.5 55 -48.5 157q0 84 21 132.5t64 75.5v2q-16 10 -24 24.5t-8 36.5q0 36 30.5 60.5t82.5 24.5q47 0 72 -20.5t25 -56.5q0 -18 -8 -32l1 -4h117q13 54 13 126h44q-1 -64 -11 -98.5t-37 -50.5t-79 -16h-88q-70 0 -107 -24.5t-50.5 -68t-13.5 -109.5
q0 -92 38 -133t113 -41q69 0 138 33l-26 134q15 29 48 43h61v-39h-73l35 -169l65 -10v-28q-20 -4 -36 -4q-27 0 -41 11t-23 35h-7q-30 -22 -65.5 -34t-89.5 -12q-84 0 -132.5 55zM278 444q8 18 8 35q0 49 -63 49q-36 0 -63 -9q-9 -19 -9 -38q0 -24 15 -34.5t47 -10.5
q36 0 65 8z" />
    <glyph glyph-name="uni0E56" unicode="&#xe56;" horiz-adv-x="514" 
d="M166.5 3q-38.5 9 -64.5 25v35q0 31 9 56h26l10 -72q44 -11 106 -11q38 0 65.5 4.5t52.5 15.5q39 68 39 171q0 94 -31.5 140t-105.5 46q-38 0 -71 -13t-68 -42l3 -47l-36 -5q-6 58 -21.5 130t-33.5 129l46 9q31 -105 32 -176l10 -2q35 28 71 43t80 15q87 0 128 -59.5
t41 -167.5q0 -114 -49 -173.5t-154 -59.5q-46 0 -84.5 9z" />
    <glyph glyph-name="uni0E57" unicode="&#xe57;" horiz-adv-x="759" 
d="M65 207q0 87 10.5 140.5t36.5 80t71 26.5q35 0 58 -15.5t43 -46.5h6q41 62 109 62q48 0 76 -18v-395h72q29 0 45 1.5t37 7.5q7 37 7 105v356h42v-370q0 -73 -31.5 -107t-114.5 -34h-100v408q-16 6 -46 6q-26 0 -46 -14t-37 -41h-34q-16 27 -34 41t-46 14q-33 0 -50 -22
t-23.5 -66t-6.5 -119q0 -89 25.5 -130t80.5 -41q33 0 66 11l9 -36q-27 -15 -80 -15q-145 0 -145 211z" />
    <glyph glyph-name="uni0E58" unicode="&#xe58;" horiz-adv-x="569" 
d="M93 48.5q-28 54.5 -28 160.5q0 80 18.5 132.5t67 81t135.5 28.5h163q12 47 14 125h43q-1 -65 -9.5 -99t-33.5 -50.5t-75 -16.5h-113q-66 0 -102 -22.5t-50 -65.5t-14 -111q0 -64 6.5 -101t25.5 -56t55 -19q35 0 54.5 21.5t25.5 58.5h54q3 -36 22.5 -58t57.5 -22
q37 0 61 5v179h-111v40h97q21 -9 33.5 -21.5t22.5 -29.5v-113q0 -101 -101 -101q-76 0 -106 81h-7q-18 -41 -44.5 -61t-70.5 -20q-63 0 -91 54.5z" />
    <glyph glyph-name="uni0E59" unicode="&#xe59;" horiz-adv-x="565" 
d="M65 203q0 134 38.5 193t120.5 59q58 0 88 -28t45 -89q10 -1 30 -1q47 0 76 11q11 52 11 124q0 49 -2 81l42 5q2 -66 2 -82q0 -91 -22.5 -133.5t-82.5 -42.5q-19 0 -46 5l71 -252l-37 -9l-99 355q-18 8 -34.5 11.5t-40.5 3.5q-62 0 -89 -48.5t-27 -162.5
q0 -85 22.5 -126.5t75.5 -41.5q29 0 53 6l10 -37q-30 -10 -65 -10q-140 0 -140 209z" />
    <glyph glyph-name="asterisk" unicode="*" horiz-adv-x="496" 
d="M129 349l92 117l-1 4l-131 36l13 42l128 -51l3 3l-8 145h46l-8 -145l3 -3l128 51l13 -42l-131 -36l-1 -4l93 -117l-37 -26l-80 124h-5l-81 -124z" />
    <glyph glyph-name="backslash" unicode="\" horiz-adv-x="424" 
d="M69 622l42 10l244 -637l-42 -11z" />
    <glyph glyph-name="periodcentered" unicode="&#xb7;" horiz-adv-x="340" 
d="M139.5 239q-11.5 11 -11.5 30t12 30.5t31 11.5q20 0 31.5 -11.5t11.5 -30.5t-11.5 -30t-31.5 -11t-31.5 11z" />
    <glyph glyph-name="bullet" unicode="&#x2022;" horiz-adv-x="325" 
d="M104 212.5q-23 22.5 -23 58.5q0 35 23.5 58t58.5 23t58.5 -23t23.5 -58t-23.5 -58t-58.5 -23q-36 0 -59 22.5z" />
    <glyph glyph-name="colon" unicode=":" horiz-adv-x="237" 
d="M86 418h66v-67h-66v67zM86 83h66v-67h-66v67z" />
    <glyph glyph-name="comma" unicode="," horiz-adv-x="238" 
d="M92 -90q18 33 27 65t9 76h-55v33q22 6 38 6q56 0 56 -62q0 -68 -45 -125z" />
    <glyph glyph-name="ellipsis" unicode="&#x2026;" horiz-adv-x="591" 
d="M89 67h66v-67h-66v67zM262 67h66v-67h-66v67zM436 67h66v-67h-66v67z" />
    <glyph glyph-name="exclam" unicode="!" horiz-adv-x="261" 
d="M106 410v202h48v-202l-6 -237h-35zM105 79h51v-79h-51v79z" />
    <glyph glyph-name="exclamdown" unicode="&#xa1;" horiz-adv-x="225" 
d="M87 612h51v-80h-51v80zM88 201l7 237h35l6 -236v-202h-48v201z" />
    <glyph glyph-name="numbersign" unicode="#" horiz-adv-x="706" 
d="M172 -1l26 189h-109v44h115l23 165h-113v43h118l26 186l47 -2l-25 -184h174l26 186l45 -2l-24 -184h107v-43h-112l-23 -165h110v-44h-116l-26 -192l-47 3l25 189h-174l-26 -192zM426 232l23 165h-175l-23 -165h175z" />
    <glyph glyph-name="period" unicode="." horiz-adv-x="237" 
d="M86 67h66v-67h-66v67z" />
    <glyph glyph-name="question" unicode="?" horiz-adv-x="545" 
d="M219 220q0 21 6 33.5t22 24.5l158 119v72q0 59 -30 84.5t-99 25.5q-78 0 -141 -18v-77h-33q-13 37 -13 75v26q31 15 83 26.5t106 11.5q92 0 133 -39t41 -119q0 -45 -11 -72.5t-42 -51.5l-112 -83q-14 -11 -17.5 -19t-3.5 -28v-57h-47v66zM217 79h50v-79h-50v79z" />
    <glyph glyph-name="questiondown" unicode="&#xbf;" horiz-adv-x="509" 
d="M255 517h50v-79h-50v79zM112 -67q-41 39 -41 119q0 45 11 72.5t42 51.5l112 83q14 11 17.5 19t3.5 28v57h47v-66q0 -21 -6 -33.5t-22 -24.5l-158 -119v-72q0 -59 30 -84.5t99 -25.5q77 0 142 18v77h32q13 -39 13 -75v-26q-31 -15 -82.5 -26.5t-106.5 -11.5q-92 0 -133 39
z" />
    <glyph glyph-name="quotedbl" unicode="&#x22;" horiz-adv-x="339" 
d="M121 551q-2 33 2 61h38q4 -28 2 -61l-8 -128h-26zM176 551q-2 33 2 61h38q4 -28 2 -61l-8 -128h-26z" />
    <glyph glyph-name="quotesingle" unicode="'" horiz-adv-x="230" 
d="M94 551q-2 33 2 61h38q4 -28 2 -61l-8 -128h-26z" />
    <glyph glyph-name="semicolon" unicode=";" horiz-adv-x="266" 
d="M97 418h66v-67h-66v67zM105 -41q18 33 27 65t9 76h-55v33q22 6 38 6q56 0 56 -62q0 -68 -45 -125z" />
    <glyph glyph-name="slash" unicode="/" horiz-adv-x="477" 
d="M87 -81l262 740l42 -10l-261 -740z" />
    <glyph glyph-name="underscore" unicode="_" horiz-adv-x="556" 
d="M71 0h414v-33h-414v33z" />
    <glyph glyph-name="uni208D" unicode="&#x208d;" horiz-adv-x="231" 
d="M97.5 -179q-18.5 14 -21.5 25v355q3 12 21.5 25.5t35.5 19.5q9 0 27 -2v-36h-45v-368h45v-36q-9 -2 -27 -2q-17 5 -35.5 19z" />
    <glyph glyph-name="uni208E" unicode="&#x208e;" horiz-adv-x="233" 
d="M76 -197v37h45v368h-45v36q10 1 27 1q18 -5 36 -18.5t21 -25.5v-355q-3 -12 -21 -25.5t-36 -18.5q-17 0 -27 1z" />
    <glyph glyph-name="braceleft" unicode="{" horiz-adv-x="403" 
d="M221.5 -77.5q-37.5 38.5 -37.5 121.5q0 18 1 28l5 86q8 139 -119 139v39q127 0 119 139l-5 72q-1 10 -1 28q0 83 37.5 121.5t120.5 43.5v-43q-54 -3 -100 -21q-15 -63 -12 -133l4 -83q6 -114 -89 -141v-6q95 -27 89 -140l-4 -98q-3 -70 12 -133q48 -17 100 -20v-43
q-83 5 -120.5 43.5z" />
    <glyph glyph-name="braceright" unicode="}" horiz-adv-x="403" 
d="M61 -78q52 3 100 20q15 63 12 133l-4 98q-5 114 89 140v6q-94 26 -89 141l4 83q3 70 -12 133q-46 18 -100 21v43q83 -5 120.5 -43.5t37.5 -121.5q0 -18 -1 -28l-5 -72q-8 -139 119 -139v-39q-127 0 -119 -139l5 -86q1 -10 1 -28q0 -83 -37.5 -121.5t-120.5 -43.5v43z" />
    <glyph glyph-name="bracketleft" unicode="[" horiz-adv-x="277" 
d="M86 707h108v-42h-62v-709h62v-41h-108v792z" />
    <glyph glyph-name="bracketright" unicode="]" horiz-adv-x="277" 
d="M83 -44h62v709h-62v42h108v-792h-108v41z" />
    <glyph glyph-name="parenleft" unicode="(" horiz-adv-x="341" 
d="M128.5 -68q-20.5 19 -24.5 42v663q4 23 24.5 42.5t49.5 29.5q26 0 62 -4v-43h-88v-713h88v-42q-24 -4 -62 -4q-29 10 -49.5 29z" />
    <glyph glyph-name="parenright" unicode=")" horiz-adv-x="341" 
d="M101 -93v42h88v713h-88v43q38 4 63 4q29 -10 49 -29.5t24 -42.5v-663q-4 -23 -24 -42t-49 -29q-38 0 -63 4z" />
    <glyph glyph-name="uni207D" unicode="&#x207d;" horiz-adv-x="231" 
d="M97.5 321q-18.5 14 -21.5 25v355q3 12 21.5 25.5t35.5 19.5q9 0 27 -2v-36h-45v-368h45v-36q-9 -2 -27 -2q-17 5 -35.5 19z" />
    <glyph glyph-name="uni207E" unicode="&#x207e;" horiz-adv-x="233" 
d="M76 304v36h45v368h-45v36q20 2 27 2q18 -5 36 -19t21 -26v-355q-3 -11 -21 -25t-36 -19q-17 0 -27 2z" />
    <glyph glyph-name="emdash" unicode="&#x2014;" horiz-adv-x="657" 
d="M68 293h521v-42h-521v42z" />
    <glyph glyph-name="endash" unicode="&#x2013;" horiz-adv-x="480" 
d="M68 293h345v-42h-345v42z" />
    <glyph glyph-name="figuredash" unicode="&#x2012;" horiz-adv-x="527" 
d="M61 293h405v-42h-405v42z" />
    <glyph glyph-name="hyphen" unicode="-" horiz-adv-x="387" 
d="M68 300h251v-41h-251v41z" />
    <glyph glyph-name="uni00AD" unicode="&#xad;" horiz-adv-x="332" 
d="M68 281h196v-42h-196v42z" />
    <glyph glyph-name="uni2010" unicode="&#x2010;" horiz-adv-x="458" 
d="M61 293h336v-42h-336v42z" />
    <glyph glyph-name="uni2015" unicode="&#x2015;" horiz-adv-x="906" 
d="M61 293h784v-42h-784v42z" />
    <glyph glyph-name="guillemotleft" unicode="&#xab;" horiz-adv-x="469" 
d="M64 251l130 172l32 -14l-116 -156v-4l116 -156l-32 -14zM224 251l130 172l32 -14l-116 -156v-4l116 -156l-32 -14z" />
    <glyph glyph-name="guillemotright" unicode="&#xbb;" horiz-adv-x="450" 
d="M65 93l116 156v4l-116 156l32 14l130 -172l-130 -172zM225 93l116 156v4l-116 156l32 14l130 -172l-130 -172z" />
    <glyph glyph-name="guilsinglleft" unicode="&#x2039;" horiz-adv-x="309" 
d="M64 260l130 172l32 -12l-117 -160l117 -159l-32 -12z" />
    <glyph glyph-name="guilsinglright" unicode="&#x203a;" horiz-adv-x="291" 
d="M65 101l117 159l-117 160l32 12l130 -172l-130 -171z" />
    <glyph glyph-name="quotedblbase" unicode="&#x201e;" horiz-adv-x="410" 
d="M94 438q18 33 27 65t9 76h-55v33q22 6 37 6q57 0 57 -62q0 -68 -46 -125zM259 438q18 33 27 65t9 76h-55v33q22 6 38 6q56 0 56 -62q0 -68 -46 -125z" />
    <glyph glyph-name="quotedblleft" unicode="&#x201c;" horiz-adv-x="410" 
d="M76 493q0 68 46 125l29 -7q-18 -33 -27 -65.5t-9 -75.5h55v-33q-17 -6 -38 -6q-56 0 -56 62zM241 493q0 68 46 125l29 -7q-18 -33 -27 -65.5t-9 -75.5h55v-33q-16 -6 -37 -6q-57 0 -57 62z" />
    <glyph glyph-name="quotedblright" unicode="&#x201d;" horiz-adv-x="410" 
d="M94 438q18 33 27 65t9 76h-55v33q22 6 37 6q57 0 57 -62q0 -68 -46 -125zM259 438q18 33 27 65t9 76h-55v33q22 6 38 6q56 0 56 -62q0 -68 -46 -125z" />
    <glyph glyph-name="quoteleft" unicode="&#x2018;" horiz-adv-x="245" 
d="M76 493q0 68 46 125l29 -7q-18 -33 -27 -65.5t-9 -75.5h55v-33q-17 -6 -37 -6q-57 0 -57 62z" />
    <glyph glyph-name="quoteright" unicode="&#x2019;" horiz-adv-x="245" 
d="M94 438q18 33 27 65t9 76h-55v33q22 6 38 6q56 0 56 -62q0 -68 -46 -125z" />
    <glyph glyph-name="quotesinglbase" unicode="&#x201a;" horiz-adv-x="246" 
d="M94 -90q18 33 27 65t9 76h-55v33q22 6 38 6q56 0 56 -62q0 -68 -45 -125z" />
    <glyph glyph-name="uni0E5A" unicode="&#xe5a;" horiz-adv-x="727" 
d="M359 288q-37 -24 -74.5 -36.5t-84.5 -12.5q-66 0 -99.5 36t-33.5 103q0 44 8 134h39v-152q0 -41 9 -64q29 -14 73 -14q88 0 163 39v191h45v-512h-45v288zM598 512h45v-512h-45v512z" />
    <glyph glyph-name="uni0E4F" unicode="&#xe4f;" horiz-adv-x="564" 
d="M133 53q-57 55 -57 149t57 149t149 55q61 0 108 -25t73 -71t26 -108t-26 -108t-73 -71t-108 -25q-92 0 -149 55zM417 67q51 49 51 135q0 85 -51.5 134.5t-134.5 49.5t-134 -49.5t-51 -134.5q0 -86 51 -135t134 -49q84 0 135 49zM202 123q-30 29 -30 79t30 79t80 29
t79.5 -29t29.5 -79t-29.5 -79t-79.5 -29t-80 29zM347 136q23 23 23 66q0 42 -23 65t-65 23t-65.5 -23t-23.5 -65q0 -43 23.5 -66t65.5 -23t65 23z" />
    <glyph glyph-name="uni0E5B" unicode="&#xe5b;" horiz-adv-x="706" 
d="M94 184.5q-27 36.5 -27 101.5q0 45 20 100l45 -6q-11 -31 -16 -53.5t-5 -45.5q0 -47 17.5 -70t58.5 -23q35 0 69 15v134h42v-65q0 -41 17 -58t59 -17q26 0 63 6v134h44v-57q23 -18 46 -24t58 -6q34 0 65 12l13 -38q-35 -17 -80 -17q-33 0 -57.5 10t-48.5 34h-5
q-5 -46 -29.5 -70t-73.5 -24q-53 0 -82 40h-6q-19 -24 -44.5 -36.5t-62.5 -12.5q-53 0 -80 36.5z" />
    <glyph glyph-name="uni0E46" unicode="&#xe46;" horiz-adv-x="543" 
d="M413 427q-20 5 -43 5q-67 0 -87 -63h-30q-10 29 -28 46t-48 17q-39 0 -55.5 -23.5t-16.5 -70.5q0 -40 13 -80l-43 -7q-16 43 -16 86q0 137 111 137q35 0 57.5 -15t38.5 -43h6q20 28 45.5 43t66.5 15q38 0 75 -16v-704h-46v673z" />
    <glyph glyph-name="uni0E2F" unicode="&#xe2f;" horiz-adv-x="482" 
d="M353 288q-37 -24 -74.5 -36.5t-84.5 -12.5q-66 0 -99.5 36t-33.5 103q0 44 8 134h39v-152q0 -41 9 -64q29 -14 73 -14q88 0 163 39v191h45v-512h-45v288z" />
    </font>
</defs>
</svg>
